  0
SECTION
  2
HEADER
  9
$ACADVER
  1
AC1012
  9
$DWGCODEPAGE
  3
ansi_932
  9
$INSBASE
 10
0.0
 20
0.0
 30
0.0
  9
$EXTMIN
 10
1.000000000000000E+20
 20
1.000000000000000E+20
 30
1.000000000000000E+20
  9
$EXTMAX
 10
-1.000000000000000E+20
 20
-1.000000000000000E+20
 30
-1.000000000000000E+20
  9
$LIMMIN
 10
0.0
 20
0.0
  9
$LIMMAX
 10
12.0
 20
9.0
  9
$ORTHOMODE
 70
     0
  9
$REGENMODE
 70
     1
  9
$FILLMODE
 70
     1
  9
$QTEXTMODE
 70
     0
  9
$MIRRTEXT
 70
     1
  9
$DRAGMODE
 70
     2
  9
$LTSCALE
 40
1.0
  9
$OSMODE
 70
    37
  9
$ATTMODE
 70
     1
  9
$TEXTSIZE
 40
0.2
  9
$TRACEWID
 40
0.05
  9
$TEXTSTYLE
  7
STANDARD
  9
$CLAYER
  8
0
  9
$CELTYPE
  6
BYLAYER
  9
$CECOLOR
 62
   256
  9
$CELTSCALE
 40
1.0
  9
$DELOBJ
 70
     1
  9
$DISPSILH
 70
     0
  9
$DIMSCALE
 40
1.0
  9
$DIMASZ
 40
0.18
  9
$DIMEXO
 40
0.0625
  9
$DIMDLI
 40
0.38
  9
$DIMRND
 40
0.0
  9
$DIMDLE
 40
0.0
  9
$DIMEXE
 40
0.18
  9
$DIMTP
 40
0.0
  9
$DIMTM
 40
0.0
  9
$DIMTXT
 40
0.18
  9
$DIMCEN
 40
0.09
  9
$DIMTSZ
 40
0.0
  9
$DIMTOL
 70
     0
  9
$DIMLIM
 70
     0
  9
$DIMTIH
 70
     1
  9
$DIMTOH
 70
     1
  9
$DIMSE1
 70
     0
  9
$DIMSE2
 70
     0
  9
$DIMTAD
 70
     0
  9
$DIMZIN
 70
     0
  9
$DIMBLK
  1

  9
$DIMASO
 70
     1
  9
$DIMSHO
 70
     1
  9
$DIMPOST
  1

  9
$DIMAPOST
  1

  9
$DIMALT
 70
     0
  9
$DIMALTD
 70
     2
  9
$DIMALTF
 40
25.4
  9
$DIMLFAC
 40
1.0
  9
$DIMTOFL
 70
     0
  9
$DIMTVP
 40
0.0
  9
$DIMTIX
 70
     0
  9
$DIMSOXD
 70
     0
  9
$DIMSAH
 70
     0
  9
$DIMBLK1
  1

  9
$DIMBLK2
  1

  9
$DIMSTYLE
  2
STANDARD
  9
$DIMCLRD
 70
     0
  9
$DIMCLRE
 70
     0
  9
$DIMCLRT
 70
     0
  9
$DIMTFAC
 40
1.0
  9
$DIMGAP
 40
0.09
  9
$DIMJUST
 70
     0
  9
$DIMSD1
 70
     0
  9
$DIMSD2
 70
     0
  9
$DIMTOLJ
 70
     1
  9
$DIMTZIN
 70
     0
  9
$DIMALTZ
 70
     0
  9
$DIMALTTZ
 70
     0
  9
$DIMFIT
 70
     3
  9
$DIMUPT
 70
     0
  9
$DIMUNIT
 70
     2
  9
$DIMDEC
 70
     4
  9
$DIMTDEC
 70
     4
  9
$DIMALTU
 70
     2
  9
$DIMALTTD
 70
     2
  9
$DIMTXSTY
  7
STANDARD
  9
$DIMAUNIT
 70
     0
  9
$LUNITS
 70
     2
  9
$LUPREC
 70
     4
  9
$SKETCHINC
 40
0.1
  9
$FILLETRAD
 40
0.5
  9
$AUNITS
 70
     0
  9
$AUPREC
 70
     0
  9
$MENU
  1
.
  9
$ELEVATION
 40
0.0
  9
$PELEVATION
 40
0.0
  9
$THICKNESS
 40
0.0
  9
$LIMCHECK
 70
     0
  9
$CHAMFERA
 40
0.5
  9
$CHAMFERB
 40
0.5
  9
$CHAMFERC
 40
1.0
  9
$CHAMFERD
 40
0.0
  9
$SKPOLY
 70
     0
  9
$TDCREATE
 40
2457565.305636574
  9
$TDUPDATE
 40
2457565.305636586
  9
$TDINDWG
 40
0.0000000116
  9
$TDUSRTIMER
 40
0.0000000116
  9
$USRTIMER
 70
     1
  9
$ANGBASE
 50
0.0
  9
$ANGDIR
 70
     0
  9
$PDMODE
 70
     0
  9
$PDSIZE
 40
0.0
  9
$PLINEWID
 40
0.0
  9
$COORDS
 70
     1
  9
$SPLFRAME
 70
     0
  9
$SPLINETYPE
 70
     6
  9
$SPLINESEGS
 70
     8
  9
$ATTDIA
 70
     0
  9
$ATTREQ
 70
     1
  9
$HANDLING
 70
     1
  9
$HANDSEED
  5
136
  9
$SURFTAB1
 70
     6
  9
$SURFTAB2
 70
     6
  9
$SURFTYPE
 70
     6
  9
$SURFU
 70
     6
  9
$SURFV
 70
     6
  9
$UCSNAME
  2

  9
$UCSORG
 10
0.0
 20
0.0
 30
0.0
  9
$UCSXDIR
 10
1.0
 20
0.0
 30
0.0
  9
$UCSYDIR
 10
0.0
 20
1.0
 30
0.0
  9
$PUCSNAME
  2

  9
$PUCSORG
 10
0.0
 20
0.0
 30
0.0
  9
$PUCSXDIR
 10
1.0
 20
0.0
 30
0.0
  9
$PUCSYDIR
 10
0.0
 20
1.0
 30
0.0
  9
$USERI1
 70
     0
  9
$USERI2
 70
     0
  9
$USERI3
 70
     0
  9
$USERI4
 70
     0
  9
$USERI5
 70
     0
  9
$USERR1
 40
0.0
  9
$USERR2
 40
0.0
  9
$USERR3
 40
0.0
  9
$USERR4
 40
0.0
  9
$USERR5
 40
0.0
  9
$WORLDVIEW
 70
     1
  9
$SHADEDGE
 70
     3
  9
$SHADEDIF
 70
    70
  9
$TILEMODE
 70
     1
  9
$MAXACTVP
 70
    64
  9
$PINSBASE
 10
0.0
 20
0.0
 30
0.0
  9
$PLIMCHECK
 70
     0
  9
$PEXTMIN
 10
1.000000000000000E+20
 20
1.000000000000000E+20
 30
1.000000000000000E+20
  9
$PEXTMAX
 10
-1.000000000000000E+20
 20
-1.000000000000000E+20
 30
-1.000000000000000E+20
  9
$PLIMMIN
 10
0.0
 20
0.0
  9
$PLIMMAX
 10
12.0
 20
9.0
  9
$UNITMODE
 70
     0
  9
$VISRETAIN
 70
     1
  9
$PLINEGEN
 70
     0
  9
$PSLTSCALE
 70
     1
  9
$TREEDEPTH
 70
  3020
  9
$PICKSTYLE
 70
     1
  9
$CMLSTYLE
  2
STANDARD
  9
$CMLJUST
 70
     0
  9
$CMLSCALE
 40
1.0
  9
$SAVEIMAGES
 70
     1
  0
ENDSEC
  0
SECTION
  2
CLASSES
  0
CLASS
  1
ACDBDICTIONARYWDFLT
  2
AcDbDictionaryWithDefault
  3
ObjectDBX Classes
 90
    32768
280
     0
281
     0
  0
CLASS
  1
VISUALSTYLE
  2
AcDbVisualStyle
  3
ObjectDBX Classes
 90
     4095
280
     0
281
     0
  0
CLASS
  1
IMAGEDEF
  2
AcDbRasterImageDef
  3
ISM
 90
    32768
280
     0
281
     0
  0
CLASS
  1
RASTERVARIABLES
  2
AcDbRasterVariables
  3
ISM
 90
    32768
280
     0
281
     0
  0
CLASS
  1
IMAGE
  2
AcDbRasterImage
  3
ISM
 90
    32895
280
     0
281
     1
  0
CLASS
  1
IMAGEDEF_REACTOR
  2
AcDbRasterImageDefReactor
  3
ISM
 90
    32769
280
     0
281
     0
  0
CLASS
  1
XRECORD
  2
AcDbXrecord
  3
AutoCAD 2000
 90
    32768
280
     0
281
     0
  0
CLASS
  1
LWPOLYLINE
  2
AcDbPolyline
  3
AutoCAD 2000
 90
    32768
280
     0
281
     1
  0
CLASS
  1
HATCH
  2
AcDbHatch
  3
AutoCAD 2000
 90
    32768
280
     0
281
     1
  0
CLASS
  1
ACDBPLACEHOLDER
  2
AcDbPlaceHolder
  3
ObjectDBX Classes
 90
        0
280
     0
281
     0
  0
CLASS
  1
LAYOUT
  2
AcDbLayout
  3
ObjectDBX Classes
 90
        0
280
     0
281
     0
  0
ENDSEC
  0
SECTION
  2
TABLES
  0
TABLE
  2
VPORT
  5
8
330
0
100
AcDbSymbolTable
 70
     1
  0
VPORT
  5
29
330
8
100
AcDbSymbolTableRecord
100
AcDbViewportTableRecord
  2
*ACTIVE
 70
     0
 10
0.0
 20
0.0
 11
1.0
 21
1.0
 12
0.0
 22
0.0
 13
0.0
 23
0.0
 14
0.5
 24
0.5
 15
0.5
 25
0.5
 16
0.0
 26
0.0
 36
1.0
 17
243.4166666058125
 27
-136.3255289372728
 37
0.0
 40
406.3999998984
 41
1.25
 42
50.0
 43
0.0
 44
0.0
 50
0.0
 51
0.0
 71
     0
 72
   100
 73
     1
 74
     3
 75
     0
 76
     0
 77
     0
 78
     0
  0
ENDTAB
  0
TABLE
  2
LTYPE
  5
5
330
0
100
AcDbSymbolTable
 70
     1
  0
LTYPE
  5
14
330
5
100
AcDbSymbolTableRecord
100
AcDbLinetypeTableRecord
  2
BYBLOCK
 70
     0
  3

 72
    65
 73
     0
 40
0.0
  0
LTYPE
  5
15
330
5
100
AcDbSymbolTableRecord
100
AcDbLinetypeTableRecord
  2
BYLAYER
 70
     0
  3

 72
    65
 73
     0
 40
0.0
  0
LTYPE
  5
16
330
5
100
AcDbSymbolTableRecord
100
AcDbLinetypeTableRecord
  2
CONTINUOUS
 70
     0
  3
Solid line
 72
    65
 73
     0
 40
0.0
  0
ENDTAB
  0
TABLE
  2
LAYER
  5
2
330
0
100
AcDbSymbolTable
 70
     2
  0
LAYER
  5
10
330
2
100
AcDbSymbolTableRecord
100
AcDbLayerTableRecord
  2
0
 70
     0
 62
     7
  6
CONTINUOUS
  0
LAYER
  5
3B
330
2
100
AcDbSymbolTableRecord
100
AcDbLayerTableRecord
  2
LAYER_1
 70
     0
 62
     7
  6
CONTINUOUS
  0
ENDTAB
  0
TABLE
  2
STYLE
  5
3
330
0
100
AcDbSymbolTable
 70
     1
  0
STYLE
  5
11
330
3
100
AcDbSymbolTableRecord
100
AcDbTextStyleTableRecord
  2
STANDARD
 70
     0
 40
0.0
 41
1.0
 50
0.0
 71
     0
 42
0.2
  3
txt
  4

  0
ENDTAB
  0
TABLE
  2
VIEW
  5
6
330
0
100
AcDbSymbolTable
 70
     0
  0
ENDTAB
  0
TABLE
  2
UCS
  5
7
330
0
100
AcDbSymbolTable
 70
     0
  0
ENDTAB
  0
TABLE
  2
APPID
  5
9
330
0
100
AcDbSymbolTable
 70
     1
  0
APPID
  5
12
330
9
100
AcDbSymbolTableRecord
100
AcDbRegAppTableRecord
  2
ACAD
 70
     0
  0
ENDTAB
  0
TABLE
  2
DIMSTYLE
  5
A
330
0
100
AcDbSymbolTable
 70
     1
  0
DIMSTYLE
105
27
330
A
100
AcDbSymbolTableRecord
100
AcDbDimStyleTableRecord
  2
STANDARD
 70
     0
  3

  4

  5

  6

  7

 40
1.0
 41
0.18
 42
0.0625
 43
0.38
 44
0.18
 45
0.0
 46
0.0
 47
0.0
 48
0.0
140
0.18
141
0.09
142
0.0
143
25.4
144
1.0
145
0.0
146
1.0
147
0.09
 71
     0
 72
     0
 73
     1
 74
     1
 75
     0
 76
     0
 77
     0
 78
     0
170
     0
171
     2
172
     0
173
     0
174
     0
175
     0
176
     0
177
     0
178
     0
270
     2
271
     4
272
     4
273
     2
274
     2
340
11
275
     0
280
     0
281
     0
282
     0
283
     1
284
     0
285
     0
286
     0
287
     3
288
     0
  0
ENDTAB
  0
TABLE
  2
BLOCK_RECORD
  5
1
330
0
100
AcDbSymbolTable
 70
     5
  0
BLOCK_RECORD
  5
1F
330
1
100
AcDbSymbolTableRecord
100
AcDbBlockTableRecord
  2
*MODEL_SPACE
  0
BLOCK_RECORD
  5
1B
330
1
100
AcDbSymbolTableRecord
100
AcDbBlockTableRecord
  2
*PAPER_SPACE
  0
BLOCK_RECORD
  5
41
330
1
100
AcDbSymbolTableRecord
100
AcDbBlockTableRecord
  2
BLOCK_2
  0
BLOCK_RECORD
  5
8F
330
1
100
AcDbSymbolTableRecord
100
AcDbBlockTableRecord
  2
BLOCK_3
  0
BLOCK_RECORD
  5
126
330
1
100
AcDbSymbolTableRecord
100
AcDbBlockTableRecord
  2
BLOCK_4
  0
BLOCK_RECORD
  5
130
330
1
100
AcDbSymbolTableRecord
100
AcDbBlockTableRecord
  2
BLOCK_5
  0
ENDTAB
  0
ENDSEC
  0
SECTION
  2
BLOCKS
  0
BLOCK
  5
20
330
1F
100
AcDbEntity
  8
0
100
AcDbBlockBegin
  2
*MODEL_SPACE
 70
     0
 71
     0
 10
0.0
 20
0.0
 30
0.0
  3
*MODEL_SPACE
  1

  0
ENDBLK
  5
21
330
1F
100
AcDbEntity
  8
0
100
AcDbBlockEnd
  0
BLOCK
  5
1C
330
1B
100
AcDbEntity
 67
     1
  8
0
100
AcDbBlockBegin
  2
*PAPER_SPACE
 70
     0
 71
     0
 10
0.0
 20
0.0
 30
0.0
  3
*PAPER_SPACE
  1

  0
ENDBLK
  5
1D
330
1B
100
AcDbEntity
 67
     1
  8
0
100
AcDbBlockEnd
  0
BLOCK
  5
43
330
41
100
AcDbEntity
  8
0
100
AcDbBlockBegin
  2
BLOCK_2
 70
     0
 71
     0
 10
0.0
 20
0.0
 30
0.0
  3
BLOCK_2
  1

  0
SPLINE
  5
45
330
41
100
AcDbEntity
  8
LAYER_1
 62
     7
100
AcDbSpline
210
0.0
220
0.0
230
1.0
 70
    11
 71
     3
 72
    44
 73
    40
 74
     0
 42
0.0000000001
 43
0.0000000001
 40
0.0
 40
0.0
 40
0.0
 40
0.0
 40
1.0
 40
1.0
 40
1.0
 40
2.0
 40
2.0
 40
2.0
 40
3.0
 40
3.0
 40
3.0
 40
4.0
 40
4.0
 40
4.0
 40
5.0
 40
5.0
 40
5.0
 40
6.0
 40
6.0
 40
6.0
 40
7.0
 40
7.0
 40
7.0
 40
8.0
 40
8.0
 40
8.0
 40
9.0
 40
9.0
 40
9.0
 40
10.0
 40
10.0
 40
10.0
 40
11.0
 40
11.0
 40
11.0
 40
12.0
 40
12.0
 40
12.0
 40
13.0
 40
13.0
 40
13.0
 40
13.0
 10
83.48672144180193
 20
-28.32781439178958
 30
0.0
 10
83.48672144180193
 20
-28.32781439178958
 30
0.0
 10
83.7785210294026
 20
-28.32781439178958
 30
0.0
 10
83.7785210294026
 20
-28.32781439178958
 30
0.0
 10
83.7785210294026
 20
-28.32781439178958
 30
0.0
 10
83.7785210294026
 20
-28.816328931598
 30
0.0
 10
83.7785210294026
 20
-28.816328931598
 30
0.0
 10
83.7785210294026
 20
-28.816328931598
 30
0.0
 10
83.78282739875915
 20
-28.816328931598
 30
0.0
 10
83.78282739875915
 20
-28.816328931598
 30
0.0
 10
83.84001598381431
 20
-28.71676567207428
 30
0.0
 10
83.93527287398146
 20
-28.67025688302341
 30
0.0
 10
84.0599853305475
 20
-28.67025688302341
 30
0.0
 10
84.2441256842341
 20
-28.67025688302341
 30
0.0
 10
84.34971786085701
 20
-28.76775308525598
 30
0.0
 10
84.34971786085701
 20
-28.99409585863689
 30
0.0
 10
84.34971786085701
 20
-28.99409585863689
 30
0.0
 10
84.34971786085701
 20
-29.8381442525231
 30
0.0
 10
84.34971786085701
 20
-29.8381442525231
 30
0.0
 10
84.34971786085701
 20
-29.8381442525231
 30
0.0
 10
84.05774601848209
 20
-29.8381442525231
 30
0.0
 10
84.05774601848209
 20
-29.8381442525231
 30
0.0
 10
84.05774601848209
 20
-29.8381442525231
 30
0.0
 10
84.05774601848209
 20
-29.05335150098319
 30
0.0
 10
84.05774601848209
 20
-29.05335150098319
 30
0.0
 10
84.05774601848209
 20
-28.93690727358175
 30
0.0
 10
84.01984996814434
 20
-28.89453259911317
 30
0.0
 10
83.93303356191605
 20
-28.89453259911317
 30
0.0
 10
83.82933618781003
 20
-28.89453259911317
 30
0.0
 10
83.7785210294026
 20
-28.9582668655903
 30
0.0
 10
83.7785210294026
 20
-29.08297932215634
 30
0.0
 10
83.7785210294026
 20
-29.08297932215634
 30
0.0
 10
83.7785210294026
 20
-29.8381442525231
 30
0.0
 10
83.7785210294026
 20
-29.8381442525231
 30
0.0
 10
83.7785210294026
 20
-29.8381442525231
 30
0.0
 10
83.48672144180193
 20
-29.8381442525231
 30
0.0
 10
83.48672144180193
 20
-29.8381442525231
 30
0.0
 10
83.48672144180193
 20
-29.8381442525231
 30
0.0
 10
83.48672144180193
 20
-28.32781439178958
 30
0.0
 10
83.48672144180193
 20
-28.32781439178958
 30
0.0
  0
SPLINE
  5
46
330
41
100
AcDbEntity
  8
LAYER_1
 62
     7
100
AcDbSpline
210
0.0
220
0.0
230
1.0
 70
    11
 71
     3
 72
    53
 73
    49
 74
     0
 42
0.0000000001
 43
0.0000000001
 40
0.0
 40
0.0
 40
0.0
 40
0.0
 40
1.0
 40
1.0
 40
1.0
 40
2.0
 40
2.0
 40
2.0
 40
3.0
 40
3.0
 40
3.0
 40
4.0
 40
4.0
 40
4.0
 40
5.0
 40
5.0
 40
5.0
 40
6.0
 40
6.0
 40
6.0
 40
7.0
 40
7.0
 40
7.0
 40
8.0
 40
8.0
 40
8.0
 40
9.0
 40
9.0
 40
9.0
 40
10.0
 40
10.0
 40
10.0
 40
11.0
 40
11.0
 40
11.0
 40
12.0
 40
12.0
 40
12.0
 40
13.0
 40
13.0
 40
13.0
 40
14.0
 40
14.0
 40
14.0
 40
15.0
 40
15.0
 40
15.0
 40
16.0
 40
16.0
 40
16.0
 40
16.0
 10
84.60844453179928
 20
-28.37432318084045
 30
0.0
 10
84.60844453179928
 20
-28.37432318084045
 30
0.0
 10
84.9004163741742
 20
-28.37432318084045
 30
0.0
 10
84.9004163741742
 20
-28.37432318084045
 30
0.0
 10
84.9004163741742
 20
-28.37432318084045
 30
0.0
 10
84.9004163741742
 20
-28.70005695897082
 30
0.0
 10
84.9004163741742
 20
-28.70005695897082
 30
0.0
 10
84.9004163741742
 20
-28.70005695897082
 30
0.0
 10
85.06957056249998
 20
-28.70005695897082
 30
0.0
 10
85.06957056249998
 20
-28.70005695897082
 30
0.0
 10
85.06957056249998
 20
-28.70005695897082
 30
0.0
 10
85.06957056249998
 20
-28.899011223244
 30
0.0
 10
85.06957056249998
 20
-28.899011223244
 30
0.0
 10
85.06957056249998
 20
-28.899011223244
 30
0.0
 10
84.9004163741742
 20
-28.899011223244
 30
0.0
 10
84.9004163741742
 20
-28.899011223244
 30
0.0
 10
84.9004163741742
 20
-28.899011223244
 30
0.0
 10
84.9004163741742
 20
-29.51447753168388
 30
0.0
 10
84.9004163741742
 20
-29.51447753168388
 30
0.0
 10
84.9004163741742
 20
-29.60542805249448
 30
0.0
 10
84.91953665411734
 20
-29.63936224302419
 30
0.0
 10
85.00411374828022
 20
-29.63936224302419
 30
0.0
 10
85.02736814280566
 20
-29.63936224302419
 30
0.0
 10
85.0506225373311
 20
-29.63729518573304
 30
0.0
 10
85.06957056249998
 20
-29.63522812844189
 30
0.0
 10
85.06957056249998
 20
-29.63522812844189
 30
0.0
 10
85.06957056249998
 20
-29.8381442525231
 30
0.0
 10
85.06957056249998
 20
-29.8381442525231
 30
0.0
 10
85.00411374828022
 20
-29.84434542439655
 30
0.0
 10
84.94692516322507
 20
-29.85089110581853
 30
0.0
 10
84.87922903693992
 20
-29.85089110581853
 30
0.0
 10
84.65081920626785
 20
-29.85089110581853
 30
0.0
 10
84.60844453179928
 20
-29.77906086495107
 30
0.0
 10
84.60844453179928
 20
-29.55047877950474
 30
0.0
 10
84.60844453179928
 20
-29.55047877950474
 30
0.0
 10
84.60844453179928
 20
-28.899011223244
 30
0.0
 10
84.60844453179928
 20
-28.899011223244
 30
0.0
 10
84.60844453179928
 20
-28.899011223244
 30
0.0
 10
84.46030542593354
 20
-28.899011223244
 30
0.0
 10
84.46030542593354
 20
-28.899011223244
 30
0.0
 10
84.46030542593354
 20
-28.899011223244
 30
0.0
 10
84.46030542593354
 20
-28.70005695897082
 30
0.0
 10
84.46030542593354
 20
-28.70005695897082
 30
0.0
 10
84.46030542593354
 20
-28.70005695897082
 30
0.0
 10
84.60844453179928
 20
-28.70005695897082
 30
0.0
 10
84.60844453179928
 20
-28.70005695897082
 30
0.0
 10
84.60844453179928
 20
-28.70005695897082
 30
0.0
 10
84.60844453179928
 20
-28.37432318084045
 30
0.0
 10
84.60844453179928
 20
-28.37432318084045
 30
0.0
  0
SPLINE
  5
47
330
41
100
AcDbEntity
  8
LAYER_1
 62
     7
100
AcDbSpline
210
0.0
220
0.0
230
1.0
 70
    11
 71
     3
 72
    53
 73
    49
 74
     0
 42
0.0000000001
 43
0.0000000001
 40
0.0
 40
0.0
 40
0.0
 40
0.0
 40
1.0
 40
1.0
 40
1.0
 40
2.0
 40
2.0
 40
2.0
 40
3.0
 40
3.0
 40
3.0
 40
4.0
 40
4.0
 40
4.0
 40
5.0
 40
5.0
 40
5.0
 40
6.0
 40
6.0
 40
6.0
 40
7.0
 40
7.0
 40
7.0
 40
8.0
 40
8.0
 40
8.0
 40
9.0
 40
9.0
 40
9.0
 40
10.0
 40
10.0
 40
10.0
 40
11.0
 40
11.0
 40
11.0
 40
12.0
 40
12.0
 40
12.0
 40
13.0
 40
13.0
 40
13.0
 40
14.0
 40
14.0
 40
14.0
 40
15.0
 40
15.0
 40
15.0
 40
16.0
 40
16.0
 40
16.0
 40
16.0
 10
85.23493514579197
 20
-28.37432318084045
 30
0.0
 10
85.23493514579197
 20
-28.37432318084045
 30
0.0
 10
85.52690698816689
 20
-28.37432318084045
 30
0.0
 10
85.52690698816689
 20
-28.37432318084045
 30
0.0
 10
85.52690698816689
 20
-28.37432318084045
 30
0.0
 10
85.52690698816689
 20
-28.70005695897082
 30
0.0
 10
85.52690698816689
 20
-28.70005695897082
 30
0.0
 10
85.52690698816689
 20
-28.70005695897082
 30
0.0
 10
85.69623343126692
 20
-28.70005695897082
 30
0.0
 10
85.69623343126692
 20
-28.70005695897082
 30
0.0
 10
85.69623343126692
 20
-28.70005695897082
 30
0.0
 10
85.69623343126692
 20
-28.899011223244
 30
0.0
 10
85.69623343126692
 20
-28.899011223244
 30
0.0
 10
85.69623343126692
 20
-28.899011223244
 30
0.0
 10
85.52690698816689
 20
-28.899011223244
 30
0.0
 10
85.52690698816689
 20
-28.899011223244
 30
0.0
 10
85.52690698816689
 20
-28.899011223244
 30
0.0
 10
85.52690698816689
 20
-29.51447753168388
 30
0.0
 10
85.52690698816689
 20
-29.51447753168388
 30
0.0
 10
85.52690698816689
 20
-29.60542805249448
 30
0.0
 10
85.54602726811002
 20
-29.63936224302419
 30
0.0
 10
85.6306043622729
 20
-29.63936224302419
 30
0.0
 10
85.65403101157261
 20
-29.63936224302419
 30
0.0
 10
85.67711315132378
 20
-29.63729518573304
 30
0.0
 10
85.69623343126692
 20
-29.63522812844189
 30
0.0
 10
85.69623343126692
 20
-29.63522812844189
 30
0.0
 10
85.69623343126692
 20
-29.8381442525231
 30
0.0
 10
85.69623343126692
 20
-29.8381442525231
 30
0.0
 10
85.6306043622729
 20
-29.84434542439655
 30
0.0
 10
85.57341577721776
 20
-29.85089110581853
 30
0.0
 10
85.5057196509326
 20
-29.85089110581853
 30
0.0
 10
85.27730982026054
 20
-29.85089110581853
 30
0.0
 10
85.23493514579197
 20
-29.77906086495107
 30
0.0
 10
85.23493514579197
 20
-29.55047877950474
 30
0.0
 10
85.23493514579197
 20
-29.55047877950474
 30
0.0
 10
85.23493514579197
 20
-28.899011223244
 30
0.0
 10
85.23493514579197
 20
-28.899011223244
 30
0.0
 10
85.23493514579197
 20
-28.899011223244
 30
0.0
 10
85.08696829470048
 20
-28.899011223244
 30
0.0
 10
85.08696829470048
 20
-28.899011223244
 30
0.0
 10
85.08696829470048
 20
-28.899011223244
 30
0.0
 10
85.08696829470048
 20
-28.70005695897082
 30
0.0
 10
85.08696829470048
 20
-28.70005695897082
 30
0.0
 10
85.08696829470048
 20
-28.70005695897082
 30
0.0
 10
85.23493514579197
 20
-28.70005695897082
 30
0.0
 10
85.23493514579197
 20
-28.70005695897082
 30
0.0
 10
85.23493514579197
 20
-28.70005695897082
 30
0.0
 10
85.23493514579197
 20
-28.37432318084045
 30
0.0
 10
85.23493514579197
 20
-28.37432318084045
 30
0.0
  0
SPLINE
  5
48
330
41
100
AcDbEntity
  8
LAYER_1
 62
     7
100
AcDbSpline
210
0.0
220
0.0
230
1.0
 70
    11
 71
     3
 72
    38
 73
    34
 74
     0
 42
0.0000000001
 43
0.0000000001
 40
0.0
 40
0.0
 40
0.0
 40
0.0
 40
1.0
 40
1.0
 40
1.0
 40
2.0
 40
2.0
 40
2.0
 40
3.0
 40
3.0
 40
3.0
 40
4.0
 40
4.0
 40
4.0
 40
5.0
 40
5.0
 40
5.0
 40
6.0
 40
6.0
 40
6.0
 40
7.0
 40
7.0
 40
7.0
 40
8.0
 40
8.0
 40
8.0
 40
9.0
 40
9.0
 40
9.0
 40
10.0
 40
10.0
 40
10.0
 40
11.0
 40
11.0
 40
11.0
 40
11.0
 10
85.79803600285605
 20
-28.70005695897082
 30
0.0
 10
85.79803600285605
 20
-28.70005695897082
 30
0.0
 10
86.07726099193555
 20
-28.70005695897082
 30
0.0
 10
86.07726099193555
 20
-28.70005695897082
 30
0.0
 10
86.07726099193555
 20
-28.70005695897082
 30
0.0
 10
86.07726099193555
 20
-28.82080755572883
 30
0.0
 10
86.07726099193555
 20
-28.82080755572883
 30
0.0
 10
86.07726099193555
 20
-28.82080755572883
 30
0.0
 10
86.08139510651785
 20
-28.82080755572883
 30
0.0
 10
86.08139510651785
 20
-28.82080755572883
 30
0.0
 10
86.14702417551186
 20
-28.71263155749198
 30
0.0
 10
86.22333304051014
 20
-28.67025688302341
 30
0.0
 10
86.33960501313733
 20
-28.67025688302341
 30
0.0
 10
86.57869463981366
 20
-28.67025688302341
 30
0.0
 10
86.68859318579314
 20
-28.84595675277115
 30
0.0
 10
86.68859318579314
 20
-29.26901447835983
 30
0.0
 10
86.68859318579314
 20
-29.69224445872277
 30
0.0
 10
86.57869463981366
 20
-29.86777207369625
 30
0.0
 10
86.33960501313733
 20
-29.86777207369625
 30
0.0
 10
86.22970646715785
 20
-29.86777207369625
 30
0.0
 10
86.15563691422498
 20
-29.82333034193653
 30
0.0
 10
86.09431421458754
 20
-29.73237982112594
 30
0.0
 10
86.09431421458754
 20
-29.73237982112594
 30
0.0
 10
86.09000784523097
 20
-29.73237982112594
 30
0.0
 10
86.09000784523097
 20
-29.73237982112594
 30
0.0
 10
86.09000784523097
 20
-29.73237982112594
 30
0.0
 10
86.09000784523097
 20
-30.21055907447861
 30
0.0
 10
86.09000784523097
 20
-30.21055907447861
 30
0.0
 10
86.09000784523097
 20
-30.21055907447861
 30
0.0
 10
85.79803600285605
 20
-30.21055907447861
 30
0.0
 10
85.79803600285605
 20
-30.21055907447861
 30
0.0
 10
85.79803600285605
 20
-30.21055907447861
 30
0.0
 10
85.79803600285605
 20
-28.70005695897082
 30
0.0
 10
85.79803600285605
 20
-28.70005695897082
 30
0.0
  0
SPLINE
  5
49
330
41
100
AcDbEntity
  8
LAYER_1
 62
     7
100
AcDbSpline
210
0.0
220
0.0
230
1.0
 70
    11
 71
     3
 72
    17
 73
    13
 74
     0
 42
0.0000000001
 43
0.0000000001
 40
0.0
 40
0.0
 40
0.0
 40
0.0
 40
1.0
 40
1.0
 40
1.0
 40
2.0
 40
2.0
 40
2.0
 40
3.0
 40
3.0
 40
3.0
 40
4.0
 40
4.0
 40
4.0
 40
4.0
 10
86.24434812297017
 20
-29.64366861238075
 30
0.0
 10
86.37129989160162
 20
-29.64366861238075
 30
0.0
 10
86.3966213434182
 20
-29.51654458897503
 30
0.0
 10
86.3966213434182
 20
-29.26901447835983
 30
0.0
 10
86.3966213434182
 20
-29.02148436774463
 30
0.0
 10
86.37129989160162
 20
-28.89453259911317
 30
0.0
 10
86.24434812297017
 20
-28.89453259911317
 30
0.0
 10
86.11532929704757
 20
-28.89453259911317
 30
0.0
 10
86.09000784523097
 20
-29.02148436774463
 30
0.0
 10
86.09000784523097
 20
-29.26901447835983
 30
0.0
 10
86.09000784523097
 20
-29.51654458897503
 30
0.0
 10
86.11532929704757
 20
-29.64366861238075
 30
0.0
 10
86.24434812297017
 20
-29.64366861238075
 30
0.0
  0
SPLINE
  5
4A
330
41
100
AcDbEntity
  8
LAYER_1
 62
     7
100
AcDbSpline
210
0.0
220
0.0
230
1.0
 70
    11
 71
     3
 72
    62
 73
    58
 74
     0
 42
0.0000000001
 43
0.0000000001
 40
0.0
 40
0.0
 40
0.0
 40
0.0
 40
1.0
 40
1.0
 40
1.0
 40
2.0
 40
2.0
 40
2.0
 40
3.0
 40
3.0
 40
3.0
 40
4.0
 40
4.0
 40
4.0
 40
5.0
 40
5.0
 40
5.0
 40
6.0
 40
6.0
 40
6.0
 40
7.0
 40
7.0
 40
7.0
 40
8.0
 40
8.0
 40
8.0
 40
9.0
 40
9.0
 40
9.0
 40
10.0
 40
10.0
 40
10.0
 40
11.0
 40
11.0
 40
11.0
 40
12.0
 40
12.0
 40
12.0
 40
13.0
 40
13.0
 40
13.0
 40
14.0
 40
14.0
 40
14.0
 40
15.0
 40
15.0
 40
15.0
 40
16.0
 40
16.0
 40
16.0
 40
17.0
 40
17.0
 40
17.0
 40
18.0
 40
18.0
 40
18.0
 40
19.0
 40
19.0
 40
19.0
 40
19.0
 10
87.06996525601029
 20
-29.46590168534186
 30
0.0
 10
87.06996525601029
 20
-29.46590168534186
 30
0.0
 10
87.06996525601029
 20
-29.50396999045387
 30
0.0
 10
87.06996525601029
 20
-29.50396999045387
 30
0.0
 10
87.06996525601029
 20
-29.60336099520333
 30
0.0
 10
87.12301972648314
 20
-29.66899006419734
 30
0.0
 10
87.22223847645833
 20
-29.66899006419734
 30
0.0
 10
87.31318899726892
 20
-29.66899006419734
 30
0.0
 10
87.37037758232408
 20
-29.62454833243762
 30
0.0
 10
87.37037758232408
 20
-29.53359781162702
 30
0.0
 10
87.37037758232408
 20
-29.45952825869415
 30
0.0
 10
87.32180173598205
 20
-29.42766112545559
 30
0.0
 10
87.2646131509269
 20
-29.40440673093015
 30
0.0
 10
87.2646131509269
 20
-29.40440673093015
 30
0.0
 10
87.05945771478028
 20
-29.33050943277154
 30
0.0
 10
87.05945771478028
 20
-29.33050943277154
 30
0.0
 10
86.89874401039337
 20
-29.27349310249065
 30
0.0
 10
86.81606171874738
 20
-29.17392984296693
 30
0.0
 10
86.81606171874738
 20
-29.01321613858003
 30
0.0
 10
86.81606171874738
 20
-28.82700872760228
 30
0.0
 10
86.93664006073112
 20
-28.67025688302341
 30
0.0
 10
87.23498532975375
 20
-28.67025688302341
 30
0.0
 10
87.49939640824668
 20
-28.67025688302341
 30
0.0
 10
87.624281119587
 20
-28.78894042249027
 30
0.0
 10
87.624281119587
 20
-28.99409585863689
 30
0.0
 10
87.624281119587
 20
-28.99409585863689
 30
0.0
 10
87.624281119587
 20
-29.04060464768777
 30
0.0
 10
87.624281119587
 20
-29.04060464768777
 30
0.0
 10
87.624281119587
 20
-29.04060464768777
 30
0.0
 10
87.36193709838521
 20
-29.04060464768777
 30
0.0
 10
87.36193709838521
 20
-29.04060464768777
 30
0.0
 10
87.36193709838521
 20
-28.92433267506058
 30
0.0
 10
87.32817516262976
 20
-28.86938340207085
 30
0.0
 10
87.23291827246261
 20
-28.86938340207085
 30
0.0
 10
87.15884871952974
 20
-28.86938340207085
 30
0.0
 10
87.09545896260114
 20
-28.90934650969975
 30
0.0
 10
87.09545896260114
 20
-28.99202880134574
 30
0.0
 10
87.09545896260114
 20
-29.04921738640089
 30
0.0
 10
87.12301972648314
 20
-29.09365911816061
 30
0.0
 10
87.22223847645833
 20
-29.12535399662491
 30
0.0
 10
87.22223847645833
 20
-29.12535399662491
 30
0.0
 10
87.39793834620608
 20
-29.18460963897121
 30
0.0
 10
87.39793834620608
 20
-29.18460963897121
 30
0.0
 10
87.58190644511842
 20
-29.24576008383439
 30
0.0
 10
87.64977482617783
 20
-29.3389499167104
 30
0.0
 10
87.64977482617783
 20
-29.51034341710158
 30
0.0
 10
87.64977482617783
 20
-29.74926078900366
 30
0.0
 10
87.47200789913894
 20
-29.86777207369625
 30
0.0
 10
87.2265448458149
 20
-29.86777207369625
 30
0.0
 10
86.89650469832796
 20
-29.86777207369625
 30
0.0
 10
86.80779348958278
 20
-29.72617864925249
 30
0.0
 10
86.80779348958278
 20
-29.50603704774502
 30
0.0
 10
86.80779348958278
 20
-29.50603704774502
 30
0.0
 10
86.80779348958278
 20
-29.46590168534186
 30
0.0
 10
86.80779348958278
 20
-29.46590168534186
 30
0.0
 10
86.80779348958278
 20
-29.46590168534186
 30
0.0
 10
87.06996525601029
 20
-29.46590168534186
 30
0.0
 10
87.06996525601029
 20
-29.46590168534186
 30
0.0
  0
POLYLINE
  5
4B
330
41
100
AcDbEntity
  8
LAYER_1
 62
     7
100
AcDb2dPolyline
 66
     1
 10
0.0
 20
0.0
 30
0.0
  0
VERTEX
  5
4C
330
4B
100
AcDbEntity
  8
LAYER_1
 62
     7
100
AcDbVertex
100
AcDb2dVertex
 10
87.81307235217868
 20
-28.73605820679168
 30
0.0
  0
VERTEX
  5
4D
330
4B
100
AcDbEntity
  8
LAYER_1
 62
     7
100
AcDbVertex
100
AcDb2dVertex
 10
88.09229734125817
 20
-28.73605820679168
 30
0.0
  0
VERTEX
  5
4E
330
4B
100
AcDbEntity
  8
LAYER_1
 62
     7
100
AcDbVertex
100
AcDb2dVertex
 10
88.09229734125817
 20
-29.06592609950435
 30
0.0
  0
VERTEX
  5
4F
330
4B
100
AcDbEntity
  8
LAYER_1
 62
     7
100
AcDbVertex
100
AcDb2dVertex
 10
87.81307235217868
 20
-29.06592609950435
 30
0.0
  0
VERTEX
  5
50
330
4B
100
AcDbEntity
  8
LAYER_1
 62
     7
100
AcDbVertex
100
AcDb2dVertex
 10
87.81307235217868
 20
-28.73605820679168
 30
0.0
  0
SEQEND
  5
51
330
4B
100
AcDbEntity
  8
LAYER_1
  0
POLYLINE
  5
52
330
41
100
AcDbEntity
  8
LAYER_1
 62
     7
100
AcDb2dPolyline
 66
     1
 10
0.0
 20
0.0
 30
0.0
  0
VERTEX
  5
53
330
52
100
AcDbEntity
  8
LAYER_1
 62
     7
100
AcDbVertex
100
AcDb2dVertex
 10
87.81307235217868
 20
-29.50827635981043
 30
0.0
  0
VERTEX
  5
54
330
52
100
AcDbEntity
  8
LAYER_1
 62
     7
100
AcDbVertex
100
AcDb2dVertex
 10
88.09229734125817
 20
-29.50827635981043
 30
0.0
  0
VERTEX
  5
55
330
52
100
AcDbEntity
  8
LAYER_1
 62
     7
100
AcDbVertex
100
AcDb2dVertex
 10
88.09229734125817
 20
-29.8381442525231
 30
0.0
  0
VERTEX
  5
56
330
52
100
AcDbEntity
  8
LAYER_1
 62
     7
100
AcDbVertex
100
AcDb2dVertex
 10
87.81307235217868
 20
-29.8381442525231
 30
0.0
  0
VERTEX
  5
57
330
52
100
AcDbEntity
  8
LAYER_1
 62
     7
100
AcDbVertex
100
AcDb2dVertex
 10
87.81307235217868
 20
-29.50827635981043
 30
0.0
  0
SEQEND
  5
58
330
52
100
AcDbEntity
  8
LAYER_1
  0
POLYLINE
  5
59
330
41
100
AcDbEntity
  8
LAYER_1
 62
     7
100
AcDb2dPolyline
 66
     1
 10
0.0
 20
0.0
 30
0.0
  0
VERTEX
  5
5A
330
59
100
AcDbEntity
  8
LAYER_1
 62
     7
100
AcDbVertex
100
AcDb2dVertex
 10
88.67848033807344
 20
-28.29801431584216
 30
0.0
  0
VERTEX
  5
5B
330
59
100
AcDbEntity
  8
LAYER_1
 62
     7
100
AcDbVertex
100
AcDb2dVertex
 10
88.91550290745863
 20
-28.29801431584216
 30
0.0
  0
VERTEX
  5
5C
330
59
100
AcDbEntity
  8
LAYER_1
 62
     7
100
AcDbVertex
100
AcDb2dVertex
 10
88.43732365410595
 20
-29.86777207369625
 30
0.0
  0
VERTEX
  5
5D
330
59
100
AcDbEntity
  8
LAYER_1
 62
     7
100
AcDbVertex
100
AcDb2dVertex
 10
88.20047333949502
 20
-29.86777207369625
 30
0.0
  0
VERTEX
  5
5E
330
59
100
AcDbEntity
  8
LAYER_1
 62
     7
100
AcDbVertex
100
AcDb2dVertex
 10
88.67848033807344
 20
-28.29801431584216
 30
0.0
  0
SEQEND
  5
5F
330
59
100
AcDbEntity
  8
LAYER_1
  0
POLYLINE
  5
60
330
41
100
AcDbEntity
  8
LAYER_1
 62
     7
100
AcDb2dPolyline
 66
     1
 10
0.0
 20
0.0
 30
0.0
  0
VERTEX
  5
61
330
60
100
AcDbEntity
  8
LAYER_1
 62
     7
100
AcDbVertex
100
AcDb2dVertex
 10
89.38127981706441
 20
-28.29801431584216
 30
0.0
  0
VERTEX
  5
62
330
60
100
AcDbEntity
  8
LAYER_1
 62
     7
100
AcDbVertex
100
AcDb2dVertex
 10
89.61813013167533
 20
-28.29801431584216
 30
0.0
  0
VERTEX
  5
63
330
60
100
AcDbEntity
  8
LAYER_1
 62
     7
100
AcDbVertex
100
AcDb2dVertex
 10
89.14012313309692
 20
-29.86777207369625
 30
0.0
  0
VERTEX
  5
64
330
60
100
AcDbEntity
  8
LAYER_1
 62
     7
100
AcDbVertex
100
AcDb2dVertex
 10
88.90310056371173
 20
-29.86777207369625
 30
0.0
  0
VERTEX
  5
65
330
60
100
AcDbEntity
  8
LAYER_1
 62
     7
100
AcDbVertex
100
AcDb2dVertex
 10
89.38127981706441
 20
-28.29801431584216
 30
0.0
  0
SEQEND
  5
66
330
60
100
AcDbEntity
  8
LAYER_1
  0
SPLINE
  5
67
330
41
100
AcDbEntity
  8
LAYER_1
 62
     7
100
AcDbSpline
210
0.0
220
0.0
230
1.0
 70
    11
 71
     3
 72
    56
 73
    52
 74
     0
 42
0.0000000001
 43
0.0000000001
 40
0.0
 40
0.0
 40
0.0
 40
0.0
 40
1.0
 40
1.0
 40
1.0
 40
2.0
 40
2.0
 40
2.0
 40
3.0
 40
3.0
 40
3.0
 40
4.0
 40
4.0
 40
4.0
 40
5.0
 40
5.0
 40
5.0
 40
6.0
 40
6.0
 40
6.0
 40
7.0
 40
7.0
 40
7.0
 40
8.0
 40
8.0
 40
8.0
 40
9.0
 40
9.0
 40
9.0
 40
10.0
 40
10.0
 40
10.0
 40
11.0
 40
11.0
 40
11.0
 40
12.0
 40
12.0
 40
12.0
 40
13.0
 40
13.0
 40
13.0
 40
14.0
 40
14.0
 40
14.0
 40
15.0
 40
15.0
 40
15.0
 40
16.0
 40
16.0
 40
16.0
 40
17.0
 40
17.0
 40
17.0
 40
17.0
 10
89.70753035951756
 20
-29.04921738640089
 30
0.0
 10
89.70753035951756
 20
-29.04921738640089
 30
0.0
 10
89.70753035951756
 20
-29.02148436774463
 30
0.0
 10
89.70753035951756
 20
-29.02148436774463
 30
0.0
 10
89.70753035951756
 20
-28.75914034654285
 30
0.0
 10
89.88736434384761
 20
-28.67025688302341
 30
0.0
 10
90.10733369058082
 20
-28.67025688302341
 30
0.0
 10
90.45408255117121
 20
-28.67025688302341
 30
0.0
 10
90.51988387493948
 20
-28.81426187430685
 30
0.0
 10
90.51988387493948
 20
-29.01941731045348
 30
0.0
 10
90.51988387493948
 20
-29.01941731045348
 30
0.0
 10
90.51988387493948
 20
-29.61800265101564
 30
0.0
 10
90.51988387493948
 20
-29.61800265101564
 30
0.0
 10
90.51988387493948
 20
-29.72617864925249
 30
0.0
 10
90.52815210410408
 20
-29.77062038101221
 30
0.0
 10
90.55571286798607
 20
-29.8381442525231
 30
0.0
 10
90.55571286798607
 20
-29.8381442525231
 30
0.0
 10
90.27648787890658
 20
-29.8381442525231
 30
0.0
 10
90.27648787890658
 20
-29.8381442525231
 30
0.0
 10
90.25736759896344
 20
-29.8023152594765
 30
0.0
 10
90.24909936979884
 20
-29.75994058500793
 30
0.0
 10
90.24048663108572
 20
-29.71963296783051
 30
0.0
 10
90.24048663108572
 20
-29.71963296783051
 30
0.0
 10
90.23635251650342
 20
-29.71963296783051
 30
0.0
 10
90.23635251650342
 20
-29.71963296783051
 30
0.0
 10
90.16865639021826
 20
-29.8381442525231
 30
0.0
 10
90.08821341063768
 20
-29.86777207369625
 30
0.0
 10
89.94644773141964
 20
-29.86777207369625
 30
0.0
 10
89.74335935256417
 20
-29.86777207369625
 30
0.0
 10
89.67135685692244
 20
-29.69431151601392
 30
0.0
 10
89.67135685692244
 20
-29.54221055034014
 30
0.0
 10
89.67135685692244
 20
-29.32620306341498
 30
0.0
 10
89.75817326315074
 20
-29.24162596925209
 30
0.0
 10
89.95919458471506
 20
-29.18667669626236
 30
0.0
 10
89.95919458471506
 20
-29.18667669626236
 30
0.0
 10
90.12421465845853
 20
-29.14223496450264
 30
0.0
 10
90.12421465845853
 20
-29.14223496450264
 30
0.0
 10
90.21085880991257
 20
-29.11880831520294
 30
0.0
 10
90.24048663108572
 20
-29.08504637944749
 30
0.0
 10
90.24048663108572
 20
-29.00890976922347
 30
0.0
 10
90.24048663108572
 20
-28.92226561776943
 30
0.0
 10
90.20465763803912
 20
-28.86938340207085
 30
0.0
 10
90.1050943785154
 20
-28.86938340207085
 30
0.0
 10
90.0141438577048
 20
-28.86938340207085
 30
0.0
 10
89.96970212594508
 20
-28.92639973235173
 30
0.0
 10
89.96970212594508
 20
-29.01735025316233
 30
0.0
 10
89.96970212594508
 20
-29.01735025316233
 30
0.0
 10
89.96970212594508
 20
-29.04921738640089
 30
0.0
 10
89.96970212594508
 20
-29.04921738640089
 30
0.0
 10
89.96970212594508
 20
-29.04921738640089
 30
0.0
 10
89.70753035951756
 20
-29.04921738640089
 30
0.0
 10
89.70753035951756
 20
-29.04921738640089
 30
0.0
  0
SPLINE
  5
68
330
41
100
AcDbEntity
  8
LAYER_1
 62
     7
100
AcDbSpline
210
0.0
220
0.0
230
1.0
 70
    11
 71
     3
 72
    20
 73
    16
 74
     0
 42
0.0000000001
 43
0.0000000001
 40
0.0
 40
0.0
 40
0.0
 40
0.0
 40
1.0
 40
1.0
 40
1.0
 40
2.0
 40
2.0
 40
2.0
 40
3.0
 40
3.0
 40
3.0
 40
4.0
 40
4.0
 40
4.0
 40
5.0
 40
5.0
 40
5.0
 40
5.0
 10
90.24048663108572
 20
-29.26901447835983
 30
0.0
 10
90.20035126868255
 20
-29.30070935682413
 30
0.0
 10
90.15177542234053
 20
-29.31793483425038
 30
0.0
 10
90.11577417451967
 20
-29.32620306341498
 30
0.0
 10
89.99726288982708
 20
-29.35169677000583
 30
0.0
 10
89.95075410077621
 20
-29.40888535506097
 30
0.0
 10
89.95075410077621
 20
-29.51034341710158
 30
0.0
 10
89.95075410077621
 20
-29.59698756855562
 30
0.0
 10
89.9824489792405
 20
-29.66899006419734
 30
0.0
 10
90.06082490152994
 20
-29.66899006419734
 30
0.0
 10
90.13885631427084
 20
-29.66899006419734
 30
0.0
 10
90.24048663108572
 20
-29.62006970830679
 30
0.0
 10
90.24048663108572
 20
-29.4932901944496
 30
0.0
 10
90.24048663108572
 20
-29.4932901944496
 30
0.0
 10
90.24048663108572
 20
-29.26901447835983
 30
0.0
 10
90.24048663108572
 20
-29.26901447835983
 30
0.0
  0
SPLINE
  5
69
330
41
100
AcDbEntity
  8
LAYER_1
 62
     7
100
AcDbSpline
210
0.0
220
0.0
230
1.0
 70
    11
 71
     3
 72
    35
 73
    31
 74
     0
 42
0.0000000001
 43
0.0000000001
 40
0.0
 40
0.0
 40
0.0
 40
0.0
 40
1.0
 40
1.0
 40
1.0
 40
2.0
 40
2.0
 40
2.0
 40
3.0
 40
3.0
 40
3.0
 40
4.0
 40
4.0
 40
4.0
 40
5.0
 40
5.0
 40
5.0
 40
6.0
 40
6.0
 40
6.0
 40
7.0
 40
7.0
 40
7.0
 40
8.0
 40
8.0
 40
8.0
 40
9.0
 40
9.0
 40
9.0
 40
10.0
 40
10.0
 40
10.0
 40
10.0
 10
91.27539331485477
 20
-29.11036783126407
 30
0.0
 10
91.27539331485477
 20
-29.00064154005887
 30
0.0
 10
91.25437823239474
 20
-28.88195800059201
 30
0.0
 10
91.14430743164101
 20
-28.88195800059201
 30
0.0
 10
91.00047469513183
 20
-28.88195800059201
 30
0.0
 10
90.97722030060639
 20
-29.00890976922347
 30
0.0
 10
90.97722030060639
 20
-29.2714260451995
 30
0.0
 10
90.97722030060639
 20
-29.55254583679589
 30
0.0
 10
91.00460880971413
 20
-29.66899006419734
 30
0.0
 10
91.133799890411
 20
-29.66899006419734
 30
0.0
 10
91.23319089516046
 20
-29.66899006419734
 30
0.0
 10
91.27539331485477
 20
-29.58871933939102
 30
0.0
 10
91.27539331485477
 20
-29.402339673639
 30
0.0
 10
91.27539331485477
 20
-29.402339673639
 30
0.0
 10
91.55479055870853
 20
-29.402339673639
 30
0.0
 10
91.55479055870853
 20
-29.402339673639
 30
0.0
 10
91.55479055870853
 20
-29.70068494266163
 30
0.0
 10
91.43197290465937
 20
-29.86777207369625
 30
0.0
 10
91.12105303711557
 20
-29.86777207369625
 30
0.0
 10
90.82908119474065
 20
-29.86777207369625
 30
0.0
 10
90.68524845823147
 20
-29.72617864925249
 30
0.0
 10
90.68524845823147
 20
-29.26901447835983
 30
0.0
 10
90.68524845823147
 20
-28.80151502101143
 30
0.0
 10
90.87576223856578
 20
-28.67025688302341
 30
0.0
 10
91.14654674370642
 20
-28.67025688302341
 30
0.0
 10
91.41733124884706
 20
-28.67025688302341
 30
0.0
 10
91.55479055870853
 20
-28.83958332612344
 30
0.0
 10
91.55479055870853
 20
-29.11036783126407
 30
0.0
 10
91.55479055870853
 20
-29.11036783126407
 30
0.0
 10
91.27539331485477
 20
-29.11036783126407
 30
0.0
 10
91.27539331485477
 20
-29.11036783126407
 30
0.0
  0
SPLINE
  5
6A
330
41
100
AcDbEntity
  8
LAYER_1
 62
     7
100
AcDbSpline
210
0.0
220
0.0
230
1.0
 70
    11
 71
     3
 72
    38
 73
    34
 74
     0
 42
0.0000000001
 43
0.0000000001
 40
0.0
 40
0.0
 40
0.0
 40
0.0
 40
1.0
 40
1.0
 40
1.0
 40
2.0
 40
2.0
 40
2.0
 40
3.0
 40
3.0
 40
3.0
 40
4.0
 40
4.0
 40
4.0
 40
5.0
 40
5.0
 40
5.0
 40
6.0
 40
6.0
 40
6.0
 40
7.0
 40
7.0
 40
7.0
 40
8.0
 40
8.0
 40
8.0
 40
9.0
 40
9.0
 40
9.0
 40
10.0
 40
10.0
 40
10.0
 40
11.0
 40
11.0
 40
11.0
 40
11.0
 10
91.70758054347935
 20
-28.70005695897082
 30
0.0
 10
91.70758054347935
 20
-28.70005695897082
 30
0.0
 10
91.98680553255886
 20
-28.70005695897082
 30
0.0
 10
91.98680553255886
 20
-28.70005695897082
 30
0.0
 10
91.98680553255886
 20
-28.70005695897082
 30
0.0
 10
91.98680553255886
 20
-28.8521579246446
 30
0.0
 10
91.98680553255886
 20
-28.8521579246446
 30
0.0
 10
91.98680553255886
 20
-28.8521579246446
 30
0.0
 10
91.99111190191542
 20
-28.8521579246446
 30
0.0
 10
91.99111190191542
 20
-28.8521579246446
 30
0.0
 10
92.05036754426172
 20
-28.7424316334394
 30
0.0
 10
92.13287758113346
 20
-28.67025688302341
 30
0.0
 10
92.2534559231172
 20
-28.67025688302341
 30
0.0
 10
92.27033689099493
 20
-28.67025688302341
 30
0.0
 10
92.2892849161638
 20
-28.67232394031456
 30
0.0
 10
92.30616588404152
 20
-28.67473550715424
 30
0.0
 10
92.30616588404152
 20
-28.67473550715424
 30
0.0
 10
92.30616588404152
 20
-28.95378824145947
 30
0.0
 10
92.30616588404152
 20
-28.95378824145947
 30
0.0
 10
92.27464326035148
 20
-28.95172118416832
 30
0.0
 10
92.24708249646949
 20
-28.94965412687717
 30
0.0
 10
92.21521536323093
 20
-28.94965412687717
 30
0.0
 10
92.11375730119032
 20
-28.94965412687717
 30
0.0
 10
91.99955238585429
 20
-29.00270859735002
 30
0.0
 10
91.99955238585429
 20
-29.1548095630238
 30
0.0
 10
91.99955238585429
 20
-29.1548095630238
 30
0.0
 10
91.99955238585429
 20
-29.8381442525231
 30
0.0
 10
91.99955238585429
 20
-29.8381442525231
 30
0.0
 10
91.99955238585429
 20
-29.8381442525231
 30
0.0
 10
91.70758054347935
 20
-29.8381442525231
 30
0.0
 10
91.70758054347935
 20
-29.8381442525231
 30
0.0
 10
91.70758054347935
 20
-29.8381442525231
 30
0.0
 10
91.70758054347935
 20
-28.70005695897082
 30
0.0
 10
91.70758054347935
 20
-28.70005695897082
 30
0.0
  0
SPLINE
  5
6B
330
41
100
AcDbEntity
  8
LAYER_1
 62
     7
100
AcDbSpline
210
0.0
220
0.0
230
1.0
 70
    11
 71
     3
 72
    17
 73
    13
 74
     0
 42
0.0000000001
 43
0.0000000001
 40
0.0
 40
0.0
 40
0.0
 40
0.0
 40
1.0
 40
1.0
 40
1.0
 40
2.0
 40
2.0
 40
2.0
 40
3.0
 40
3.0
 40
3.0
 40
4.0
 40
4.0
 40
4.0
 40
4.0
 10
92.822930206829
 20
-28.67025688302341
 30
0.0
 10
93.17191837948481
 20
-28.66405571114996
 30
0.0
 10
93.27148163900853
 20
-28.871450459362
 30
0.0
 10
93.27148163900853
 20
-29.26901447835983
 30
0.0
 10
93.27148163900853
 20
-29.65831026819306
 30
0.0
 10
93.15503741160708
 20
-29.86777207369625
 30
0.0
 10
92.822930206829
 20
-29.86777207369625
 30
0.0
 10
92.47376977939892
 20
-29.87414550034396
 30
0.0
 10
92.37437877464947
 20
-29.66692300690619
 30
0.0
 10
92.37437877464947
 20
-29.26901447835983
 30
0.0
 10
92.37437877464947
 20
-28.87989094330086
 30
0.0
 10
92.49082300205092
 20
-28.67025688302341
 30
0.0
 10
92.822930206829
 20
-28.67025688302341
 30
0.0
  0
SPLINE
  5
6C
330
41
100
AcDbEntity
  8
LAYER_1
 62
     7
100
AcDbSpline
210
0.0
220
0.0
230
1.0
 70
    11
 71
     3
 72
    17
 73
    13
 74
     0
 42
0.0000000001
 43
0.0000000001
 40
0.0
 40
0.0
 40
0.0
 40
0.0
 40
1.0
 40
1.0
 40
1.0
 40
2.0
 40
2.0
 40
2.0
 40
3.0
 40
3.0
 40
3.0
 40
4.0
 40
4.0
 40
4.0
 40
4.0
 10
92.822930206829
 20
-29.66899006419734
 30
0.0
 10
92.94144149152159
 20
-29.66899006419734
 30
0.0
 10
92.9795097966336
 20
-29.55478514886131
 30
0.0
 10
92.9795097966336
 20
-29.26901447835983
 30
0.0
 10
92.9795097966336
 20
-28.98341606263262
 30
0.0
 10
92.94144149152159
 20
-28.86938340207085
 30
0.0
 10
92.822930206829
 20
-28.86938340207085
 30
0.0
 10
92.67892521554555
 20
-28.86938340207085
 30
0.0
 10
92.66635061702439
 20
-29.03647053310547
 30
0.0
 10
92.66635061702439
 20
-29.26901447835983
 30
0.0
 10
92.66635061702439
 20
-29.50190293316272
 30
0.0
 10
92.67892521554555
 20
-29.66899006419734
 30
0.0
 10
92.822930206829
 20
-29.66899006419734
 30
0.0
  0
SPLINE
  5
6D
330
41
100
AcDbEntity
  8
LAYER_1
 62
     7
100
AcDbSpline
210
0.0
220
0.0
230
1.0
 70
    11
 71
     3
 72
    38
 73
    34
 74
     0
 42
0.0000000001
 43
0.0000000001
 40
0.0
 40
0.0
 40
0.0
 40
0.0
 40
1.0
 40
1.0
 40
1.0
 40
2.0
 40
2.0
 40
2.0
 40
3.0
 40
3.0
 40
3.0
 40
4.0
 40
4.0
 40
4.0
 40
5.0
 40
5.0
 40
5.0
 40
6.0
 40
6.0
 40
6.0
 40
7.0
 40
7.0
 40
7.0
 40
8.0
 40
8.0
 40
8.0
 40
9.0
 40
9.0
 40
9.0
 40
10.0
 40
10.0
 40
10.0
 40
11.0
 40
11.0
 40
11.0
 40
11.0
 10
93.42840573836165
 20
-28.32781439178958
 30
0.0
 10
93.42840573836165
 20
-28.32781439178958
 30
0.0
 10
93.72037758073658
 20
-28.32781439178958
 30
0.0
 10
93.72037758073658
 20
-28.32781439178958
 30
0.0
 10
93.72037758073658
 20
-28.32781439178958
 30
0.0
 10
93.72037758073658
 20
-28.80564913559373
 30
0.0
 10
93.72037758073658
 20
-28.80564913559373
 30
0.0
 10
93.72037758073658
 20
-28.80564913559373
 30
0.0
 10
93.72468395009314
 20
-28.80564913559373
 30
0.0
 10
93.72468395009314
 20
-28.80564913559373
 30
0.0
 10
93.78600664973058
 20
-28.71469861478313
 30
0.0
 10
93.86007620266346
 20
-28.67025688302341
 30
0.0
 10
93.96997474864293
 20
-28.67025688302341
 30
0.0
 10
94.20906437531927
 20
-28.67025688302341
 30
0.0
 10
94.319135176073
 20
-28.84595675277115
 30
0.0
 10
94.319135176073
 20
-29.26901447835983
 30
0.0
 10
94.319135176073
 20
-29.69224445872277
 30
0.0
 10
94.20906437531927
 20
-29.86777207369625
 30
0.0
 10
93.96997474864293
 20
-29.86777207369625
 30
0.0
 10
93.85370277601575
 20
-29.86777207369625
 30
0.0
 10
93.77756616579173
 20
-29.82556965400194
 30
0.0
 10
93.71193709679771
 20
-29.71756591053936
 30
0.0
 10
93.71193709679771
 20
-29.71756591053936
 30
0.0
 10
93.70763072744116
 20
-29.71756591053936
 30
0.0
 10
93.70763072744116
 20
-29.71756591053936
 30
0.0
 10
93.70763072744116
 20
-29.71756591053936
 30
0.0
 10
93.70763072744116
 20
-29.8381442525231
 30
0.0
 10
93.70763072744116
 20
-29.8381442525231
 30
0.0
 10
93.70763072744116
 20
-29.8381442525231
 30
0.0
 10
93.42840573836165
 20
-29.8381442525231
 30
0.0
 10
93.42840573836165
 20
-29.8381442525231
 30
0.0
 10
93.42840573836165
 20
-29.8381442525231
 30
0.0
 10
93.42840573836165
 20
-28.32781439178958
 30
0.0
 10
93.42840573836165
 20
-28.32781439178958
 30
0.0
  0
SPLINE
  5
6E
330
41
100
AcDbEntity
  8
LAYER_1
 62
     7
100
AcDbSpline
210
0.0
220
0.0
230
1.0
 70
    11
 71
     3
 72
    17
 73
    13
 74
     0
 42
0.0000000001
 43
0.0000000001
 40
0.0
 40
0.0
 40
0.0
 40
0.0
 40
1.0
 40
1.0
 40
1.0
 40
2.0
 40
2.0
 40
2.0
 40
3.0
 40
3.0
 40
3.0
 40
4.0
 40
4.0
 40
4.0
 40
4.0
 10
93.87471785847578
 20
-29.64366861238075
 30
0.0
 10
94.00184188188149
 20
-29.64366861238075
 30
0.0
 10
94.02699107892381
 20
-29.51654458897503
 30
0.0
 10
94.02699107892381
 20
-29.26901447835983
 30
0.0
 10
94.02699107892381
 20
-29.02148436774463
 30
0.0
 10
94.00184188188149
 20
-28.89453259911317
 30
0.0
 10
93.87471785847578
 20
-28.89453259911317
 30
0.0
 10
93.74587128732743
 20
-28.89453259911317
 30
0.0
 10
93.72037758073658
 20
-29.02148436774463
 30
0.0
 10
93.72037758073658
 20
-29.26901447835983
 30
0.0
 10
93.72037758073658
 20
-29.51654458897503
 30
0.0
 10
93.74587128732743
 20
-29.64366861238075
 30
0.0
 10
93.87471785847578
 20
-29.64366861238075
 30
0.0
  0
SPLINE
  5
6F
330
41
100
AcDbEntity
  8
LAYER_1
 62
     7
100
AcDbSpline
210
0.0
220
0.0
230
1.0
 70
    11
 71
     3
 72
    17
 73
    13
 74
     0
 42
0.0000000001
 43
0.0000000001
 40
0.0
 40
0.0
 40
0.0
 40
0.0
 40
1.0
 40
1.0
 40
1.0
 40
2.0
 40
2.0
 40
2.0
 40
3.0
 40
3.0
 40
3.0
 40
4.0
 40
4.0
 40
4.0
 40
4.0
 10
94.89722219849791
 20
-28.67025688302341
 30
0.0
 10
95.24621037115372
 20
-28.66405571114996
 30
0.0
 10
95.34577363067746
 20
-28.871450459362
 30
0.0
 10
95.34577363067746
 20
-29.26901447835983
 30
0.0
 10
95.34577363067746
 20
-29.65831026819306
 30
0.0
 10
95.22932940327601
 20
-29.86777207369625
 30
0.0
 10
94.89722219849791
 20
-29.86777207369625
 30
0.0
 10
94.54806177106785
 20
-29.87414550034396
 30
0.0
 10
94.44867076631839
 20
-29.66692300690619
 30
0.0
 10
94.44867076631839
 20
-29.26901447835983
 30
0.0
 10
94.44867076631839
 20
-28.87989094330086
 30
0.0
 10
94.56511499371983
 20
-28.67025688302341
 30
0.0
 10
94.89722219849791
 20
-28.67025688302341
 30
0.0
  0
SPLINE
  5
70
330
41
100
AcDbEntity
  8
LAYER_1
 62
     7
100
AcDbSpline
210
0.0
220
0.0
230
1.0
 70
    11
 71
     3
 72
    17
 73
    13
 74
     0
 42
0.0000000001
 43
0.0000000001
 40
0.0
 40
0.0
 40
0.0
 40
0.0
 40
1.0
 40
1.0
 40
1.0
 40
2.0
 40
2.0
 40
2.0
 40
3.0
 40
3.0
 40
3.0
 40
4.0
 40
4.0
 40
4.0
 40
4.0
 10
94.89722219849791
 20
-29.66899006419734
 30
0.0
 10
95.01573348319052
 20
-29.66899006419734
 30
0.0
 10
95.05380178830252
 20
-29.55478514886131
 30
0.0
 10
95.05380178830252
 20
-29.26901447835983
 30
0.0
 10
95.05380178830252
 20
-28.98341606263262
 30
0.0
 10
95.01573348319052
 20
-28.86938340207085
 30
0.0
 10
94.89722219849791
 20
-28.86938340207085
 30
0.0
 10
94.75321720721448
 20
-28.86938340207085
 30
0.0
 10
94.74064260869332
 20
-29.03647053310547
 30
0.0
 10
94.74064260869332
 20
-29.26901447835983
 30
0.0
 10
94.74064260869332
 20
-29.50190293316272
 30
0.0
 10
94.75321720721448
 20
-29.66899006419734
 30
0.0
 10
94.89722219849791
 20
-29.66899006419734
 30
0.0
  0
SPLINE
  5
71
330
41
100
AcDbEntity
  8
LAYER_1
 62
     7
100
AcDbSpline
210
0.0
220
0.0
230
1.0
 70
    11
 71
     3
 72
    53
 73
    49
 74
     0
 42
0.0000000001
 43
0.0000000001
 40
0.0
 40
0.0
 40
0.0
 40
0.0
 40
1.0
 40
1.0
 40
1.0
 40
2.0
 40
2.0
 40
2.0
 40
3.0
 40
3.0
 40
3.0
 40
4.0
 40
4.0
 40
4.0
 40
5.0
 40
5.0
 40
5.0
 40
6.0
 40
6.0
 40
6.0
 40
7.0
 40
7.0
 40
7.0
 40
8.0
 40
8.0
 40
8.0
 40
9.0
 40
9.0
 40
9.0
 40
10.0
 40
10.0
 40
10.0
 40
11.0
 40
11.0
 40
11.0
 40
12.0
 40
12.0
 40
12.0
 40
13.0
 40
13.0
 40
13.0
 40
14.0
 40
14.0
 40
14.0
 40
15.0
 40
15.0
 40
15.0
 40
16.0
 40
16.0
 40
16.0
 40
16.0
 10
95.56608748695918
 20
-28.37432318084045
 30
0.0
 10
95.56608748695918
 20
-28.37432318084045
 30
0.0
 10
95.8580593293341
 20
-28.37432318084045
 30
0.0
 10
95.8580593293341
 20
-28.37432318084045
 30
0.0
 10
95.8580593293341
 20
-28.37432318084045
 30
0.0
 10
95.8580593293341
 20
-28.70005695897082
 30
0.0
 10
95.8580593293341
 20
-28.70005695897082
 30
0.0
 10
95.8580593293341
 20
-28.70005695897082
 30
0.0
 10
96.02738577243413
 20
-28.70005695897082
 30
0.0
 10
96.02738577243413
 20
-28.70005695897082
 30
0.0
 10
96.02738577243413
 20
-28.70005695897082
 30
0.0
 10
96.02738577243413
 20
-28.899011223244
 30
0.0
 10
96.02738577243413
 20
-28.899011223244
 30
0.0
 10
96.02738577243413
 20
-28.899011223244
 30
0.0
 10
95.8580593293341
 20
-28.899011223244
 30
0.0
 10
95.8580593293341
 20
-28.899011223244
 30
0.0
 10
95.8580593293341
 20
-28.899011223244
 30
0.0
 10
95.8580593293341
 20
-29.51447753168388
 30
0.0
 10
95.8580593293341
 20
-29.51447753168388
 30
0.0
 10
95.8580593293341
 20
-29.60542805249448
 30
0.0
 10
95.87717960927723
 20
-29.63936224302419
 30
0.0
 10
95.96175670344012
 20
-29.63936224302419
 30
0.0
 10
95.98518335273982
 20
-29.63936224302419
 30
0.0
 10
96.00826549249099
 20
-29.63729518573304
 30
0.0
 10
96.02738577243413
 20
-29.63522812844189
 30
0.0
 10
96.02738577243413
 20
-29.63522812844189
 30
0.0
 10
96.02738577243413
 20
-29.8381442525231
 30
0.0
 10
96.02738577243413
 20
-29.8381442525231
 30
0.0
 10
95.96175670344012
 20
-29.84434542439655
 30
0.0
 10
95.90456811838497
 20
-29.85089110581853
 30
0.0
 10
95.83687199209982
 20
-29.85089110581853
 30
0.0
 10
95.60846216142775
 20
-29.85089110581853
 30
0.0
 10
95.56608748695918
 20
-29.77906086495107
 30
0.0
 10
95.56608748695918
 20
-29.55047877950474
 30
0.0
 10
95.56608748695918
 20
-29.55047877950474
 30
0.0
 10
95.56608748695918
 20
-28.899011223244
 30
0.0
 10
95.56608748695918
 20
-28.899011223244
 30
0.0
 10
95.56608748695918
 20
-28.899011223244
 30
0.0
 10
95.4181206358677
 20
-28.899011223244
 30
0.0
 10
95.4181206358677
 20
-28.899011223244
 30
0.0
 10
95.4181206358677
 20
-28.899011223244
 30
0.0
 10
95.4181206358677
 20
-28.70005695897082
 30
0.0
 10
95.4181206358677
 20
-28.70005695897082
 30
0.0
 10
95.4181206358677
 20
-28.70005695897082
 30
0.0
 10
95.56608748695918
 20
-28.70005695897082
 30
0.0
 10
95.56608748695918
 20
-28.70005695897082
 30
0.0
 10
95.56608748695918
 20
-28.70005695897082
 30
0.0
 10
95.56608748695918
 20
-28.37432318084045
 30
0.0
 10
95.56608748695918
 20
-28.37432318084045
 30
0.0
  0
POLYLINE
  5
72
330
41
100
AcDbEntity
  8
LAYER_1
 62
     7
100
AcDb2dPolyline
 66
     1
 10
0.0
 20
0.0
 30
0.0
  0
VERTEX
  5
73
330
72
100
AcDbEntity
  8
LAYER_1
 62
     7
100
AcDbVertex
100
AcDb2dVertex
 10
96.13986814002753
 20
-28.31058891436333
 30
0.0
  0
VERTEX
  5
74
330
72
100
AcDbEntity
  8
LAYER_1
 62
     7
100
AcDbVertex
100
AcDb2dVertex
 10
96.43183998240247
 20
-28.31058891436333
 30
0.0
  0
VERTEX
  5
75
330
72
100
AcDbEntity
  8
LAYER_1
 62
     7
100
AcDbVertex
100
AcDb2dVertex
 10
96.43183998240247
 20
-28.5605305918182
 30
0.0
  0
VERTEX
  5
76
330
72
100
AcDbEntity
  8
LAYER_1
 62
     7
100
AcDbVertex
100
AcDb2dVertex
 10
96.13986814002753
 20
-28.5605305918182
 30
0.0
  0
VERTEX
  5
77
330
72
100
AcDbEntity
  8
LAYER_1
 62
     7
100
AcDbVertex
100
AcDb2dVertex
 10
96.13986814002753
 20
-28.31058891436333
 30
0.0
  0
SEQEND
  5
78
330
72
100
AcDbEntity
  8
LAYER_1
  0
POLYLINE
  5
79
330
41
100
AcDbEntity
  8
LAYER_1
 62
     7
100
AcDb2dPolyline
 66
     1
 10
0.0
 20
0.0
 30
0.0
  0
VERTEX
  5
7A
330
79
100
AcDbEntity
  8
LAYER_1
 62
     7
100
AcDbVertex
100
AcDb2dVertex
 10
96.13986814002753
 20
-28.70005695897082
 30
0.0
  0
VERTEX
  5
7B
330
79
100
AcDbEntity
  8
LAYER_1
 62
     7
100
AcDbVertex
100
AcDb2dVertex
 10
96.43183998240247
 20
-28.70005695897082
 30
0.0
  0
VERTEX
  5
7C
330
79
100
AcDbEntity
  8
LAYER_1
 62
     7
100
AcDbVertex
100
AcDb2dVertex
 10
96.43183998240247
 20
-29.8381442525231
 30
0.0
  0
VERTEX
  5
7D
330
79
100
AcDbEntity
  8
LAYER_1
 62
     7
100
AcDbVertex
100
AcDb2dVertex
 10
96.13986814002753
 20
-29.8381442525231
 30
0.0
  0
VERTEX
  5
7E
330
79
100
AcDbEntity
  8
LAYER_1
 62
     7
100
AcDbVertex
100
AcDb2dVertex
 10
96.13986814002753
 20
-28.70005695897082
 30
0.0
  0
SEQEND
  5
7F
330
79
100
AcDbEntity
  8
LAYER_1
  0
SPLINE
  5
80
330
41
100
AcDbEntity
  8
LAYER_1
 62
     7
100
AcDbSpline
210
0.0
220
0.0
230
1.0
 70
    11
 71
     3
 72
    35
 73
    31
 74
     0
 42
0.0000000001
 43
0.0000000001
 40
0.0
 40
0.0
 40
0.0
 40
0.0
 40
1.0
 40
1.0
 40
1.0
 40
2.0
 40
2.0
 40
2.0
 40
3.0
 40
3.0
 40
3.0
 40
4.0
 40
4.0
 40
4.0
 40
5.0
 40
5.0
 40
5.0
 40
6.0
 40
6.0
 40
6.0
 40
7.0
 40
7.0
 40
7.0
 40
8.0
 40
8.0
 40
8.0
 40
9.0
 40
9.0
 40
9.0
 40
10.0
 40
10.0
 40
10.0
 40
10.0
 10
97.18511011025234
 20
-29.11036783126407
 30
0.0
 10
97.18511011025234
 20
-29.00064154005887
 30
0.0
 10
97.16409502779231
 20
-28.88195800059201
 30
0.0
 10
97.05402422703858
 20
-28.88195800059201
 30
0.0
 10
96.9101914905294
 20
-28.88195800059201
 30
0.0
 10
96.88693709600396
 20
-29.00890976922347
 30
0.0
 10
96.88693709600396
 20
-29.2714260451995
 30
0.0
 10
96.88693709600396
 20
-29.55254583679589
 30
0.0
 10
96.9143256051117
 20
-29.66899006419734
 30
0.0
 10
97.04351668580857
 20
-29.66899006419734
 30
0.0
 10
97.14290769055803
 20
-29.66899006419734
 30
0.0
 10
97.18511011025234
 20
-29.58871933939102
 30
0.0
 10
97.18511011025234
 20
-29.402339673639
 30
0.0
 10
97.18511011025234
 20
-29.402339673639
 30
0.0
 10
97.4645073541061
 20
-29.402339673639
 30
0.0
 10
97.4645073541061
 20
-29.402339673639
 30
0.0
 10
97.4645073541061
 20
-29.70068494266163
 30
0.0
 10
97.34168970005695
 20
-29.86777207369625
 30
0.0
 10
97.03076983251314
 20
-29.86777207369625
 30
0.0
 10
96.73879799013822
 20
-29.86777207369625
 30
0.0
 10
96.59496525362904
 20
-29.72617864925249
 30
0.0
 10
96.59496525362904
 20
-29.26901447835983
 30
0.0
 10
96.59496525362904
 20
-28.80151502101143
 30
0.0
 10
96.78547903396336
 20
-28.67025688302341
 30
0.0
 10
97.056263539104
 20
-28.67025688302341
 30
0.0
 10
97.32704804424463
 20
-28.67025688302341
 30
0.0
 10
97.4645073541061
 20
-28.83958332612344
 30
0.0
 10
97.4645073541061
 20
-29.11036783126407
 30
0.0
 10
97.4645073541061
 20
-29.11036783126407
 30
0.0
 10
97.18511011025234
 20
-29.11036783126407
 30
0.0
 10
97.18511011025234
 20
-29.11036783126407
 30
0.0
  0
POLYLINE
  5
81
330
41
100
AcDbEntity
  8
LAYER_1
 62
     7
100
AcDb2dPolyline
 66
     1
 10
0.0
 20
0.0
 30
0.0
  0
VERTEX
  5
82
330
81
100
AcDbEntity
  8
LAYER_1
 62
     7
100
AcDbVertex
100
AcDb2dVertex
 10
97.91357555060841
 20
-29.50827635981043
 30
0.0
  0
VERTEX
  5
83
330
81
100
AcDbEntity
  8
LAYER_1
 62
     7
100
AcDbVertex
100
AcDb2dVertex
 10
97.91357555060841
 20
-29.8381442525231
 30
0.0
  0
VERTEX
  5
84
330
81
100
AcDbEntity
  8
LAYER_1
 62
     7
100
AcDbVertex
100
AcDb2dVertex
 10
97.63417830675465
 20
-29.8381442525231
 30
0.0
  0
VERTEX
  5
85
330
81
100
AcDbEntity
  8
LAYER_1
 62
     7
100
AcDbVertex
100
AcDb2dVertex
 10
97.63417830675465
 20
-29.50827635981043
 30
0.0
  0
VERTEX
  5
86
330
81
100
AcDbEntity
  8
LAYER_1
 62
     7
100
AcDbVertex
100
AcDb2dVertex
 10
97.91357555060841
 20
-29.50827635981043
 30
0.0
  0
SEQEND
  5
87
330
81
100
AcDbEntity
  8
LAYER_1
  0
SPLINE
  5
88
330
41
100
AcDbEntity
  8
LAYER_1
 62
     7
100
AcDbSpline
210
0.0
220
0.0
230
1.0
 70
    11
 71
     3
 72
    35
 73
    31
 74
     0
 42
0.0000000001
 43
0.0000000001
 40
0.0
 40
0.0
 40
0.0
 40
0.0
 40
1.0
 40
1.0
 40
1.0
 40
2.0
 40
2.0
 40
2.0
 40
3.0
 40
3.0
 40
3.0
 40
4.0
 40
4.0
 40
4.0
 40
5.0
 40
5.0
 40
5.0
 40
6.0
 40
6.0
 40
6.0
 40
7.0
 40
7.0
 40
7.0
 40
8.0
 40
8.0
 40
8.0
 40
9.0
 40
9.0
 40
9.0
 40
10.0
 40
10.0
 40
10.0
 40
10.0
 10
98.673219105106
 20
-29.11036783126407
 30
0.0
 10
98.673219105106
 20
-29.00064154005887
 30
0.0
 10
98.65203176787172
 20
-28.88195800059201
 30
0.0
 10
98.54213322189224
 20
-28.88195800059201
 30
0.0
 10
98.39830048538307
 20
-28.88195800059201
 30
0.0
 10
98.37504609085764
 20
-29.00890976922347
 30
0.0
 10
98.37504609085764
 20
-29.2714260451995
 30
0.0
 10
98.37504609085764
 20
-29.55254583679589
 30
0.0
 10
98.40243459996537
 20
-29.66899006419734
 30
0.0
 10
98.53145342588797
 20
-29.66899006419734
 30
0.0
 10
98.6310166854117
 20
-29.66899006419734
 30
0.0
 10
98.673219105106
 20
-29.58871933939102
 30
0.0
 10
98.673219105106
 20
-29.402339673639
 30
0.0
 10
98.673219105106
 20
-29.402339673639
 30
0.0
 10
98.95244409418551
 20
-29.402339673639
 30
0.0
 10
98.95244409418551
 20
-29.402339673639
 30
0.0
 10
98.95244409418551
 20
-29.70068494266163
 30
0.0
 10
98.82979869491061
 20
-29.86777207369625
 30
0.0
 10
98.51870657259255
 20
-29.86777207369625
 30
0.0
 10
98.22690698499188
 20
-29.86777207369625
 30
0.0
 10
98.0830742484827
 20
-29.72617864925249
 30
0.0
 10
98.0830742484827
 20
-29.26901447835983
 30
0.0
 10
98.0830742484827
 20
-28.80151502101143
 30
0.0
 10
98.27341577404276
 20
-28.67025688302341
 30
0.0
 10
98.5442002791834
 20
-28.67025688302341
 30
0.0
 10
98.81498478432404
 20
-28.67025688302341
 30
0.0
 10
98.95244409418551
 20
-28.83958332612344
 30
0.0
 10
98.95244409418551
 20
-29.11036783126407
 30
0.0
 10
98.95244409418551
 20
-29.11036783126407
 30
0.0
 10
98.673219105106
 20
-29.11036783126407
 30
0.0
 10
98.673219105106
 20
-29.11036783126407
 30
0.0
  0
SPLINE
  5
89
330
41
100
AcDbEntity
  8
LAYER_1
 62
     7
100
AcDbSpline
210
0.0
220
0.0
230
1.0
 70
    11
 71
     3
 72
    17
 73
    13
 74
     0
 42
0.0000000001
 43
0.0000000001
 40
0.0
 40
0.0
 40
0.0
 40
0.0
 40
1.0
 40
1.0
 40
1.0
 40
2.0
 40
2.0
 40
2.0
 40
3.0
 40
3.0
 40
3.0
 40
4.0
 40
4.0
 40
4.0
 40
4.0
 10
99.51571720602385
 20
-28.67025688302341
 30
0.0
 10
99.86470537867966
 20
-28.66405571114996
 30
0.0
 10
99.96409638342912
 20
-28.871450459362
 30
0.0
 10
99.96409638342912
 20
-29.26901447835983
 30
0.0
 10
99.96409638342912
 20
-29.65831026819306
 30
0.0
 10
99.84782441080193
 20
-29.86777207369625
 30
0.0
 10
99.51571720602385
 20
-29.86777207369625
 30
0.0
 10
99.16655677859379
 20
-29.87414550034396
 30
0.0
 10
99.06716577384432
 20
-29.66692300690619
 30
0.0
 10
99.06716577384432
 20
-29.26901447835983
 30
0.0
 10
99.06716577384432
 20
-28.87989094330086
 30
0.0
 10
99.18343774647151
 20
-28.67025688302341
 30
0.0
 10
99.51571720602385
 20
-28.67025688302341
 30
0.0
  0
SPLINE
  5
8A
330
41
100
AcDbEntity
  8
LAYER_1
 62
     7
100
AcDbSpline
210
0.0
220
0.0
230
1.0
 70
    11
 71
     3
 72
    17
 73
    13
 74
     0
 42
0.0000000001
 43
0.0000000001
 40
0.0
 40
0.0
 40
0.0
 40
0.0
 40
1.0
 40
1.0
 40
1.0
 40
2.0
 40
2.0
 40
2.0
 40
3.0
 40
3.0
 40
3.0
 40
4.0
 40
4.0
 40
4.0
 40
4.0
 10
99.51571720602385
 20
-29.66899006419734
 30
0.0
 10
99.63405623594218
 20
-29.66899006419734
 30
0.0
 10
99.6721245410542
 20
-29.55478514886131
 30
0.0
 10
99.6721245410542
 20
-29.26901447835983
 30
0.0
 10
99.6721245410542
 20
-28.98341606263262
 30
0.0
 10
99.63405623594218
 20
-28.86938340207085
 30
0.0
 10
99.51571720602385
 20
-28.86938340207085
 30
0.0
 10
99.37188446951467
 20
-28.86938340207085
 30
0.0
 10
99.35896536144499
 20
-29.03647053310547
 30
0.0
 10
99.35896536144499
 20
-29.26901447835983
 30
0.0
 10
99.35896536144499
 20
-29.50190293316272
 30
0.0
 10
99.37188446951467
 20
-29.66899006419734
 30
0.0
 10
99.51571720602385
 20
-29.66899006419734
 30
0.0
  0
SPLINE
  5
8B
330
41
100
AcDbEntity
  8
LAYER_1
 62
     7
100
AcDbSpline
210
0.0
220
0.0
230
1.0
 70
    11
 71
     3
 72
    68
 73
    64
 74
     0
 42
0.0000000001
 43
0.0000000001
 40
0.0
 40
0.0
 40
0.0
 40
0.0
 40
1.0
 40
1.0
 40
1.0
 40
2.0
 40
2.0
 40
2.0
 40
3.0
 40
3.0
 40
3.0
 40
4.0
 40
4.0
 40
4.0
 40
5.0
 40
5.0
 40
5.0
 40
6.0
 40
6.0
 40
6.0
 40
7.0
 40
7.0
 40
7.0
 40
8.0
 40
8.0
 40
8.0
 40
9.0
 40
9.0
 40
9.0
 40
10.0
 40
10.0
 40
10.0
 40
11.0
 40
11.0
 40
11.0
 40
12.0
 40
12.0
 40
12.0
 40
13.0
 40
13.0
 40
13.0
 40
14.0
 40
14.0
 40
14.0
 40
15.0
 40
15.0
 40
15.0
 40
16.0
 40
16.0
 40
16.0
 40
17.0
 40
17.0
 40
17.0
 40
18.0
 40
18.0
 40
18.0
 40
19.0
 40
19.0
 40
19.0
 40
20.0
 40
20.0
 40
20.0
 40
21.0
 40
21.0
 40
21.0
 40
21.0
 10
100.1213649923308
 20
-28.70005695897082
 30
0.0
 10
100.1213649923308
 20
-28.70005695897082
 30
0.0
 10
100.4005899814103
 20
-28.70005695897082
 30
0.0
 10
100.4005899814103
 20
-28.70005695897082
 30
0.0
 10
100.4005899814103
 20
-28.70005695897082
 30
0.0
 10
100.4005899814103
 20
-28.816328931598
 30
0.0
 10
100.4005899814103
 20
-28.816328931598
 30
0.0
 10
100.4005899814103
 20
-28.816328931598
 30
0.0
 10
100.4048963507668
 20
-28.816328931598
 30
0.0
 10
100.4048963507668
 20
-28.816328931598
 30
0.0
 10
100.4789659036997
 20
-28.71263155749198
 30
0.0
 10
100.5676771124449
 20
-28.67025688302341
 30
0.0
 10
100.6923895690109
 20
-28.67025688302341
 30
0.0
 10
100.8277818215813
 20
-28.67025688302341
 30
0.0
 10
100.9230387117484
 20
-28.73399114950053
 30
0.0
 10
100.9547335902127
 20
-28.8521579246446
 30
0.0
 10
100.9547335902127
 20
-28.8521579246446
 30
0.0
 10
100.9590399595693
 20
-28.8521579246446
 30
0.0
 10
100.9590399595693
 20
-28.8521579246446
 30
0.0
 10
101.003481691329
 20
-28.73192409220938
 30
0.0
 10
101.1092461227262
 20
-28.67025688302341
 30
0.0
 10
101.2468776873619
 20
-28.67025688302341
 30
0.0
 10
101.4413533275042
 20
-28.67025688302341
 30
0.0
 10
101.5302367910237
 20
-28.79100747978142
 30
0.0
 10
101.5302367910237
 20
-29.01097682651462
 30
0.0
 10
101.5302367910237
 20
-29.01097682651462
 30
0.0
 10
101.5302367910237
 20
-29.8381442525231
 30
0.0
 10
101.5302367910237
 20
-29.8381442525231
 30
0.0
 10
101.5302367910237
 20
-29.8381442525231
 30
0.0
 10
101.2382649486488
 20
-29.8381442525231
 30
0.0
 10
101.2382649486488
 20
-29.8381442525231
 30
0.0
 10
101.2382649486488
 20
-29.8381442525231
 30
0.0
 10
101.2382649486488
 20
-29.04267170497892
 30
0.0
 10
101.2382649486488
 20
-29.04267170497892
 30
0.0
 10
101.2382649486488
 20
-28.94758706958602
 30
0.0
 10
101.2065700701845
 20
-28.89453259911317
 30
0.0
 10
101.1240600333127
 20
-28.89453259911317
 30
0.0
 10
101.0308702004367
 20
-28.89453259911317
 30
0.0
 10
100.9717868128647
 20
-28.95619980829915
 30
0.0
 10
100.9717868128647
 20
-29.08918049402979
 30
0.0
 10
100.9717868128647
 20
-29.08918049402979
 30
0.0
 10
100.9717868128647
 20
-29.8381442525231
 30
0.0
 10
100.9717868128647
 20
-29.8381442525231
 30
0.0
 10
100.9717868128647
 20
-29.8381442525231
 30
0.0
 10
100.6798149704898
 20
-29.8381442525231
 30
0.0
 10
100.6798149704898
 20
-29.8381442525231
 30
0.0
 10
100.6798149704898
 20
-29.8381442525231
 30
0.0
 10
100.6798149704898
 20
-29.04267170497892
 30
0.0
 10
100.6798149704898
 20
-29.04267170497892
 30
0.0
 10
100.6798149704898
 20
-28.94758706958602
 30
0.0
 10
100.6481200920255
 20
-28.89453259911317
 30
0.0
 10
100.5656100551537
 20
-28.89453259911317
 30
0.0
 10
100.472592477052
 20
-28.89453259911317
 30
0.0
 10
100.4131645799314
 20
-28.95619980829915
 30
0.0
 10
100.4131645799314
 20
-29.08918049402979
 30
0.0
 10
100.4131645799314
 20
-29.08918049402979
 30
0.0
 10
100.4131645799314
 20
-29.8381442525231
 30
0.0
 10
100.4131645799314
 20
-29.8381442525231
 30
0.0
 10
100.4131645799314
 20
-29.8381442525231
 30
0.0
 10
100.1213649923308
 20
-29.8381442525231
 30
0.0
 10
100.1213649923308
 20
-29.8381442525231
 30
0.0
 10
100.1213649923308
 20
-29.8381442525231
 30
0.0
 10
100.1213649923308
 20
-28.70005695897082
 30
0.0
 10
100.1213649923308
 20
-28.70005695897082
 30
0.0
  0
ENDBLK
  5
44
330
41
100
AcDbEntity
  8
0
100
AcDbBlockEnd
  0
BLOCK
  5
91
330
8F
100
AcDbEntity
  8
0
100
AcDbBlockBegin
  2
BLOCK_3
 70
     0
 71
     0
 10
0.0
 20
0.0
 30
0.0
  3
BLOCK_3
  1

  0
POLYLINE
  5
93
330
8F
100
AcDbEntity
  8
LAYER_1
 62
     7
100
AcDb2dPolyline
 66
     1
 10
0.0
 20
0.0
 30
0.0
  0
VERTEX
  5
94
330
93
100
AcDbEntity
  8
LAYER_1
 62
     7
100
AcDbVertex
100
AcDb2dVertex
 10
34.38239745234191
 20
-28.50523680927994
 30
0.0
  0
VERTEX
  5
95
330
93
100
AcDbEntity
  8
LAYER_1
 62
     7
100
AcDbVertex
100
AcDb2dVertex
 10
34.75894638887971
 20
-28.50523680927994
 30
0.0
  0
VERTEX
  5
96
330
93
100
AcDbEntity
  8
LAYER_1
 62
     7
100
AcDbVertex
100
AcDb2dVertex
 10
35.15857746516869
 20
-30.01573892478773
 30
0.0
  0
VERTEX
  5
97
330
93
100
AcDbEntity
  8
LAYER_1
 62
     7
100
AcDbVertex
100
AcDb2dVertex
 10
34.84128417097718
 20
-30.01573892478773
 30
0.0
  0
VERTEX
  5
98
330
93
100
AcDbEntity
  8
LAYER_1
 62
     7
100
AcDbVertex
100
AcDb2dVertex
 10
34.77152098740087
 20
-29.69620631853081
 30
0.0
  0
VERTEX
  5
99
330
93
100
AcDbEntity
  8
LAYER_1
 62
     7
100
AcDbVertex
100
AcDb2dVertex
 10
34.36965059904648
 20
-29.69620631853081
 30
0.0
  0
VERTEX
  5
9A
330
93
100
AcDbEntity
  8
LAYER_1
 62
     7
100
AcDbVertex
100
AcDb2dVertex
 10
34.2997151606959
 20
-30.01573892478773
 30
0.0
  0
VERTEX
  5
9B
330
93
100
AcDbEntity
  8
LAYER_1
 62
     7
100
AcDbVertex
100
AcDb2dVertex
 10
33.9824218665044
 20
-30.01573892478773
 30
0.0
  0
VERTEX
  5
9C
330
93
100
AcDbEntity
  8
LAYER_1
 62
     7
100
AcDbVertex
100
AcDb2dVertex
 10
34.38239745234191
 20
-28.50523680927994
 30
0.0
  0
SEQEND
  5
9D
330
93
100
AcDbEntity
  8
LAYER_1
  0
POLYLINE
  5
9E
330
8F
100
AcDbEntity
  8
LAYER_1
 62
     7
100
AcDb2dPolyline
 66
     1
 10
0.0
 20
0.0
 30
0.0
  0
VERTEX
  5
9F
330
9E
100
AcDbEntity
  8
LAYER_1
 62
     7
100
AcDbVertex
100
AcDb2dVertex
 10
34.42253281474506
 20
-29.44660915062446
 30
0.0
  0
VERTEX
  5
A0
330
9E
100
AcDbEntity
  8
LAYER_1
 62
     7
100
AcDbVertex
100
AcDb2dVertex
 10
34.71863877170229
 20
-29.44660915062446
 30
0.0
  0
VERTEX
  5
A1
330
9E
100
AcDbEntity
  8
LAYER_1
 62
     7
100
AcDbVertex
100
AcDb2dVertex
 10
34.57273897790196
 20
-28.76758083048172
 30
0.0
  0
VERTEX
  5
A2
330
9E
100
AcDbEntity
  8
LAYER_1
 62
     7
100
AcDbVertex
100
AcDb2dVertex
 10
34.56843260854539
 20
-28.76758083048172
 30
0.0
  0
VERTEX
  5
A3
330
9E
100
AcDbEntity
  8
LAYER_1
 62
     7
100
AcDbVertex
100
AcDb2dVertex
 10
34.42253281474506
 20
-29.44660915062446
 30
0.0
  0
SEQEND
  5
A4
330
9E
100
AcDbEntity
  8
LAYER_1
  0
SPLINE
  5
A5
330
8F
100
AcDbEntity
  8
LAYER_1
 62
     7
100
AcDbSpline
210
0.0
220
0.0
230
1.0
 70
    11
 71
     3
 72
    38
 73
    34
 74
     0
 42
0.0000000001
 43
0.0000000001
 40
0.0
 40
0.0
 40
0.0
 40
0.0
 40
1.0
 40
1.0
 40
1.0
 40
2.0
 40
2.0
 40
2.0
 40
3.0
 40
3.0
 40
3.0
 40
4.0
 40
4.0
 40
4.0
 40
5.0
 40
5.0
 40
5.0
 40
6.0
 40
6.0
 40
6.0
 40
7.0
 40
7.0
 40
7.0
 40
8.0
 40
8.0
 40
8.0
 40
9.0
 40
9.0
 40
9.0
 40
10.0
 40
10.0
 40
10.0
 40
11.0
 40
11.0
 40
11.0
 40
11.0
 10
35.25676268649831
 20
-28.87747937646119
 30
0.0
 10
35.25676268649831
 20
-28.87747937646119
 30
0.0
 10
35.53598767557781
 20
-28.87747937646119
 30
0.0
 10
35.53598767557781
 20
-28.87747937646119
 30
0.0
 10
35.53598767557781
 20
-28.87747937646119
 30
0.0
 10
35.53598767557781
 20
-29.02975259690923
 30
0.0
 10
35.53598767557781
 20
-29.02975259690923
 30
0.0
 10
35.53598767557781
 20
-29.02975259690923
 30
0.0
 10
35.54029404493437
 20
-29.02975259690923
 30
0.0
 10
35.54029404493437
 20
-29.02975259690923
 30
0.0
 10
35.59937743250641
 20
-28.91985405092976
 30
0.0
 10
35.68188746937814
 20
-28.84785155528804
 30
0.0
 10
35.80246581136188
 20
-28.84785155528804
 30
0.0
 10
35.81934677923961
 20
-28.84785155528804
 30
0.0
 10
35.83846705918275
 20
-28.84991861257919
 30
0.0
 10
35.85534802706047
 20
-28.8521579246446
 30
0.0
 10
35.85534802706047
 20
-28.8521579246446
 30
0.0
 10
35.85534802706047
 20
-29.1313829137241
 30
0.0
 10
35.85534802706047
 20
-29.1313829137241
 30
0.0
 10
35.82365314859617
 20
-29.12931585643295
 30
0.0
 10
35.79626463948843
 20
-29.1272487991418
 30
0.0
 10
35.76439750624987
 20
-29.1272487991418
 30
0.0
 10
35.66293944420926
 20
-29.1272487991418
 30
0.0
 10
35.54856227409897
 20
-29.18013101484038
 30
0.0
 10
35.54856227409897
 20
-29.33240423528843
 30
0.0
 10
35.54856227409897
 20
-29.33240423528843
 30
0.0
 10
35.54856227409897
 20
-30.01573892478773
 30
0.0
 10
35.54856227409897
 20
-30.01573892478773
 30
0.0
 10
35.54856227409897
 20
-30.01573892478773
 30
0.0
 10
35.25676268649831
 20
-30.01573892478773
 30
0.0
 10
35.25676268649831
 20
-30.01573892478773
 30
0.0
 10
35.25676268649831
 20
-30.01573892478773
 30
0.0
 10
35.25676268649831
 20
-28.87747937646119
 30
0.0
 10
35.25676268649831
 20
-28.87747937646119
 30
0.0
  0
SPLINE
  5
A6
330
8F
100
AcDbEntity
  8
LAYER_1
 62
     7
100
AcDbSpline
210
0.0
220
0.0
230
1.0
 70
    11
 71
     3
 72
    38
 73
    34
 74
     0
 42
0.0000000001
 43
0.0000000001
 40
0.0
 40
0.0
 40
0.0
 40
0.0
 40
1.0
 40
1.0
 40
1.0
 40
2.0
 40
2.0
 40
2.0
 40
3.0
 40
3.0
 40
3.0
 40
4.0
 40
4.0
 40
4.0
 40
5.0
 40
5.0
 40
5.0
 40
6.0
 40
6.0
 40
6.0
 40
7.0
 40
7.0
 40
7.0
 40
8.0
 40
8.0
 40
8.0
 40
9.0
 40
9.0
 40
9.0
 40
10.0
 40
10.0
 40
10.0
 40
11.0
 40
11.0
 40
11.0
 40
11.0
 10
36.54540065275602
 20
-29.89516058280399
 30
0.0
 10
36.54540065275602
 20
-29.89516058280399
 30
0.0
 10
36.54109428339945
 20
-29.89516058280399
 30
0.0
 10
36.54109428339945
 20
-29.89516058280399
 30
0.0
 10
36.47546521440544
 20
-30.00299207149231
 30
0.0
 10
36.39932860418142
 20
-30.04536674596088
 30
0.0
 10
36.28305663155424
 20
-30.04536674596088
 30
0.0
 10
36.0439670048779
 20
-30.04536674596088
 30
0.0
 10
35.93389620412417
 20
-29.86966687621314
 30
0.0
 10
35.93389620412417
 20
-29.44660915062446
 30
0.0
 10
35.93389620412417
 20
-29.02355142503578
 30
0.0
 10
36.0439670048779
 20
-28.84785155528804
 30
0.0
 10
36.28305663155424
 20
-28.84785155528804
 30
0.0
 10
36.39295517753371
 20
-28.84785155528804
 30
0.0
 10
36.46702473046658
 20
-28.89229328704776
 30
0.0
 10
36.52834743010403
 20
-28.98324380785836
 30
0.0
 10
36.52834743010403
 20
-28.98324380785836
 30
0.0
 10
36.53265379946059
 20
-28.98324380785836
 30
0.0
 10
36.53265379946059
 20
-28.98324380785836
 30
0.0
 10
36.53265379946059
 20
-28.98324380785836
 30
0.0
 10
36.53265379946059
 20
-28.50523680927994
 30
0.0
 10
36.53265379946059
 20
-28.50523680927994
 30
0.0
 10
36.53265379946059
 20
-28.50523680927994
 30
0.0
 10
36.82462564183551
 20
-28.50523680927994
 30
0.0
 10
36.82462564183551
 20
-28.50523680927994
 30
0.0
 10
36.82462564183551
 20
-28.50523680927994
 30
0.0
 10
36.82462564183551
 20
-30.01573892478773
 30
0.0
 10
36.82462564183551
 20
-30.01573892478773
 30
0.0
 10
36.82462564183551
 20
-30.01573892478773
 30
0.0
 10
36.54540065275602
 20
-30.01573892478773
 30
0.0
 10
36.54540065275602
 20
-30.01573892478773
 30
0.0
 10
36.54540065275602
 20
-30.01573892478773
 30
0.0
 10
36.54540065275602
 20
-29.89516058280399
 30
0.0
 10
36.54540065275602
 20
-29.89516058280399
 30
0.0
  0
SPLINE
  5
A7
330
8F
100
AcDbEntity
  8
LAYER_1
 62
     7
100
AcDbSpline
210
0.0
220
0.0
230
1.0
 70
    11
 71
     3
 72
    17
 73
    13
 74
     0
 42
0.0000000001
 43
0.0000000001
 40
0.0
 40
0.0
 40
0.0
 40
0.0
 40
1.0
 40
1.0
 40
1.0
 40
2.0
 40
2.0
 40
2.0
 40
3.0
 40
3.0
 40
3.0
 40
4.0
 40
4.0
 40
4.0
 40
4.0
 10
36.37814126694713
 20
-29.82109102987112
 30
0.0
 10
36.507332347644
 20
-29.82109102987112
 30
0.0
 10
36.53265379946059
 20
-29.69413926123966
 30
0.0
 10
36.53265379946059
 20
-29.44660915062446
 30
0.0
 10
36.53265379946059
 20
-29.19907904000926
 30
0.0
 10
36.507332347644
 20
-29.0721272713778
 30
0.0
 10
36.37814126694713
 20
-29.0721272713778
 30
0.0
 10
36.25136175308994
 20
-29.0721272713778
 30
0.0
 10
36.22586804649909
 20
-29.19907904000926
 30
0.0
 10
36.22586804649909
 20
-29.44660915062446
 30
0.0
 10
36.22586804649909
 20
-29.69413926123966
 30
0.0
 10
36.25136175308994
 20
-29.82109102987112
 30
0.0
 10
36.37814126694713
 20
-29.82109102987112
 30
0.0
  0
SPLINE
  5
A8
330
8F
100
AcDbEntity
  8
LAYER_1
 62
     7
100
AcDbSpline
210
0.0
220
0.0
230
1.0
 70
    11
 71
     3
 72
    44
 73
    40
 74
     0
 42
0.0000000001
 43
0.0000000001
 40
0.0
 40
0.0
 40
0.0
 40
0.0
 40
1.0
 40
1.0
 40
1.0
 40
2.0
 40
2.0
 40
2.0
 40
3.0
 40
3.0
 40
3.0
 40
4.0
 40
4.0
 40
4.0
 40
5.0
 40
5.0
 40
5.0
 40
6.0
 40
6.0
 40
6.0
 40
7.0
 40
7.0
 40
7.0
 40
8.0
 40
8.0
 40
8.0
 40
9.0
 40
9.0
 40
9.0
 40
10.0
 40
10.0
 40
10.0
 40
11.0
 40
11.0
 40
11.0
 40
12.0
 40
12.0
 40
12.0
 40
13.0
 40
13.0
 40
13.0
 40
13.0
 10
37.60373398582476
 20
-29.88241372950856
 30
0.0
 10
37.60373398582476
 20
-29.88241372950856
 30
0.0
 10
37.5994276164682
 20
-29.88241372950856
 30
0.0
 10
37.5994276164682
 20
-29.88241372950856
 30
0.0
 10
37.53810491683075
 20
-29.99455158755345
 30
0.0
 10
37.43440754272473
 20
-30.04536674596088
 30
0.0
 10
37.30969508615869
 20
-30.04536674596088
 30
0.0
 10
37.12555473247208
 20
-30.04536674596088
 30
0.0
 10
37.01979030107491
 20
-29.94804279850257
 30
0.0
 10
37.01979030107491
 20
-29.72170002512166
 30
0.0
 10
37.01979030107491
 20
-29.72170002512166
 30
0.0
 10
37.01979030107491
 20
-28.87747937646119
 30
0.0
 10
37.01979030107491
 20
-28.87747937646119
 30
0.0
 10
37.01979030107491
 20
-28.87747937646119
 30
0.0
 10
37.31176214344984
 20
-28.87747937646119
 30
0.0
 10
37.31176214344984
 20
-28.87747937646119
 30
0.0
 10
37.31176214344984
 20
-28.87747937646119
 30
0.0
 10
37.31176214344984
 20
-29.6622721280011
 30
0.0
 10
37.31176214344984
 20
-29.6622721280011
 30
0.0
 10
37.31176214344984
 20
-29.77871635540254
 30
0.0
 10
37.34983044856185
 20
-29.82109102987112
 30
0.0
 10
37.43647460001588
 20
-29.82109102987112
 30
0.0
 10
37.5401719741219
 20
-29.82109102987112
 30
0.0
 10
37.59098713252934
 20
-29.75752901816826
 30
0.0
 10
37.59098713252934
 20
-29.63281656160222
 30
0.0
 10
37.59098713252934
 20
-29.63281656160222
 30
0.0
 10
37.59098713252934
 20
-28.87747937646119
 30
0.0
 10
37.59098713252934
 20
-28.87747937646119
 30
0.0
 10
37.59098713252934
 20
-28.87747937646119
 30
0.0
 10
37.88295897490426
 20
-28.87747937646119
 30
0.0
 10
37.88295897490426
 20
-28.87747937646119
 30
0.0
 10
37.88295897490426
 20
-28.87747937646119
 30
0.0
 10
37.88295897490426
 20
-30.01573892478773
 30
0.0
 10
37.88295897490426
 20
-30.01573892478773
 30
0.0
 10
37.88295897490426
 20
-30.01573892478773
 30
0.0
 10
37.60373398582476
 20
-30.01573892478773
 30
0.0
 10
37.60373398582476
 20
-30.01573892478773
 30
0.0
 10
37.60373398582476
 20
-30.01573892478773
 30
0.0
 10
37.60373398582476
 20
-29.88241372950856
 30
0.0
 10
37.60373398582476
 20
-29.88241372950856
 30
0.0
  0
POLYLINE
  5
A9
330
8F
100
AcDbEntity
  8
LAYER_1
 62
     7
100
AcDb2dPolyline
 66
     1
 10
0.0
 20
0.0
 30
0.0
  0
VERTEX
  5
AA
330
A9
100
AcDbEntity
  8
LAYER_1
 62
     7
100
AcDbVertex
100
AcDb2dVertex
 10
38.08863117537368
 20
-28.48818358662795
 30
0.0
  0
VERTEX
  5
AB
330
A9
100
AcDbEntity
  8
LAYER_1
 62
     7
100
AcDbVertex
100
AcDb2dVertex
 10
38.3806030177486
 20
-28.48818358662795
 30
0.0
  0
VERTEX
  5
AC
330
A9
100
AcDbEntity
  8
LAYER_1
 62
     7
100
AcDbVertex
100
AcDb2dVertex
 10
38.3806030177486
 20
-28.73795300930857
 30
0.0
  0
VERTEX
  5
AD
330
A9
100
AcDbEntity
  8
LAYER_1
 62
     7
100
AcDbVertex
100
AcDb2dVertex
 10
38.08863117537368
 20
-28.73795300930857
 30
0.0
  0
VERTEX
  5
AE
330
A9
100
AcDbEntity
  8
LAYER_1
 62
     7
100
AcDbVertex
100
AcDb2dVertex
 10
38.08863117537368
 20
-28.48818358662795
 30
0.0
  0
SEQEND
  5
AF
330
A9
100
AcDbEntity
  8
LAYER_1
  0
POLYLINE
  5
B0
330
8F
100
AcDbEntity
  8
LAYER_1
 62
     7
100
AcDb2dPolyline
 66
     1
 10
0.0
 20
0.0
 30
0.0
  0
VERTEX
  5
B1
330
B0
100
AcDbEntity
  8
LAYER_1
 62
     7
100
AcDbVertex
100
AcDb2dVertex
 10
38.08863117537368
 20
-28.87747937646119
 30
0.0
  0
VERTEX
  5
B2
330
B0
100
AcDbEntity
  8
LAYER_1
 62
     7
100
AcDbVertex
100
AcDb2dVertex
 10
38.3806030177486
 20
-28.87747937646119
 30
0.0
  0
VERTEX
  5
B3
330
B0
100
AcDbEntity
  8
LAYER_1
 62
     7
100
AcDbVertex
100
AcDb2dVertex
 10
38.3806030177486
 20
-30.01573892478773
 30
0.0
  0
VERTEX
  5
B4
330
B0
100
AcDbEntity
  8
LAYER_1
 62
     7
100
AcDbVertex
100
AcDb2dVertex
 10
38.08863117537368
 20
-30.01573892478773
 30
0.0
  0
VERTEX
  5
B5
330
B0
100
AcDbEntity
  8
LAYER_1
 62
     7
100
AcDbVertex
100
AcDb2dVertex
 10
38.08863117537368
 20
-28.87747937646119
 30
0.0
  0
SEQEND
  5
B6
330
B0
100
AcDbEntity
  8
LAYER_1
  0
SPLINE
  5
B7
330
8F
100
AcDbEntity
  8
LAYER_1
 62
     7
100
AcDbSpline
210
0.0
220
0.0
230
1.0
 70
    11
 71
     3
 72
    44
 73
    40
 74
     0
 42
0.0000000001
 43
0.0000000001
 40
0.0
 40
0.0
 40
0.0
 40
0.0
 40
1.0
 40
1.0
 40
1.0
 40
2.0
 40
2.0
 40
2.0
 40
3.0
 40
3.0
 40
3.0
 40
4.0
 40
4.0
 40
4.0
 40
5.0
 40
5.0
 40
5.0
 40
6.0
 40
6.0
 40
6.0
 40
7.0
 40
7.0
 40
7.0
 40
8.0
 40
8.0
 40
8.0
 40
9.0
 40
9.0
 40
9.0
 40
10.0
 40
10.0
 40
10.0
 40
11.0
 40
11.0
 40
11.0
 40
12.0
 40
12.0
 40
12.0
 40
13.0
 40
13.0
 40
13.0
 40
13.0
 10
38.58610296344376
 20
-28.87747937646119
 30
0.0
 10
38.58610296344376
 20
-28.87747937646119
 30
0.0
 10
38.86532795252325
 20
-28.87747937646119
 30
0.0
 10
38.86532795252325
 20
-28.87747937646119
 30
0.0
 10
38.86532795252325
 20
-28.87747937646119
 30
0.0
 10
38.86532795252325
 20
-29.01080457174035
 30
0.0
 10
38.86532795252325
 20
-29.01080457174035
 30
0.0
 10
38.86532795252325
 20
-29.01080457174035
 30
0.0
 10
38.86946206710555
 20
-29.01080457174035
 30
0.0
 10
38.86946206710555
 20
-29.01080457174035
 30
0.0
 10
38.93095702151727
 20
-28.89866671369547
 30
0.0
 10
39.03465439562328
 20
-28.84785155528804
 30
0.0
 10
39.15936685218933
 20
-28.84785155528804
 30
0.0
 10
39.34333495110167
 20
-28.84785155528804
 30
0.0
 10
39.44909938249884
 20
-28.94517550274634
 30
0.0
 10
39.44909938249884
 20
-29.17151827612726
 30
0.0
 10
39.44909938249884
 20
-29.17151827612726
 30
0.0
 10
39.44909938249884
 20
-30.01573892478773
 30
0.0
 10
39.44909938249884
 20
-30.01573892478773
 30
0.0
 10
39.44909938249884
 20
-30.01573892478773
 30
0.0
 10
39.15729979489818
 20
-30.01573892478773
 30
0.0
 10
39.15729979489818
 20
-30.01573892478773
 30
0.0
 10
39.15729979489818
 20
-30.01573892478773
 30
0.0
 10
39.15729979489818
 20
-29.23094617324782
 30
0.0
 10
39.15729979489818
 20
-29.23094617324782
 30
0.0
 10
39.15729979489818
 20
-29.11450194584637
 30
0.0
 10
39.11923148978617
 20
-29.0721272713778
 30
0.0
 10
39.03241508355787
 20
-29.0721272713778
 30
0.0
 10
38.92888996422612
 20
-29.0721272713778
 30
0.0
 10
38.87807480581868
 20
-29.13568928308066
 30
0.0
 10
38.87807480581868
 20
-29.26040173964671
 30
0.0
 10
38.87807480581868
 20
-29.26040173964671
 30
0.0
 10
38.87807480581868
 20
-30.01573892478773
 30
0.0
 10
38.87807480581868
 20
-30.01573892478773
 30
0.0
 10
38.87807480581868
 20
-30.01573892478773
 30
0.0
 10
38.58610296344376
 20
-30.01573892478773
 30
0.0
 10
38.58610296344376
 20
-30.01573892478773
 30
0.0
 10
38.58610296344376
 20
-30.01573892478773
 30
0.0
 10
38.58610296344376
 20
-28.87747937646119
 30
0.0
 10
38.58610296344376
 20
-28.87747937646119
 30
0.0
  0
SPLINE
  5
B8
330
8F
100
AcDbEntity
  8
LAYER_1
 62
     7
100
AcDbSpline
210
0.0
220
0.0
230
1.0
 70
    11
 71
     3
 72
    17
 73
    13
 74
     0
 42
0.0000000001
 43
0.0000000001
 40
0.0
 40
0.0
 40
0.0
 40
0.0
 40
1.0
 40
1.0
 40
1.0
 40
2.0
 40
2.0
 40
2.0
 40
3.0
 40
3.0
 40
3.0
 40
4.0
 40
4.0
 40
4.0
 40
4.0
 10
40.05474716880576
 20
-28.84785155528804
 30
0.0
 10
40.40390759623583
 20
-28.84165038341459
 30
0.0
 10
40.50329860098529
 20
-29.04904513162663
 30
0.0
 10
40.50329860098529
 20
-29.44660915062446
 30
0.0
 10
40.50329860098529
 20
-29.83590494045769
 30
0.0
 10
40.38702662835811
 20
-30.04536674596088
 30
0.0
 10
40.05474716880576
 20
-30.04536674596088
 30
0.0
 10
39.70575899614995
 20
-30.05156791783433
 30
0.0
 10
39.6063679914005
 20
-29.84434542439655
 30
0.0
 10
39.6063679914005
 20
-29.44660915062446
 30
0.0
 10
39.6063679914005
 20
-29.05731336079123
 30
0.0
 10
39.72263996402768
 20
-28.84785155528804
 30
0.0
 10
40.05474716880576
 20
-28.84785155528804
 30
0.0
  0
SPLINE
  5
B9
330
8F
100
AcDbEntity
  8
LAYER_1
 62
     7
100
AcDbSpline
210
0.0
220
0.0
230
1.0
 70
    11
 71
     3
 72
    17
 73
    13
 74
     0
 42
0.0000000001
 43
0.0000000001
 40
0.0
 40
0.0
 40
0.0
 40
0.0
 40
1.0
 40
1.0
 40
1.0
 40
2.0
 40
2.0
 40
2.0
 40
3.0
 40
3.0
 40
3.0
 40
4.0
 40
4.0
 40
4.0
 40
4.0
 10
40.05474716880576
 20
-29.8464124816877
 30
0.0
 10
40.17325845349836
 20
-29.8464124816877
 30
0.0
 10
40.21149901338462
 20
-29.73220756635167
 30
0.0
 10
40.21149901338462
 20
-29.44660915062446
 30
0.0
 10
40.21149901338462
 20
-29.16101073489725
 30
0.0
 10
40.17325845349836
 20
-29.04680581956122
 30
0.0
 10
40.05474716880576
 20
-29.04680581956122
 30
0.0
 10
39.91108668707084
 20
-29.04680581956122
 30
0.0
 10
39.89833983377542
 20
-29.21389295059583
 30
0.0
 10
39.89833983377542
 20
-29.44660915062446
 30
0.0
 10
39.89833983377542
 20
-29.67932535065309
 30
0.0
 10
39.91108668707084
 20
-29.8464124816877
 30
0.0
 10
40.05474716880576
 20
-29.8464124816877
 30
0.0
  0
POLYLINE
  5
BA
330
8F
100
AcDbEntity
  8
LAYER_1
 62
     7
100
AcDb2dPolyline
 66
     1
 10
0.0
 20
0.0
 30
0.0
  0
VERTEX
  5
BB
330
BA
100
AcDbEntity
  8
LAYER_1
 62
     7
100
AcDbVertex
100
AcDb2dVertex
 10
41.18336044977361
 20
-28.50523680927994
 30
0.0
  0
VERTEX
  5
BC
330
BA
100
AcDbEntity
  8
LAYER_1
 62
     7
100
AcDbVertex
100
AcDb2dVertex
 10
41.63604599653544
 20
-28.50523680927994
 30
0.0
  0
VERTEX
  5
BD
330
BA
100
AcDbEntity
  8
LAYER_1
 62
     7
100
AcDbVertex
100
AcDb2dVertex
 10
41.85170897391207
 20
-29.57132160719051
 30
0.0
  0
VERTEX
  5
BE
330
BA
100
AcDbEntity
  8
LAYER_1
 62
     7
100
AcDbVertex
100
AcDb2dVertex
 10
41.85601534326864
 20
-29.57132160719051
 30
0.0
  0
VERTEX
  5
BF
330
BA
100
AcDbEntity
  8
LAYER_1
 62
     7
100
AcDbVertex
100
AcDb2dVertex
 10
42.07391763271069
 20
-28.50523680927994
 30
0.0
  0
VERTEX
  5
C0
330
BA
100
AcDbEntity
  8
LAYER_1
 62
     7
100
AcDbVertex
100
AcDb2dVertex
 10
42.52453612218137
 20
-28.50523680927994
 30
0.0
  0
VERTEX
  5
C1
330
BA
100
AcDbEntity
  8
LAYER_1
 62
     7
100
AcDbVertex
100
AcDb2dVertex
 10
42.52453612218137
 20
-30.01573892478773
 30
0.0
  0
VERTEX
  5
C2
330
BA
100
AcDbEntity
  8
LAYER_1
 62
     7
100
AcDbVertex
100
AcDb2dVertex
 10
42.24531113310187
 20
-30.01573892478773
 30
0.0
  0
VERTEX
  5
C3
330
BA
100
AcDbEntity
  8
LAYER_1
 62
     7
100
AcDbVertex
100
AcDb2dVertex
 10
42.24531113310187
 20
-28.80978325017603
 30
0.0
  0
VERTEX
  5
C4
330
BA
100
AcDbEntity
  8
LAYER_1
 62
     7
100
AcDbVertex
100
AcDb2dVertex
 10
42.24100476374531
 20
-28.80978325017603
 30
0.0
  0
VERTEX
  5
C5
330
BA
100
AcDbEntity
  8
LAYER_1
 62
     7
100
AcDbVertex
100
AcDb2dVertex
 10
41.97245957067008
 20
-30.01573892478773
 30
0.0
  0
VERTEX
  5
C6
330
BA
100
AcDbEntity
  8
LAYER_1
 62
     7
100
AcDbVertex
100
AcDb2dVertex
 10
41.73543700128489
 20
-30.01573892478773
 30
0.0
  0
VERTEX
  5
C7
330
BA
100
AcDbEntity
  8
LAYER_1
 62
     7
100
AcDbVertex
100
AcDb2dVertex
 10
41.4667195534354
 20
-28.80978325017603
 30
0.0
  0
VERTEX
  5
C8
330
BA
100
AcDbEntity
  8
LAYER_1
 62
     7
100
AcDbVertex
100
AcDb2dVertex
 10
41.46241318407884
 20
-28.80978325017603
 30
0.0
  0
VERTEX
  5
C9
330
BA
100
AcDbEntity
  8
LAYER_1
 62
     7
100
AcDbVertex
100
AcDb2dVertex
 10
41.46241318407884
 20
-30.01573892478773
 30
0.0
  0
VERTEX
  5
CA
330
BA
100
AcDbEntity
  8
LAYER_1
 62
     7
100
AcDbVertex
100
AcDb2dVertex
 10
41.18336044977361
 20
-30.01573892478773
 30
0.0
  0
VERTEX
  5
CB
330
BA
100
AcDbEntity
  8
LAYER_1
 62
     7
100
AcDbVertex
100
AcDb2dVertex
 10
41.18336044977361
 20
-28.50523680927994
 30
0.0
  0
SEQEND
  5
CC
330
BA
100
AcDbEntity
  8
LAYER_1
  0
POLYLINE
  5
CD
330
8F
100
AcDbEntity
  8
LAYER_1
 62
     7
100
AcDb2dPolyline
 66
     1
 10
0.0
 20
0.0
 30
0.0
  0
VERTEX
  5
CE
330
CD
100
AcDbEntity
  8
LAYER_1
 62
     7
100
AcDbVertex
100
AcDb2dVertex
 10
43.58734807938094
 20
-28.50523680927994
 30
0.0
  0
VERTEX
  5
CF
330
CD
100
AcDbEntity
  8
LAYER_1
 62
     7
100
AcDbVertex
100
AcDb2dVertex
 10
43.58734807938094
 20
-28.75483397718629
 30
0.0
  0
VERTEX
  5
D0
330
CD
100
AcDbEntity
  8
LAYER_1
 62
     7
100
AcDbVertex
100
AcDb2dVertex
 10
43.04784612639082
 20
-28.75483397718629
 30
0.0
  0
VERTEX
  5
D1
330
CD
100
AcDbEntity
  8
LAYER_1
 62
     7
100
AcDbVertex
100
AcDb2dVertex
 10
43.04784612639082
 20
-29.11019557648982
 30
0.0
  0
VERTEX
  5
D2
330
CD
100
AcDbEntity
  8
LAYER_1
 62
     7
100
AcDbVertex
100
AcDb2dVertex
 10
43.55565320091664
 20
-29.11019557648982
 30
0.0
  0
VERTEX
  5
D3
330
CD
100
AcDbEntity
  8
LAYER_1
 62
     7
100
AcDbVertex
100
AcDb2dVertex
 10
43.55565320091664
 20
-29.35996499917043
 30
0.0
  0
VERTEX
  5
D4
330
CD
100
AcDbEntity
  8
LAYER_1
 62
     7
100
AcDbVertex
100
AcDb2dVertex
 10
43.04784612639082
 20
-29.35996499917043
 30
0.0
  0
VERTEX
  5
D5
330
CD
100
AcDbEntity
  8
LAYER_1
 62
     7
100
AcDbVertex
100
AcDb2dVertex
 10
43.04784612639082
 20
-29.76614175688138
 30
0.0
  0
VERTEX
  5
D6
330
CD
100
AcDbEntity
  8
LAYER_1
 62
     7
100
AcDbVertex
100
AcDb2dVertex
 10
43.60853541661523
 20
-29.76614175688138
 30
0.0
  0
VERTEX
  5
D7
330
CD
100
AcDbEntity
  8
LAYER_1
 62
     7
100
AcDbVertex
100
AcDb2dVertex
 10
43.60853541661523
 20
-30.01573892478773
 30
0.0
  0
VERTEX
  5
D8
330
CD
100
AcDbEntity
  8
LAYER_1
 62
     7
100
AcDbVertex
100
AcDb2dVertex
 10
42.74329968549473
 20
-30.01573892478773
 30
0.0
  0
VERTEX
  5
D9
330
CD
100
AcDbEntity
  8
LAYER_1
 62
     7
100
AcDbVertex
100
AcDb2dVertex
 10
42.74329968549473
 20
-28.50523680927994
 30
0.0
  0
VERTEX
  5
DA
330
CD
100
AcDbEntity
  8
LAYER_1
 62
     7
100
AcDbVertex
100
AcDb2dVertex
 10
43.58734807938094
 20
-28.50523680927994
 30
0.0
  0
SEQEND
  5
DB
330
CD
100
AcDbEntity
  8
LAYER_1
  0
SPLINE
  5
DC
330
8F
100
AcDbEntity
  8
LAYER_1
 62
     7
100
AcDbSpline
210
0.0
220
0.0
230
1.0
 70
    11
 71
     3
 72
    56
 73
    52
 74
     0
 42
0.0000000001
 43
0.0000000001
 40
0.0
 40
0.0
 40
0.0
 40
0.0
 40
1.0
 40
1.0
 40
1.0
 40
2.0
 40
2.0
 40
2.0
 40
3.0
 40
3.0
 40
3.0
 40
4.0
 40
4.0
 40
4.0
 40
5.0
 40
5.0
 40
5.0
 40
6.0
 40
6.0
 40
6.0
 40
7.0
 40
7.0
 40
7.0
 40
8.0
 40
8.0
 40
8.0
 40
9.0
 40
9.0
 40
9.0
 40
10.0
 40
10.0
 40
10.0
 40
11.0
 40
11.0
 40
11.0
 40
12.0
 40
12.0
 40
12.0
 40
13.0
 40
13.0
 40
13.0
 40
14.0
 40
14.0
 40
14.0
 40
15.0
 40
15.0
 40
15.0
 40
16.0
 40
16.0
 40
16.0
 40
17.0
 40
17.0
 40
17.0
 40
17.0
 10
44.43191323758994
 20
-28.95378824145947
 30
0.0
 10
44.43191323758994
 20
-28.84371744070574
 30
0.0
 10
44.38316513647366
 20
-28.69988470419656
 30
0.0
 10
44.25845267990761
 20
-28.69988470419656
 30
0.0
 10
44.11238063133302
 20
-28.69988470419656
 30
0.0
 10
44.05105793169557
 20
-28.84991861257919
 30
0.0
 10
44.05105793169557
 20
-29.22887911595667
 30
0.0
 10
44.05105793169557
 20
-29.59268119919905
 30
0.0
 10
44.08499212222528
 20
-29.82109102987112
 30
0.0
 10
44.26051973719876
 20
-29.82109102987112
 30
0.0
 10
44.33458929013163
 20
-29.82109102987112
 30
0.0
 10
44.44896646024193
 20
-29.74288736235595
 30
0.0
 10
44.44896646024193
 20
-29.57993434590363
 30
0.0
 10
44.44896646024193
 20
-29.57993434590363
 30
0.0
 10
44.44896646024193
 20
-29.42542181339017
 30
0.0
 10
44.44896646024193
 20
-29.42542181339017
 30
0.0
 10
44.44896646024193
 20
-29.42542181339017
 30
0.0
 10
44.24777288390334
 20
-29.42542181339017
 30
0.0
 10
44.24777288390334
 20
-29.42542181339017
 30
0.0
 10
44.24777288390334
 20
-29.42542181339017
 30
0.0
 10
44.24777288390334
 20
-29.20131835207467
 30
0.0
 10
44.24777288390334
 20
-29.20131835207467
 30
0.0
 10
44.24777288390334
 20
-29.20131835207467
 30
0.0
 10
44.74076604784259
 20
-29.20131835207467
 30
0.0
 10
44.74076604784259
 20
-29.20131835207467
 30
0.0
 10
44.74076604784259
 20
-29.20131835207467
 30
0.0
 10
44.74076604784259
 20
-30.01573892478773
 30
0.0
 10
44.74076604784259
 20
-30.01573892478773
 30
0.0
 10
44.74076604784259
 20
-30.01573892478773
 30
0.0
 10
44.51649033175283
 20
-30.01573892478773
 30
0.0
 10
44.51649033175283
 20
-30.01573892478773
 30
0.0
 10
44.51649033175283
 20
-30.01573892478773
 30
0.0
 10
44.51649033175283
 20
-29.87604030286085
 30
0.0
 10
44.51649033175283
 20
-29.87604030286085
 30
0.0
 10
44.51649033175283
 20
-29.87604030286085
 30
0.0
 10
44.51235621717053
 20
-29.87604030286085
 30
0.0
 10
44.51235621717053
 20
-29.87604030286085
 30
0.0
 10
44.43828666423765
 20
-29.99455158755345
 30
0.0
 10
44.33872340471393
 20
-30.04536674596088
 30
0.0
 10
44.19506292297901
 20
-30.04536674596088
 30
0.0
 10
43.82058104373235
 20
-30.04536674596088
 30
0.0
 10
43.74651149079948
 20
-29.76614175688138
 30
0.0
 10
43.74651149079948
 20
-29.24352077176898
 30
0.0
 10
43.74651149079948
 20
-28.73588595201742
 30
0.0
 10
43.86502277549208
 20
-28.47560898810679
 30
0.0
 10
44.25414631055105
 20
-28.47560898810679
 30
0.0
 10
44.5864257701034
 20
-28.47560898810679
 30
0.0
 10
44.72388507996487
 20
-28.64700248849797
 30
0.0
 10
44.72388507996487
 20
-28.95378824145947
 30
0.0
 10
44.72388507996487
 20
-28.95378824145947
 30
0.0
 10
44.43191323758994
 20
-28.95378824145947
 30
0.0
 10
44.43191323758994
 20
-28.95378824145947
 30
0.0
  0
POLYLINE
  5
DD
330
8F
100
AcDbEntity
  8
LAYER_1
 62
     7
100
AcDb2dPolyline
 66
     1
 10
0.0
 20
0.0
 30
0.0
  0
VERTEX
  5
DE
330
DD
100
AcDbEntity
  8
LAYER_1
 62
     7
100
AcDbVertex
100
AcDb2dVertex
 10
45.23238117358774
 20
-28.50523680927994
 30
0.0
  0
VERTEX
  5
DF
330
DD
100
AcDbEntity
  8
LAYER_1
 62
     7
100
AcDbVertex
100
AcDb2dVertex
 10
45.60893011012555
 20
-28.50523680927994
 30
0.0
  0
VERTEX
  5
E0
330
DD
100
AcDbEntity
  8
LAYER_1
 62
     7
100
AcDbVertex
100
AcDb2dVertex
 10
46.00856118641452
 20
-30.01573892478773
 30
0.0
  0
VERTEX
  5
E1
330
DD
100
AcDbEntity
  8
LAYER_1
 62
     7
100
AcDbVertex
100
AcDb2dVertex
 10
45.69126789222302
 20
-30.01573892478773
 30
0.0
  0
VERTEX
  5
E2
330
DD
100
AcDbEntity
  8
LAYER_1
 62
     7
100
AcDbVertex
100
AcDb2dVertex
 10
45.62150470864671
 20
-29.69620631853081
 30
0.0
  0
VERTEX
  5
E3
330
DD
100
AcDbEntity
  8
LAYER_1
 62
     7
100
AcDbVertex
100
AcDb2dVertex
 10
45.21963432029231
 20
-29.69620631853081
 30
0.0
  0
VERTEX
  5
E4
330
DD
100
AcDbEntity
  8
LAYER_1
 62
     7
100
AcDbVertex
100
AcDb2dVertex
 10
45.14969888194175
 20
-30.01573892478773
 30
0.0
  0
VERTEX
  5
E5
330
DD
100
AcDbEntity
  8
LAYER_1
 62
     7
100
AcDbVertex
100
AcDb2dVertex
 10
44.83240558775024
 20
-30.01573892478773
 30
0.0
  0
VERTEX
  5
E6
330
DD
100
AcDbEntity
  8
LAYER_1
 62
     7
100
AcDbVertex
100
AcDb2dVertex
 10
45.23238117358774
 20
-28.50523680927994
 30
0.0
  0
SEQEND
  5
E7
330
DD
100
AcDbEntity
  8
LAYER_1
  0
POLYLINE
  5
E8
330
8F
100
AcDbEntity
  8
LAYER_1
 62
     7
100
AcDb2dPolyline
 66
     1
 10
0.0
 20
0.0
 30
0.0
  0
VERTEX
  5
E9
330
E8
100
AcDbEntity
  8
LAYER_1
 62
     7
100
AcDbVertex
100
AcDb2dVertex
 10
45.2725165359909
 20
-29.44660915062446
 30
0.0
  0
VERTEX
  5
EA
330
E8
100
AcDbEntity
  8
LAYER_1
 62
     7
100
AcDbVertex
100
AcDb2dVertex
 10
45.56862249294812
 20
-29.44660915062446
 30
0.0
  0
VERTEX
  5
EB
330
E8
100
AcDbEntity
  8
LAYER_1
 62
     7
100
AcDbVertex
100
AcDb2dVertex
 10
45.42272269914779
 20
-28.76758083048172
 30
0.0
  0
VERTEX
  5
EC
330
E8
100
AcDbEntity
  8
LAYER_1
 62
     7
100
AcDbVertex
100
AcDb2dVertex
 10
45.41841632979123
 20
-28.76758083048172
 30
0.0
  0
VERTEX
  5
ED
330
E8
100
AcDbEntity
  8
LAYER_1
 62
     7
100
AcDbVertex
100
AcDb2dVertex
 10
45.2725165359909
 20
-29.44660915062446
 30
0.0
  0
SEQEND
  5
EE
330
E8
100
AcDbEntity
  8
LAYER_1
  0
POLYLINE
  5
EF
330
8F
100
AcDbEntity
  8
LAYER_1
 62
     7
100
AcDb2dPolyline
 66
     1
 10
0.0
 20
0.0
 30
0.0
  0
VERTEX
  5
F0
330
EF
100
AcDbEntity
  8
LAYER_1
 62
     7
100
AcDbVertex
100
AcDb2dVertex
 10
46.62936739285655
 20
-28.50523680927994
 30
0.0
  0
VERTEX
  5
F1
330
EF
100
AcDbEntity
  8
LAYER_1
 62
     7
100
AcDbVertex
100
AcDb2dVertex
 10
47.08205293961838
 20
-28.50523680927994
 30
0.0
  0
VERTEX
  5
F2
330
EF
100
AcDbEntity
  8
LAYER_1
 62
     7
100
AcDbVertex
100
AcDb2dVertex
 10
47.29771591699502
 20
-29.57132160719051
 30
0.0
  0
VERTEX
  5
F3
330
EF
100
AcDbEntity
  8
LAYER_1
 62
     7
100
AcDbVertex
100
AcDb2dVertex
 10
47.30202228635158
 20
-29.57132160719051
 30
0.0
  0
VERTEX
  5
F4
330
EF
100
AcDbEntity
  8
LAYER_1
 62
     7
100
AcDbVertex
100
AcDb2dVertex
 10
47.51992457579363
 20
-28.50523680927994
 30
0.0
  0
VERTEX
  5
F5
330
EF
100
AcDbEntity
  8
LAYER_1
 62
     7
100
AcDbVertex
100
AcDb2dVertex
 10
47.97054306526431
 20
-28.50523680927994
 30
0.0
  0
VERTEX
  5
F6
330
EF
100
AcDbEntity
  8
LAYER_1
 62
     7
100
AcDbVertex
100
AcDb2dVertex
 10
47.97054306526431
 20
-30.01573892478773
 30
0.0
  0
VERTEX
  5
F7
330
EF
100
AcDbEntity
  8
LAYER_1
 62
     7
100
AcDbVertex
100
AcDb2dVertex
 10
47.69131807618481
 20
-30.01573892478773
 30
0.0
  0
VERTEX
  5
F8
330
EF
100
AcDbEntity
  8
LAYER_1
 62
     7
100
AcDbVertex
100
AcDb2dVertex
 10
47.69131807618481
 20
-28.80978325017603
 30
0.0
  0
VERTEX
  5
F9
330
EF
100
AcDbEntity
  8
LAYER_1
 62
     7
100
AcDbVertex
100
AcDb2dVertex
 10
47.68701170682825
 20
-28.80978325017603
 30
0.0
  0
VERTEX
  5
FA
330
EF
100
AcDbEntity
  8
LAYER_1
 62
     7
100
AcDbVertex
100
AcDb2dVertex
 10
47.41846651375302
 20
-30.01573892478773
 30
0.0
  0
VERTEX
  5
FB
330
EF
100
AcDbEntity
  8
LAYER_1
 62
     7
100
AcDbVertex
100
AcDb2dVertex
 10
47.1816161991421
 20
-30.01573892478773
 30
0.0
  0
VERTEX
  5
FC
330
EF
100
AcDbEntity
  8
LAYER_1
 62
     7
100
AcDbVertex
100
AcDb2dVertex
 10
46.91289875129261
 20
-28.80978325017603
 30
0.0
  0
VERTEX
  5
FD
330
EF
100
AcDbEntity
  8
LAYER_1
 62
     7
100
AcDbVertex
100
AcDb2dVertex
 10
46.90859238193605
 20
-28.80978325017603
 30
0.0
  0
VERTEX
  5
FE
330
EF
100
AcDbEntity
  8
LAYER_1
 62
     7
100
AcDbVertex
100
AcDb2dVertex
 10
46.90859238193605
 20
-30.01573892478773
 30
0.0
  0
VERTEX
  5
FF
330
EF
100
AcDbEntity
  8
LAYER_1
 62
     7
100
AcDbVertex
100
AcDb2dVertex
 10
46.62936739285655
 20
-30.01573892478773
 30
0.0
  0
VERTEX
  5
100
330
EF
100
AcDbEntity
  8
LAYER_1
 62
     7
100
AcDbVertex
100
AcDb2dVertex
 10
46.62936739285655
 20
-28.50523680927994
 30
0.0
  0
SEQEND
  5
101
330
EF
100
AcDbEntity
  8
LAYER_1
  0
SPLINE
  5
102
330
8F
100
AcDbEntity
  8
LAYER_1
 62
     7
100
AcDbSpline
210
0.0
220
0.0
230
1.0
 70
    11
 71
     3
 72
    17
 73
    13
 74
     0
 42
0.0000000001
 43
0.0000000001
 40
0.0
 40
0.0
 40
0.0
 40
0.0
 40
1.0
 40
1.0
 40
1.0
 40
2.0
 40
2.0
 40
2.0
 40
3.0
 40
3.0
 40
3.0
 40
4.0
 40
4.0
 40
4.0
 40
4.0
 10
48.59134927170633
 20
-28.84785155528804
 30
0.0
 10
48.94033744436214
 20
-28.84165038341459
 30
0.0
 10
49.0397284491116
 20
-29.04904513162663
 30
0.0
 10
49.0397284491116
 20
-29.44660915062446
 30
0.0
 10
49.0397284491116
 20
-29.83590494045769
 30
0.0
 10
48.92345647648442
 20
-30.04536674596088
 30
0.0
 10
48.59134927170633
 20
-30.04536674596088
 30
0.0
 10
48.24218884427626
 20
-30.05156791783433
 30
0.0
 10
48.1427978395268
 20
-29.84434542439655
 30
0.0
 10
48.1427978395268
 20
-29.44660915062446
 30
0.0
 10
48.1427978395268
 20
-29.05731336079123
 30
0.0
 10
48.25906981215398
 20
-28.84785155528804
 30
0.0
 10
48.59134927170633
 20
-28.84785155528804
 30
0.0
  0
SPLINE
  5
103
330
8F
100
AcDbEntity
  8
LAYER_1
 62
     7
100
AcDbSpline
210
0.0
220
0.0
230
1.0
 70
    11
 71
     3
 72
    17
 73
    13
 74
     0
 42
0.0000000001
 43
0.0000000001
 40
0.0
 40
0.0
 40
0.0
 40
0.0
 40
1.0
 40
1.0
 40
1.0
 40
2.0
 40
2.0
 40
2.0
 40
3.0
 40
3.0
 40
3.0
 40
4.0
 40
4.0
 40
4.0
 40
4.0
 10
48.59134927170633
 20
-29.8464124816877
 30
0.0
 10
48.70968830162467
 20
-29.8464124816877
 30
0.0
 10
48.74775660673667
 20
-29.73220756635167
 30
0.0
 10
48.74775660673667
 20
-29.44660915062446
 30
0.0
 10
48.74775660673667
 20
-29.16101073489725
 30
0.0
 10
48.70968830162467
 20
-29.04680581956122
 30
0.0
 10
48.59134927170633
 20
-29.04680581956122
 30
0.0
 10
48.44751653519715
 20
-29.04680581956122
 30
0.0
 10
48.43459742712746
 20
-29.21389295059583
 30
0.0
 10
48.43459742712746
 20
-29.44660915062446
 30
0.0
 10
48.43459742712746
 20
-29.67932535065309
 30
0.0
 10
48.44751653519715
 20
-29.8464124816877
 30
0.0
 10
48.59134927170633
 20
-29.8464124816877
 30
0.0
  0
SPLINE
  5
104
330
8F
100
AcDbEntity
  8
LAYER_1
 62
     7
100
AcDbSpline
210
0.0
220
0.0
230
1.0
 70
    11
 71
     3
 72
    44
 73
    40
 74
     0
 42
0.0000000001
 43
0.0000000001
 40
0.0
 40
0.0
 40
0.0
 40
0.0
 40
1.0
 40
1.0
 40
1.0
 40
2.0
 40
2.0
 40
2.0
 40
3.0
 40
3.0
 40
3.0
 40
4.0
 40
4.0
 40
4.0
 40
5.0
 40
5.0
 40
5.0
 40
6.0
 40
6.0
 40
6.0
 40
7.0
 40
7.0
 40
7.0
 40
8.0
 40
8.0
 40
8.0
 40
9.0
 40
9.0
 40
9.0
 40
10.0
 40
10.0
 40
10.0
 40
11.0
 40
11.0
 40
11.0
 40
12.0
 40
12.0
 40
12.0
 40
13.0
 40
13.0
 40
13.0
 40
13.0
 10
49.78076848798884
 20
-29.88241372950856
 30
0.0
 10
49.78076848798884
 20
-29.88241372950856
 30
0.0
 10
49.77646211863227
 20
-29.88241372950856
 30
0.0
 10
49.77646211863227
 20
-29.88241372950856
 30
0.0
 10
49.71513941899483
 20
-29.99455158755345
 30
0.0
 10
49.61144204488881
 20
-30.04536674596088
 30
0.0
 10
49.48672958832277
 20
-30.04536674596088
 30
0.0
 10
49.30258923463616
 20
-30.04536674596088
 30
0.0
 10
49.19682480323899
 20
-29.94804279850257
 30
0.0
 10
49.19682480323899
 20
-29.72170002512166
 30
0.0
 10
49.19682480323899
 20
-29.72170002512166
 30
0.0
 10
49.19682480323899
 20
-28.87747937646119
 30
0.0
 10
49.19682480323899
 20
-28.87747937646119
 30
0.0
 10
49.19682480323899
 20
-28.87747937646119
 30
0.0
 10
49.48879664561392
 20
-28.87747937646119
 30
0.0
 10
49.48879664561392
 20
-28.87747937646119
 30
0.0
 10
49.48879664561392
 20
-28.87747937646119
 30
0.0
 10
49.48879664561392
 20
-29.6622721280011
 30
0.0
 10
49.48879664561392
 20
-29.6622721280011
 30
0.0
 10
49.48879664561392
 20
-29.77871635540254
 30
0.0
 10
49.52686495072592
 20
-29.82109102987112
 30
0.0
 10
49.61350910217996
 20
-29.82109102987112
 30
0.0
 10
49.71720647628598
 20
-29.82109102987112
 30
0.0
 10
49.76802163469341
 20
-29.75752901816826
 30
0.0
 10
49.76802163469341
 20
-29.63281656160222
 30
0.0
 10
49.76802163469341
 20
-29.63281656160222
 30
0.0
 10
49.76802163469341
 20
-28.87747937646119
 30
0.0
 10
49.76802163469341
 20
-28.87747937646119
 30
0.0
 10
49.76802163469341
 20
-28.87747937646119
 30
0.0
 10
50.05999347706834
 20
-28.87747937646119
 30
0.0
 10
50.05999347706834
 20
-28.87747937646119
 30
0.0
 10
50.05999347706834
 20
-28.87747937646119
 30
0.0
 10
50.05999347706834
 20
-30.01573892478773
 30
0.0
 10
50.05999347706834
 20
-30.01573892478773
 30
0.0
 10
50.05999347706834
 20
-30.01573892478773
 30
0.0
 10
49.78076848798884
 20
-30.01573892478773
 30
0.0
 10
49.78076848798884
 20
-30.01573892478773
 30
0.0
 10
49.78076848798884
 20
-30.01573892478773
 30
0.0
 10
49.78076848798884
 20
-29.88241372950856
 30
0.0
 10
49.78076848798884
 20
-29.88241372950856
 30
0.0
  0
SPLINE
  5
105
330
8F
100
AcDbEntity
  8
LAYER_1
 62
     7
100
AcDbSpline
210
0.0
220
0.0
230
1.0
 70
    11
 71
     3
 72
    44
 73
    40
 74
     0
 42
0.0000000001
 43
0.0000000001
 40
0.0
 40
0.0
 40
0.0
 40
0.0
 40
1.0
 40
1.0
 40
1.0
 40
2.0
 40
2.0
 40
2.0
 40
3.0
 40
3.0
 40
3.0
 40
4.0
 40
4.0
 40
4.0
 40
5.0
 40
5.0
 40
5.0
 40
6.0
 40
6.0
 40
6.0
 40
7.0
 40
7.0
 40
7.0
 40
8.0
 40
8.0
 40
8.0
 40
9.0
 40
9.0
 40
9.0
 40
10.0
 40
10.0
 40
10.0
 40
11.0
 40
11.0
 40
11.0
 40
12.0
 40
12.0
 40
12.0
 40
13.0
 40
13.0
 40
13.0
 40
13.0
 10
50.25515813630774
 20
-28.87747937646119
 30
0.0
 10
50.25515813630774
 20
-28.87747937646119
 30
0.0
 10
50.53438312538724
 20
-28.87747937646119
 30
0.0
 10
50.53438312538724
 20
-28.87747937646119
 30
0.0
 10
50.53438312538724
 20
-28.87747937646119
 30
0.0
 10
50.53438312538724
 20
-29.01080457174035
 30
0.0
 10
50.53438312538724
 20
-29.01080457174035
 30
0.0
 10
50.53438312538724
 20
-29.01080457174035
 30
0.0
 10
50.53851723996954
 20
-29.01080457174035
 30
0.0
 10
50.53851723996954
 20
-29.01080457174035
 30
0.0
 10
50.59983993960699
 20
-28.89866671369547
 30
0.0
 10
50.70370956848727
 20
-28.84785155528804
 30
0.0
 10
50.82842202505331
 20
-28.84785155528804
 30
0.0
 10
51.01239012396565
 20
-28.84785155528804
 30
0.0
 10
51.11832681013708
 20
-28.94517550274634
 30
0.0
 10
51.11832681013708
 20
-29.17151827612726
 30
0.0
 10
51.11832681013708
 20
-29.17151827612726
 30
0.0
 10
51.11832681013708
 20
-30.01573892478773
 30
0.0
 10
51.11832681013708
 20
-30.01573892478773
 30
0.0
 10
51.11832681013708
 20
-30.01573892478773
 30
0.0
 10
50.82635496776216
 20
-30.01573892478773
 30
0.0
 10
50.82635496776216
 20
-30.01573892478773
 30
0.0
 10
50.82635496776216
 20
-30.01573892478773
 30
0.0
 10
50.82635496776216
 20
-29.23094617324782
 30
0.0
 10
50.82635496776216
 20
-29.23094617324782
 30
0.0
 10
50.82635496776216
 20
-29.11450194584637
 30
0.0
 10
50.78828666265015
 20
-29.0721272713778
 30
0.0
 10
50.70147025642186
 20
-29.0721272713778
 30
0.0
 10
50.59777288231584
 20
-29.0721272713778
 30
0.0
 10
50.54712997868266
 20
-29.13568928308066
 30
0.0
 10
50.54712997868266
 20
-29.26040173964671
 30
0.0
 10
50.54712997868266
 20
-29.26040173964671
 30
0.0
 10
50.54712997868266
 20
-30.01573892478773
 30
0.0
 10
50.54712997868266
 20
-30.01573892478773
 30
0.0
 10
50.54712997868266
 20
-30.01573892478773
 30
0.0
 10
50.25515813630774
 20
-30.01573892478773
 30
0.0
 10
50.25515813630774
 20
-30.01573892478773
 30
0.0
 10
50.25515813630774
 20
-30.01573892478773
 30
0.0
 10
50.25515813630774
 20
-28.87747937646119
 30
0.0
 10
50.25515813630774
 20
-28.87747937646119
 30
0.0
  0
SPLINE
  5
106
330
8F
100
AcDbEntity
  8
LAYER_1
 62
     7
100
AcDbSpline
210
0.0
220
0.0
230
1.0
 70
    11
 71
     3
 72
    53
 73
    49
 74
     0
 42
0.0000000001
 43
0.0000000001
 40
0.0
 40
0.0
 40
0.0
 40
0.0
 40
1.0
 40
1.0
 40
1.0
 40
2.0
 40
2.0
 40
2.0
 40
3.0
 40
3.0
 40
3.0
 40
4.0
 40
4.0
 40
4.0
 40
5.0
 40
5.0
 40
5.0
 40
6.0
 40
6.0
 40
6.0
 40
7.0
 40
7.0
 40
7.0
 40
8.0
 40
8.0
 40
8.0
 40
9.0
 40
9.0
 40
9.0
 40
10.0
 40
10.0
 40
10.0
 40
11.0
 40
11.0
 40
11.0
 40
12.0
 40
12.0
 40
12.0
 40
13.0
 40
13.0
 40
13.0
 40
14.0
 40
14.0
 40
14.0
 40
15.0
 40
15.0
 40
15.0
 40
16.0
 40
16.0
 40
16.0
 40
16.0
 10
51.37705348107935
 20
-28.55191785310508
 30
0.0
 10
51.37705348107935
 20
-28.55191785310508
 30
0.0
 10
51.66885306868001
 20
-28.55191785310508
 30
0.0
 10
51.66885306868001
 20
-28.55191785310508
 30
0.0
 10
51.66885306868001
 20
-28.55191785310508
 30
0.0
 10
51.66885306868001
 20
-28.87747937646119
 30
0.0
 10
51.66885306868001
 20
-28.87747937646119
 30
0.0
 10
51.66885306868001
 20
-28.87747937646119
 30
0.0
 10
51.83800725700578
 20
-28.87747937646119
 30
0.0
 10
51.83800725700578
 20
-28.87747937646119
 30
0.0
 10
51.83800725700578
 20
-28.87747937646119
 30
0.0
 10
51.83800725700578
 20
-29.0762613859601
 30
0.0
 10
51.83800725700578
 20
-29.0762613859601
 30
0.0
 10
51.83800725700578
 20
-29.0762613859601
 30
0.0
 10
51.66885306868001
 20
-29.0762613859601
 30
0.0
 10
51.66885306868001
 20
-29.0762613859601
 30
0.0
 10
51.66885306868001
 20
-29.0762613859601
 30
0.0
 10
51.66885306868001
 20
-29.69207220394851
 30
0.0
 10
51.66885306868001
 20
-29.69207220394851
 30
0.0
 10
51.66885306868001
 20
-29.78302272475911
 30
0.0
 10
51.68797334862315
 20
-29.81695691528882
 30
0.0
 10
51.77255044278603
 20
-29.81695691528882
 30
0.0
 10
51.79580483731147
 20
-29.81695691528882
 30
0.0
 10
51.8190592318369
 20
-29.8147176032234
 30
0.0
 10
51.83800725700578
 20
-29.81265054593225
 30
0.0
 10
51.83800725700578
 20
-29.81265054593225
 30
0.0
 10
51.83800725700578
 20
-30.01573892478773
 30
0.0
 10
51.83800725700578
 20
-30.01573892478773
 30
0.0
 10
51.77255044278603
 20
-30.02194009666118
 30
0.0
 10
51.71553411250515
 20
-30.0283135233089
 30
0.0
 10
51.64783798621999
 20
-30.0283135233089
 30
0.0
 10
51.41925590077366
 20
-30.0283135233089
 30
0.0
 10
51.37705348107935
 20
-29.95648328244144
 30
0.0
 10
51.37705348107935
 20
-29.72807345176937
 30
0.0
 10
51.37705348107935
 20
-29.72807345176937
 30
0.0
 10
51.37705348107935
 20
-29.0762613859601
 30
0.0
 10
51.37705348107935
 20
-29.0762613859601
 30
0.0
 10
51.37705348107935
 20
-29.0762613859601
 30
0.0
 10
51.22891437521361
 20
-29.0762613859601
 30
0.0
 10
51.22891437521361
 20
-29.0762613859601
 30
0.0
 10
51.22891437521361
 20
-29.0762613859601
 30
0.0
 10
51.22891437521361
 20
-28.87747937646119
 30
0.0
 10
51.22891437521361
 20
-28.87747937646119
 30
0.0
 10
51.22891437521361
 20
-28.87747937646119
 30
0.0
 10
51.37705348107935
 20
-28.87747937646119
 30
0.0
 10
51.37705348107935
 20
-28.87747937646119
 30
0.0
 10
51.37705348107935
 20
-28.87747937646119
 30
0.0
 10
51.37705348107935
 20
-28.55191785310508
 30
0.0
 10
51.37705348107935
 20
-28.55191785310508
 30
0.0
  0
POLYLINE
  5
107
330
8F
100
AcDbEntity
  8
LAYER_1
 62
     7
100
AcDb2dPolyline
 66
     1
 10
0.0
 20
0.0
 30
0.0
  0
VERTEX
  5
108
330
107
100
AcDbEntity
  8
LAYER_1
 62
     7
100
AcDbVertex
100
AcDb2dVertex
 10
51.95066187937345
 20
-28.48818358662795
 30
0.0
  0
VERTEX
  5
109
330
107
100
AcDbEntity
  8
LAYER_1
 62
     7
100
AcDbVertex
100
AcDb2dVertex
 10
52.24263372174837
 20
-28.48818358662795
 30
0.0
  0
VERTEX
  5
10A
330
107
100
AcDbEntity
  8
LAYER_1
 62
     7
100
AcDbVertex
100
AcDb2dVertex
 10
52.24263372174837
 20
-28.73795300930857
 30
0.0
  0
VERTEX
  5
10B
330
107
100
AcDbEntity
  8
LAYER_1
 62
     7
100
AcDbVertex
100
AcDb2dVertex
 10
51.95066187937345
 20
-28.73795300930857
 30
0.0
  0
VERTEX
  5
10C
330
107
100
AcDbEntity
  8
LAYER_1
 62
     7
100
AcDbVertex
100
AcDb2dVertex
 10
51.95066187937345
 20
-28.48818358662795
 30
0.0
  0
SEQEND
  5
10D
330
107
100
AcDbEntity
  8
LAYER_1
  0
POLYLINE
  5
10E
330
8F
100
AcDbEntity
  8
LAYER_1
 62
     7
100
AcDb2dPolyline
 66
     1
 10
0.0
 20
0.0
 30
0.0
  0
VERTEX
  5
10F
330
10E
100
AcDbEntity
  8
LAYER_1
 62
     7
100
AcDbVertex
100
AcDb2dVertex
 10
51.95066187937345
 20
-28.87747937646119
 30
0.0
  0
VERTEX
  5
110
330
10E
100
AcDbEntity
  8
LAYER_1
 62
     7
100
AcDbVertex
100
AcDb2dVertex
 10
52.24263372174837
 20
-28.87747937646119
 30
0.0
  0
VERTEX
  5
111
330
10E
100
AcDbEntity
  8
LAYER_1
 62
     7
100
AcDbVertex
100
AcDb2dVertex
 10
52.24263372174837
 20
-30.01573892478773
 30
0.0
  0
VERTEX
  5
112
330
10E
100
AcDbEntity
  8
LAYER_1
 62
     7
100
AcDbVertex
100
AcDb2dVertex
 10
51.95066187937345
 20
-30.01573892478773
 30
0.0
  0
VERTEX
  5
113
330
10E
100
AcDbEntity
  8
LAYER_1
 62
     7
100
AcDbVertex
100
AcDb2dVertex
 10
51.95066187937345
 20
-28.87747937646119
 30
0.0
  0
SEQEND
  5
114
330
10E
100
AcDbEntity
  8
LAYER_1
  0
SPLINE
  5
115
330
8F
100
AcDbEntity
  8
LAYER_1
 62
     7
100
AcDbSpline
210
0.0
220
0.0
230
1.0
 70
    11
 71
     3
 72
    44
 73
    40
 74
     0
 42
0.0000000001
 43
0.0000000001
 40
0.0
 40
0.0
 40
0.0
 40
0.0
 40
1.0
 40
1.0
 40
1.0
 40
2.0
 40
2.0
 40
2.0
 40
3.0
 40
3.0
 40
3.0
 40
4.0
 40
4.0
 40
4.0
 40
5.0
 40
5.0
 40
5.0
 40
6.0
 40
6.0
 40
6.0
 40
7.0
 40
7.0
 40
7.0
 40
8.0
 40
8.0
 40
8.0
 40
9.0
 40
9.0
 40
9.0
 40
10.0
 40
10.0
 40
10.0
 40
11.0
 40
11.0
 40
11.0
 40
12.0
 40
12.0
 40
12.0
 40
13.0
 40
13.0
 40
13.0
 40
13.0
 10
52.44796141266927
 20
-28.87747937646119
 30
0.0
 10
52.44796141266927
 20
-28.87747937646119
 30
0.0
 10
52.72735865652302
 20
-28.87747937646119
 30
0.0
 10
52.72735865652302
 20
-28.87747937646119
 30
0.0
 10
52.72735865652302
 20
-28.87747937646119
 30
0.0
 10
52.72735865652302
 20
-29.01080457174035
 30
0.0
 10
52.72735865652302
 20
-29.01080457174035
 30
0.0
 10
52.72735865652302
 20
-29.01080457174035
 30
0.0
 10
52.73149277110532
 20
-29.01080457174035
 30
0.0
 10
52.73149277110532
 20
-29.01080457174035
 30
0.0
 10
52.79281547074277
 20
-28.89866671369547
 30
0.0
 10
52.89651284484879
 20
-28.84785155528804
 30
0.0
 10
53.0213975561891
 20
-28.84785155528804
 30
0.0
 10
53.20536565510144
 20
-28.84785155528804
 30
0.0
 10
53.31113008649861
 20
-28.94517550274634
 30
0.0
 10
53.31113008649861
 20
-29.17151827612726
 30
0.0
 10
53.31113008649861
 20
-29.17151827612726
 30
0.0
 10
53.31113008649861
 20
-30.01573892478773
 30
0.0
 10
53.31113008649861
 20
-30.01573892478773
 30
0.0
 10
53.31113008649861
 20
-30.01573892478773
 30
0.0
 10
53.01933049889795
 20
-30.01573892478773
 30
0.0
 10
53.01933049889795
 20
-30.01573892478773
 30
0.0
 10
53.01933049889795
 20
-30.01573892478773
 30
0.0
 10
53.01933049889795
 20
-29.23094617324782
 30
0.0
 10
53.01933049889795
 20
-29.23094617324782
 30
0.0
 10
53.01933049889795
 20
-29.11450194584637
 30
0.0
 10
52.98108993901167
 20
-29.0721272713778
 30
0.0
 10
52.89427353278338
 20
-29.0721272713778
 30
0.0
 10
52.79074841345162
 20
-29.0721272713778
 30
0.0
 10
52.73993325504419
 20
-29.13568928308066
 30
0.0
 10
52.73993325504419
 20
-29.26040173964671
 30
0.0
 10
52.73993325504419
 20
-29.26040173964671
 30
0.0
 10
52.73993325504419
 20
-30.01573892478773
 30
0.0
 10
52.73993325504419
 20
-30.01573892478773
 30
0.0
 10
52.73993325504419
 20
-30.01573892478773
 30
0.0
 10
52.44796141266927
 20
-30.01573892478773
 30
0.0
 10
52.44796141266927
 20
-30.01573892478773
 30
0.0
 10
52.44796141266927
 20
-30.01573892478773
 30
0.0
 10
52.44796141266927
 20
-28.87747937646119
 30
0.0
 10
52.44796141266927
 20
-28.87747937646119
 30
0.0
  0
SPLINE
  5
116
330
8F
100
AcDbEntity
  8
LAYER_1
 62
     7
100
AcDbSpline
210
0.0
220
0.0
230
1.0
 70
    11
 71
     3
 72
    53
 73
    49
 74
     0
 42
0.0000000001
 43
0.0000000001
 40
0.0
 40
0.0
 40
0.0
 40
0.0
 40
1.0
 40
1.0
 40
1.0
 40
2.0
 40
2.0
 40
2.0
 40
3.0
 40
3.0
 40
3.0
 40
4.0
 40
4.0
 40
4.0
 40
5.0
 40
5.0
 40
5.0
 40
6.0
 40
6.0
 40
6.0
 40
7.0
 40
7.0
 40
7.0
 40
8.0
 40
8.0
 40
8.0
 40
9.0
 40
9.0
 40
9.0
 40
10.0
 40
10.0
 40
10.0
 40
11.0
 40
11.0
 40
11.0
 40
12.0
 40
12.0
 40
12.0
 40
13.0
 40
13.0
 40
13.0
 40
14.0
 40
14.0
 40
14.0
 40
15.0
 40
15.0
 40
15.0
 40
16.0
 40
16.0
 40
16.0
 40
16.0
 10
54.35878362356308
 20
-28.87747937646119
 30
0.0
 10
54.35878362356308
 20
-28.87747937646119
 30
0.0
 10
54.35878362356308
 20
-29.95855033973259
 30
0.0
 10
54.35878362356308
 20
-29.95855033973259
 30
0.0
 10
54.35878362356308
 20
-30.26102972333752
 30
0.0
 10
54.22563068305818
 20
-30.40503471462096
 30
0.0
 10
53.88508299434123
 20
-30.40503471462096
 30
0.0
 10
53.63755288372603
 20
-30.40503471462096
 30
0.0
 10
53.49785426179915
 20
-30.29479165909297
 30
0.0
 10
53.49785426179915
 20
-30.10031601895062
 30
0.0
 10
53.49785426179915
 20
-30.10031601895062
 30
0.0
 10
53.77707925087865
 20
-30.10031601895062
 30
0.0
 10
53.77707925087865
 20
-30.10031601895062
 30
0.0
 10
53.77707925087865
 20
-30.13631726677148
 30
0.0
 10
53.79206541623949
 20
-30.16594508794462
 30
0.0
 10
53.82152098263838
 20
-30.18696017040465
 30
0.0
 10
53.84908174652037
 20
-30.20608045034779
 30
0.0
 10
53.88301593705008
 20
-30.21882730364321
 30
0.0
 10
53.91884493009668
 20
-30.21882730364321
 30
0.0
 10
54.03735621478928
 20
-30.21882730364321
 30
0.0
 10
54.07973088925785
 20
-30.13218315218918
 30
0.0
 10
54.07973088925785
 20
-30.01367186749658
 30
0.0
 10
54.07973088925785
 20
-30.01367186749658
 30
0.0
 10
54.07973088925785
 20
-29.86346570433969
 30
0.0
 10
54.07973088925785
 20
-29.86346570433969
 30
0.0
 10
54.07973088925785
 20
-29.86346570433969
 30
0.0
 10
54.07542451990128
 20
-29.86346570433969
 30
0.0
 10
54.07542451990128
 20
-29.86346570433969
 30
0.0
 10
54.01634113232925
 20
-29.94804279850257
 30
0.0
 10
53.9252183567444
 20
-30.00299207149231
 30
0.0
 10
53.83220077864264
 20
-30.00299207149231
 30
0.0
 10
53.60155163590517
 20
-30.00299207149231
 30
0.0
 10
53.48304035121257
 20
-29.84210611233114
 30
0.0
 10
53.48304035121257
 20
-29.42766112545559
 30
0.0
 10
53.48304035121257
 20
-29.16101073489725
 30
0.0
 10
53.52541502568115
 20
-28.84785155528804
 30
0.0
 10
53.84064126258151
 20
-28.84785155528804
 30
0.0
 10
53.92315129945325
 20
-28.84785155528804
 30
0.0
 10
54.0184081896204
 20
-28.88609211517431
 30
0.0
 10
54.07542451990128
 20
-29.00460339986691
 30
0.0
 10
54.07542451990128
 20
-29.00460339986691
 30
0.0
 10
54.07973088925785
 20
-29.00460339986691
 30
0.0
 10
54.07973088925785
 20
-29.00460339986691
 30
0.0
 10
54.07973088925785
 20
-29.00460339986691
 30
0.0
 10
54.07973088925785
 20
-28.87747937646119
 30
0.0
 10
54.07973088925785
 20
-28.87747937646119
 30
0.0
 10
54.07973088925785
 20
-28.87747937646119
 30
0.0
 10
54.35878362356308
 20
-28.87747937646119
 30
0.0
 10
54.35878362356308
 20
-28.87747937646119
 30
0.0
  0
SPLINE
  5
117
330
8F
100
AcDbEntity
  8
LAYER_1
 62
     7
100
AcDbSpline
210
0.0
220
0.0
230
1.0
 70
    11
 71
     3
 72
    17
 73
    13
 74
     0
 42
0.0000000001
 43
0.0000000001
 40
0.0
 40
0.0
 40
0.0
 40
0.0
 40
1.0
 40
1.0
 40
1.0
 40
2.0
 40
2.0
 40
2.0
 40
3.0
 40
3.0
 40
3.0
 40
4.0
 40
4.0
 40
4.0
 40
4.0
 10
53.9210842421621
 20
-29.77871635540254
 30
0.0
 10
54.04579669872814
 20
-29.77871635540254
 30
0.0
 10
54.07973088925785
 20
-29.64539116012337
 30
0.0
 10
54.07973088925785
 20
-29.45298257727217
 30
0.0
 10
54.07973088925785
 20
-29.17582464548382
 30
0.0
 10
54.04372964143699
 20
-29.0721272713778
 30
0.0
 10
53.92745766880981
 20
-29.0721272713778
 30
0.0
 10
53.79826658811294
 20
-29.0721272713778
 30
0.0
 10
53.7750121935875
 20
-29.17582464548382
 30
0.0
 10
53.7750121935875
 20
-29.48243814367106
 30
0.0
 10
53.7750121935875
 20
-29.63918998824992
 30
0.0
 10
53.79619953082179
 20
-29.77871635540254
 30
0.0
 10
53.9210842421621
 20
-29.77871635540254
 30
0.0
  0
SPLINE
  5
118
330
8F
100
AcDbEntity
  8
LAYER_1
 62
     7
100
AcDbSpline
210
0.0
220
0.0
230
1.0
 70
    11
 71
     3
 72
    26
 73
    22
 74
     0
 42
0.0000000001
 43
0.0000000001
 40
0.0
 40
0.0
 40
0.0
 40
0.0
 40
1.0
 40
1.0
 40
1.0
 40
2.0
 40
2.0
 40
2.0
 40
3.0
 40
3.0
 40
3.0
 40
4.0
 40
4.0
 40
4.0
 40
5.0
 40
5.0
 40
5.0
 40
6.0
 40
6.0
 40
6.0
 40
7.0
 40
7.0
 40
7.0
 40
7.0
 10
55.08122014681997
 20
-28.50523680927994
 30
0.0
 10
55.08122014681997
 20
-28.50523680927994
 30
0.0
 10
55.61417641838813
 20
-28.50523680927994
 30
0.0
 10
55.61417641838813
 20
-28.50523680927994
 30
0.0
 10
55.92526854070618
 20
-28.50523680927994
 30
0.0
 10
56.0289659148122
 20
-28.73157958266086
 30
0.0
 10
56.0289659148122
 20
-28.95809461081603
 30
0.0
 10
56.0289659148122
 20
-29.27108153565098
 30
0.0
 10
55.83638507718674
 20
-29.41284721486901
 30
0.0
 10
55.54871960416838
 20
-29.41284721486901
 30
0.0
 10
55.54871960416838
 20
-29.41284721486901
 30
0.0
 10
55.38576658771606
 20
-29.41284721486901
 30
0.0
 10
55.38576658771606
 20
-29.41284721486901
 30
0.0
 10
55.38576658771606
 20
-29.41284721486901
 30
0.0
 10
55.38576658771606
 20
-30.01573892478773
 30
0.0
 10
55.38576658771606
 20
-30.01573892478773
 30
0.0
 10
55.38576658771606
 20
-30.01573892478773
 30
0.0
 10
55.08122014681997
 20
-30.01573892478773
 30
0.0
 10
55.08122014681997
 20
-30.01573892478773
 30
0.0
 10
55.08122014681997
 20
-30.01573892478773
 30
0.0
 10
55.08122014681997
 20
-28.50523680927994
 30
0.0
 10
55.08122014681997
 20
-28.50523680927994
 30
0.0
  0
SPLINE
  5
119
330
8F
100
AcDbEntity
  8
LAYER_1
 62
     7
100
AcDbSpline
210
0.0
220
0.0
230
1.0
 70
    11
 71
     3
 72
    20
 73
    16
 74
     0
 42
0.0000000001
 43
0.0000000001
 40
0.0
 40
0.0
 40
0.0
 40
0.0
 40
1.0
 40
1.0
 40
1.0
 40
2.0
 40
2.0
 40
2.0
 40
3.0
 40
3.0
 40
3.0
 40
4.0
 40
4.0
 40
4.0
 40
5.0
 40
5.0
 40
5.0
 40
5.0
 10
55.38576658771606
 20
-29.18857149877925
 30
0.0
 10
55.38576658771606
 20
-29.18857149877925
 30
0.0
 10
55.52115884028638
 20
-29.18857149877925
 30
0.0
 10
55.52115884028638
 20
-29.18857149877925
 30
0.0
 10
55.64173718227013
 20
-29.18857149877925
 30
0.0
 10
55.72424721914186
 20
-29.11656900313752
 30
0.0
 10
55.72424721914186
 20
-28.96222872539833
 30
0.0
 10
55.72424721914186
 20
-28.81202256224144
 30
0.0
 10
55.66499157679556
 20
-28.72951252536971
 30
0.0
 10
55.51271835634752
 20
-28.72951252536971
 30
0.0
 10
55.51271835634752
 20
-28.72951252536971
 30
0.0
 10
55.38576658771606
 20
-28.72951252536971
 30
0.0
 10
55.38576658771606
 20
-28.72951252536971
 30
0.0
 10
55.38576658771606
 20
-28.72951252536971
 30
0.0
 10
55.38576658771606
 20
-29.18857149877925
 30
0.0
 10
55.38576658771606
 20
-29.18857149877925
 30
0.0
  0
POLYLINE
  5
11A
330
8F
100
AcDbEntity
  8
LAYER_1
 62
     7
100
AcDb2dPolyline
 66
     1
 10
0.0
 20
0.0
 30
0.0
  0
VERTEX
  5
11B
330
11A
100
AcDbEntity
  8
LAYER_1
 62
     7
100
AcDbVertex
100
AcDb2dVertex
 10
56.18175589958304
 20
-28.50523680927994
 30
0.0
  0
VERTEX
  5
11C
330
11A
100
AcDbEntity
  8
LAYER_1
 62
     7
100
AcDbVertex
100
AcDb2dVertex
 10
56.47372774195796
 20
-28.50523680927994
 30
0.0
  0
VERTEX
  5
11D
330
11A
100
AcDbEntity
  8
LAYER_1
 62
     7
100
AcDbVertex
100
AcDb2dVertex
 10
56.47372774195796
 20
-30.01573892478773
 30
0.0
  0
VERTEX
  5
11E
330
11A
100
AcDbEntity
  8
LAYER_1
 62
     7
100
AcDbVertex
100
AcDb2dVertex
 10
56.18175589958304
 20
-30.01573892478773
 30
0.0
  0
VERTEX
  5
11F
330
11A
100
AcDbEntity
  8
LAYER_1
 62
     7
100
AcDbVertex
100
AcDb2dVertex
 10
56.18175589958304
 20
-28.50523680927994
 30
0.0
  0
SEQEND
  5
120
330
11A
100
AcDbEntity
  8
LAYER_1
  0
SPLINE
  5
121
330
8F
100
AcDbEntity
  8
LAYER_1
 62
     7
100
AcDbSpline
210
0.0
220
0.0
230
1.0
 70
    11
 71
     3
 72
    56
 73
    52
 74
     0
 42
0.0000000001
 43
0.0000000001
 40
0.0
 40
0.0
 40
0.0
 40
0.0
 40
1.0
 40
1.0
 40
1.0
 40
2.0
 40
2.0
 40
2.0
 40
3.0
 40
3.0
 40
3.0
 40
4.0
 40
4.0
 40
4.0
 40
5.0
 40
5.0
 40
5.0
 40
6.0
 40
6.0
 40
6.0
 40
7.0
 40
7.0
 40
7.0
 40
8.0
 40
8.0
 40
8.0
 40
9.0
 40
9.0
 40
9.0
 40
10.0
 40
10.0
 40
10.0
 40
11.0
 40
11.0
 40
11.0
 40
12.0
 40
12.0
 40
12.0
 40
13.0
 40
13.0
 40
13.0
 40
14.0
 40
14.0
 40
14.0
 40
15.0
 40
15.0
 40
15.0
 40
16.0
 40
16.0
 40
16.0
 40
17.0
 40
17.0
 40
17.0
 40
17.0
 10
56.6769883755877
 20
-29.22663980389126
 30
0.0
 10
56.6769883755877
 20
-29.22663980389126
 30
0.0
 10
56.6769883755877
 20
-29.19907904000926
 30
0.0
 10
56.6769883755877
 20
-29.19907904000926
 30
0.0
 10
56.6769883755877
 20
-28.93673501880749
 30
0.0
 10
56.85682235991774
 20
-28.84785155528804
 30
0.0
 10
57.07696396142521
 20
-28.84785155528804
 30
0.0
 10
57.42388507678987
 20
-28.84785155528804
 30
0.0
 10
57.48934189100961
 20
-28.99185654657148
 30
0.0
 10
57.48934189100961
 20
-29.19701198271811
 30
0.0
 10
57.48934189100961
 20
-29.19701198271811
 30
0.0
 10
57.48934189100961
 20
-29.79559732328027
 30
0.0
 10
57.48934189100961
 20
-29.79559732328027
 30
0.0
 10
57.48934189100961
 20
-29.90360106674285
 30
0.0
 10
57.49778237494847
 20
-29.94804279850257
 30
0.0
 10
57.52534313883047
 20
-30.01573892478773
 30
0.0
 10
57.52534313883047
 20
-30.01573892478773
 30
0.0
 10
57.24611814975097
 20
-30.01573892478773
 30
0.0
 10
57.24611814975097
 20
-30.01573892478773
 30
0.0
 10
57.22699786980784
 20
-29.97973767696687
 30
0.0
 10
57.21855738586898
 20
-29.9373630024983
 30
0.0
 10
57.21011690193011
 20
-29.89722764009514
 30
0.0
 10
57.21011690193011
 20
-29.89722764009514
 30
0.0
 10
57.20598278734781
 20
-29.89722764009514
 30
0.0
 10
57.20598278734781
 20
-29.89722764009514
 30
0.0
 10
57.13828666106265
 20
-30.01573892478773
 30
0.0
 10
57.05784368148207
 20
-30.04536674596088
 30
0.0
 10
56.91607800226404
 20
-30.04536674596088
 30
0.0
 10
56.71298962340856
 20
-30.04536674596088
 30
0.0
 10
56.64098712776684
 20
-29.87190618827855
 30
0.0
 10
56.64098712776684
 20
-29.71946071305625
 30
0.0
 10
56.64098712776684
 20
-29.50379773567961
 30
0.0
 10
56.72780353399514
 20
-29.41904838674246
 30
0.0
 10
56.92882485555946
 20
-29.36427136852699
 30
0.0
 10
56.92882485555946
 20
-29.36427136852699
 30
0.0
 10
57.09384492930293
 20
-29.31982963676727
 30
0.0
 10
57.09384492930293
 20
-29.31982963676727
 30
0.0
 10
57.18048908075696
 20
-29.29640298746757
 30
0.0
 10
57.21011690193011
 20
-29.26264105171212
 30
0.0
 10
57.21011690193011
 20
-29.1865044414881
 30
0.0
 10
57.21011690193011
 20
-29.0996880352598
 30
0.0
 10
57.17411565410925
 20
-29.04680581956122
 30
0.0
 10
57.07472464935979
 20
-29.04680581956122
 30
0.0
 10
56.9837741285492
 20
-29.04680581956122
 30
0.0
 10
56.93933239678947
 20
-29.1038221498421
 30
0.0
 10
56.93933239678947
 20
-29.19494492542696
 30
0.0
 10
56.93933239678947
 20
-29.19494492542696
 30
0.0
 10
56.93933239678947
 20
-29.22663980389126
 30
0.0
 10
56.93933239678947
 20
-29.22663980389126
 30
0.0
 10
56.93933239678947
 20
-29.22663980389126
 30
0.0
 10
56.6769883755877
 20
-29.22663980389126
 30
0.0
 10
56.6769883755877
 20
-29.22663980389126
 30
0.0
  0
SPLINE
  5
122
330
8F
100
AcDbEntity
  8
LAYER_1
 62
     7
100
AcDbSpline
210
0.0
220
0.0
230
1.0
 70
    11
 71
     3
 72
    20
 73
    16
 74
     0
 42
0.0000000001
 43
0.0000000001
 40
0.0
 40
0.0
 40
0.0
 40
0.0
 40
1.0
 40
1.0
 40
1.0
 40
2.0
 40
2.0
 40
2.0
 40
3.0
 40
3.0
 40
3.0
 40
4.0
 40
4.0
 40
4.0
 40
5.0
 40
5.0
 40
5.0
 40
5.0
 10
57.21011690193011
 20
-29.44660915062446
 30
0.0
 10
57.16998153952695
 20
-29.47830402908876
 30
0.0
 10
57.12140569318493
 20
-29.49535725174075
 30
0.0
 10
57.08523219058981
 20
-29.50379773567961
 30
0.0
 10
56.96689316067148
 20
-29.52911918749619
 30
0.0
 10
56.9203843716206
 20
-29.58630777255134
 30
0.0
 10
56.9203843716206
 20
-29.68776583459195
 30
0.0
 10
56.9203843716206
 20
-29.77458224082024
 30
0.0
 10
56.9520792500849
 20
-29.8464124816877
 30
0.0
 10
57.03045517237433
 20
-29.8464124816877
 30
0.0
 10
57.10865883988951
 20
-29.8464124816877
 30
0.0
 10
57.21011690193011
 20
-29.79766438057142
 30
0.0
 10
57.21011690193011
 20
-29.67088486671422
 30
0.0
 10
57.21011690193011
 20
-29.67088486671422
 30
0.0
 10
57.21011690193011
 20
-29.44660915062446
 30
0.0
 10
57.21011690193011
 20
-29.44660915062446
 30
0.0
  0
SPLINE
  5
123
330
8F
100
AcDbEntity
  8
LAYER_1
 62
     7
100
AcDbSpline
210
0.0
220
0.0
230
1.0
 70
    11
 71
     3
 72
    53
 73
    49
 74
     0
 42
0.0000000001
 43
0.0000000001
 40
0.0
 40
0.0
 40
0.0
 40
0.0
 40
1.0
 40
1.0
 40
1.0
 40
2.0
 40
2.0
 40
2.0
 40
3.0
 40
3.0
 40
3.0
 40
4.0
 40
4.0
 40
4.0
 40
5.0
 40
5.0
 40
5.0
 40
6.0
 40
6.0
 40
6.0
 40
7.0
 40
7.0
 40
7.0
 40
8.0
 40
8.0
 40
8.0
 40
9.0
 40
9.0
 40
9.0
 40
10.0
 40
10.0
 40
10.0
 40
11.0
 40
11.0
 40
11.0
 40
12.0
 40
12.0
 40
12.0
 40
13.0
 40
13.0
 40
13.0
 40
14.0
 40
14.0
 40
14.0
 40
15.0
 40
15.0
 40
15.0
 40
16.0
 40
16.0
 40
16.0
 40
16.0
 10
57.76064316047304
 20
-28.55191785310508
 30
0.0
 10
57.76064316047304
 20
-28.55191785310508
 30
0.0
 10
58.05261500284796
 20
-28.55191785310508
 30
0.0
 10
58.05261500284796
 20
-28.55191785310508
 30
0.0
 10
58.05261500284796
 20
-28.55191785310508
 30
0.0
 10
58.05261500284796
 20
-28.87747937646119
 30
0.0
 10
58.05261500284796
 20
-28.87747937646119
 30
0.0
 10
58.05261500284796
 20
-28.87747937646119
 30
0.0
 10
58.22176919117373
 20
-28.87747937646119
 30
0.0
 10
58.22176919117373
 20
-28.87747937646119
 30
0.0
 10
58.22176919117373
 20
-28.87747937646119
 30
0.0
 10
58.22176919117373
 20
-29.0762613859601
 30
0.0
 10
58.22176919117373
 20
-29.0762613859601
 30
0.0
 10
58.22176919117373
 20
-29.0762613859601
 30
0.0
 10
58.05261500284796
 20
-29.0762613859601
 30
0.0
 10
58.05261500284796
 20
-29.0762613859601
 30
0.0
 10
58.05261500284796
 20
-29.0762613859601
 30
0.0
 10
58.05261500284796
 20
-29.69207220394851
 30
0.0
 10
58.05261500284796
 20
-29.69207220394851
 30
0.0
 10
58.05261500284796
 20
-29.78302272475911
 30
0.0
 10
58.0717352827911
 20
-29.81695691528882
 30
0.0
 10
58.15631237695398
 20
-29.81695691528882
 30
0.0
 10
58.17956677147941
 20
-29.81695691528882
 30
0.0
 10
58.20282116600485
 20
-29.8147176032234
 30
0.0
 10
58.22176919117373
 20
-29.81265054593225
 30
0.0
 10
58.22176919117373
 20
-29.81265054593225
 30
0.0
 10
58.22176919117373
 20
-30.01573892478773
 30
0.0
 10
58.22176919117373
 20
-30.01573892478773
 30
0.0
 10
58.15631237695398
 20
-30.02194009666118
 30
0.0
 10
58.09912379189883
 20
-30.0283135233089
 30
0.0
 10
58.03142766561368
 20
-30.0283135233089
 30
0.0
 10
57.80301783494161
 20
-30.0283135233089
 30
0.0
 10
57.76064316047304
 20
-29.95648328244144
 30
0.0
 10
57.76064316047304
 20
-29.72807345176937
 30
0.0
 10
57.76064316047304
 20
-29.72807345176937
 30
0.0
 10
57.76064316047304
 20
-29.0762613859601
 30
0.0
 10
57.76064316047304
 20
-29.0762613859601
 30
0.0
 10
57.76064316047304
 20
-29.0762613859601
 30
0.0
 10
57.61250405460729
 20
-29.0762613859601
 30
0.0
 10
57.61250405460729
 20
-29.0762613859601
 30
0.0
 10
57.61250405460729
 20
-29.0762613859601
 30
0.0
 10
57.61250405460729
 20
-28.87747937646119
 30
0.0
 10
57.61250405460729
 20
-28.87747937646119
 30
0.0
 10
57.61250405460729
 20
-28.87747937646119
 30
0.0
 10
57.76064316047304
 20
-28.87747937646119
 30
0.0
 10
57.76064316047304
 20
-28.87747937646119
 30
0.0
 10
57.76064316047304
 20
-28.87747937646119
 30
0.0
 10
57.76064316047304
 20
-28.55191785310508
 30
0.0
 10
57.76064316047304
 20
-28.55191785310508
 30
0.0
  0
SPLINE
  5
124
330
8F
100
AcDbEntity
  8
LAYER_1
 62
     7
100
AcDbSpline
210
0.0
220
0.0
230
1.0
 70
    11
 71
     3
 72
    35
 73
    31
 74
     0
 42
0.0000000001
 43
0.0000000001
 40
0.0
 40
0.0
 40
0.0
 40
0.0
 40
1.0
 40
1.0
 40
1.0
 40
2.0
 40
2.0
 40
2.0
 40
3.0
 40
3.0
 40
3.0
 40
4.0
 40
4.0
 40
4.0
 40
5.0
 40
5.0
 40
5.0
 40
6.0
 40
6.0
 40
6.0
 40
7.0
 40
7.0
 40
7.0
 40
8.0
 40
8.0
 40
8.0
 40
9.0
 40
9.0
 40
9.0
 40
10.0
 40
10.0
 40
10.0
 40
10.0
 10
58.57351344021774
 20
-29.49105088238418
 30
0.0
 10
58.57351344021774
 20
-29.49105088238418
 30
0.0
 10
58.57351344021774
 20
-29.58200140319478
 30
0.0
 10
58.57351344021774
 20
-29.58200140319478
 30
0.0
 10
58.57351344021774
 20
-29.7173936557651
 30
0.0
 10
58.60934243326433
 20
-29.8464124816877
 30
0.0
 10
58.71717392195266
 20
-29.8464124816877
 30
0.0
 10
58.81673718147638
 20
-29.8464124816877
 30
0.0
 10
58.85463323181412
 20
-29.77664929811139
 30
0.0
 10
58.87168645446611
 20
-29.63281656160222
 30
0.0
 10
58.87168645446611
 20
-29.63281656160222
 30
0.0
 10
59.13403047566788
 20
-29.63281656160222
 30
0.0
 10
59.13403047566788
 20
-29.63281656160222
 30
0.0
 10
59.12335067966361
 20
-29.89722764009514
 30
0.0
 10
59.00070528038871
 20
-30.04536674596088
 30
0.0
 10
58.72148029130921
 20
-30.04536674596088
 30
0.0
 10
58.29842256572054
 20
-30.04536674596088
 30
0.0
 10
58.28154159784281
 20
-29.71946071305625
 30
0.0
 10
58.28154159784281
 20
-29.43592935462019
 30
0.0
 10
58.28154159784281
 20
-29.1313829137241
 30
0.0
 10
58.34062498541485
 20
-28.84785155528804
 30
0.0
 10
58.73422714460464
 20
-28.84785155528804
 30
0.0
 10
59.07477483332158
 20
-28.84785155528804
 30
0.0
 10
59.15091144354561
 20
-29.0762613859601
 30
0.0
 10
59.15091144354561
 20
-29.42542181339017
 30
0.0
 10
59.15091144354561
 20
-29.42542181339017
 30
0.0
 10
59.15091144354561
 20
-29.49105088238418
 30
0.0
 10
59.15091144354561
 20
-29.49105088238418
 30
0.0
 10
59.15091144354561
 20
-29.49105088238418
 30
0.0
 10
58.57351344021774
 20
-29.49105088238418
 30
0.0
 10
58.57351344021774
 20
-29.49105088238418
 30
0.0
  0
SPLINE
  5
125
330
8F
100
AcDbEntity
  8
LAYER_1
 62
     7
100
AcDbSpline
210
0.0
220
0.0
230
1.0
 70
    11
 71
     3
 72
    17
 73
    13
 74
     0
 42
0.0000000001
 43
0.0000000001
 40
0.0
 40
0.0
 40
0.0
 40
0.0
 40
1.0
 40
1.0
 40
1.0
 40
2.0
 40
2.0
 40
2.0
 40
3.0
 40
3.0
 40
3.0
 40
4.0
 40
4.0
 40
4.0
 40
4.0
 10
58.87168645446611
 20
-29.31759032470185
 30
0.0
 10
58.8653130278184
 20
-29.14412976701952
 30
0.0
 10
58.84429794535837
 20
-29.04680581956122
 30
0.0
 10
58.72354734860036
 20
-29.04680581956122
 30
0.0
 10
58.60727537597318
 20
-29.04680581956122
 30
0.0
 10
58.57351344021774
 20
-29.16514484947955
 30
0.0
 10
58.57351344021774
 20
-29.27314859294213
 30
0.0
 10
58.57351344021774
 20
-29.27314859294213
 30
0.0
 10
58.57351344021774
 20
-29.31759032470185
 30
0.0
 10
58.57351344021774
 20
-29.31759032470185
 30
0.0
 10
58.57351344021774
 20
-29.31759032470185
 30
0.0
 10
58.87168645446611
 20
-29.31759032470185
 30
0.0
 10
58.87168645446611
 20
-29.31759032470185
 30
0.0
  0
ENDBLK
  5
92
330
8F
100
AcDbEntity
  8
0
100
AcDbBlockEnd
  0
BLOCK
  5
128
330
126
100
AcDbEntity
  8
0
100
AcDbBlockBegin
  2
BLOCK_4
 70
     0
 71
     0
 10
0.0
 20
0.0
 30
0.0
  3
BLOCK_4
  1

  0
SPLINE
  5
12A
330
126
100
AcDbEntity
  8
LAYER_1
100
AcDbSpline
210
0.0
220
0.0
230
1.0
 70
    11
 71
     3
 72
    17
 73
    13
 74
     0
 42
0.0000000001
 43
0.0000000001
 40
0.0
 40
0.0
 40
0.0
 40
0.0
 40
1.0
 40
1.0
 40
1.0
 40
2.0
 40
2.0
 40
2.0
 40
3.0
 40
3.0
 40
3.0
 40
4.0
 40
4.0
 40
4.0
 40
4.0
 10
51.76531574226701
 20
54.80699054619409
 30
0.0
 10
51.76531574226701
 20
55.69255234067756
 30
0.0
 10
51.04753009791521
 20
56.41033798502936
 30
0.0
 10
50.16196830343173
 20
56.41033798502936
 30
0.0
 10
49.27657876372253
 20
56.41033798502936
 30
0.0
 10
48.55862086459646
 20
55.69255234067756
 30
0.0
 10
48.55862086459646
 20
54.80699054619409
 30
0.0
 10
48.55862086459646
 20
53.92142875171061
 30
0.0
 10
49.27657876372253
 20
53.20364310735881
 30
0.0
 10
50.16196830343173
 20
53.20364310735881
 30
0.0
 10
51.04753009791521
 20
53.20364310735881
 30
0.0
 10
51.76531574226701
 20
53.92142875171061
 30
0.0
 10
51.76531574226701
 20
54.80699054619409
 30
0.0
  0
SPLINE
  5
12B
330
126
100
AcDbEntity
  8
LAYER_1
100
AcDbSpline
210
0.0
220
0.0
230
1.0
 70
    11
 71
     3
 72
    17
 73
    13
 74
     0
 42
0.0000000001
 43
0.0000000001
 40
0.0
 40
0.0
 40
0.0
 40
0.0
 40
1.0
 40
1.0
 40
1.0
 40
2.0
 40
2.0
 40
2.0
 40
3.0
 40
3.0
 40
3.0
 40
4.0
 40
4.0
 40
4.0
 40
4.0
 10
51.76548799704127
 20
-20.63095431341865
 30
0.0
 10
51.76548799704127
 20
-19.74556477370944
 30
0.0
 10
51.04770235268946
 20
-19.02760687458338
 30
0.0
 10
50.162140558206
 20
-19.02760687458338
 30
0.0
 10
49.27675101849679
 20
-19.02760687458338
 30
0.0
 10
48.55862086459646
 20
-19.74556477370944
 30
0.0
 10
48.55862086459646
 20
-20.63095431341865
 30
0.0
 10
48.55862086459646
 20
-21.51668836267638
 30
0.0
 10
49.27675101849679
 20
-22.23430175225393
 30
0.0
 10
50.162140558206
 20
-22.23430175225393
 30
0.0
 10
51.04770235268946
 20
-22.23430175225393
 30
0.0
 10
51.76548799704127
 20
-21.51668836267638
 30
0.0
 10
51.76548799704127
 20
-20.63095431341865
 30
0.0
  0
SPLINE
  5
12C
330
126
100
AcDbEntity
  8
LAYER_1
100
AcDbSpline
210
0.0
220
0.0
230
1.0
 70
    11
 71
     3
 72
    17
 73
    13
 74
     0
 42
0.0000000001
 43
0.0000000001
 40
0.0
 40
0.0
 40
0.0
 40
0.0
 40
1.0
 40
1.0
 40
1.0
 40
2.0
 40
2.0
 40
2.0
 40
3.0
 40
3.0
 40
3.0
 40
4.0
 40
4.0
 40
4.0
 40
4.0
 10
67.11631671499175
 20
30.55007323454998
 30
0.0
 10
67.11631671499175
 20
31.43546277425919
 30
0.0
 10
66.39853107063995
 20
32.15342067338526
 30
0.0
 10
65.51331378570501
 20
32.15342067338526
 30
0.0
 10
64.62757973644727
 20
32.15342067338526
 30
0.0
 10
63.90979409209547
 20
31.43546277425919
 30
0.0
 10
63.90979409209547
 20
30.55007323454998
 30
0.0
 10
63.90979409209547
 20
29.66433918529225
 30
0.0
 10
64.62757973644727
 20
28.94655354094045
 30
0.0
 10
65.51331378570501
 20
28.94655354094045
 30
0.0
 10
66.39853107063995
 20
28.94655354094045
 30
0.0
 10
67.11631671499175
 20
29.66433918529225
 30
0.0
 10
67.11631671499175
 20
30.55007323454998
 30
0.0
  0
SPLINE
  5
12D
330
126
100
AcDbEntity
  8
LAYER_1
100
AcDbSpline
210
0.0
220
0.0
230
1.0
 70
    11
 71
     3
 72
    17
 73
    13
 74
     0
 42
0.0000000001
 43
0.0000000001
 40
0.0
 40
0.0
 40
0.0
 40
0.0
 40
1.0
 40
1.0
 40
1.0
 40
2.0
 40
2.0
 40
2.0
 40
3.0
 40
3.0
 40
3.0
 40
4.0
 40
4.0
 40
4.0
 40
4.0
 10
95.26291908425719
 20
30.55007323454998
 30
0.0
 10
95.26291908425719
 20
31.43546277425919
 30
0.0
 10
94.54513343990538
 20
32.15342067338526
 30
0.0
 10
93.65991615497045
 20
32.15342067338526
 30
0.0
 10
92.77418210571271
 20
32.15342067338526
 30
0.0
 10
92.0563964613609
 20
31.43546277425919
 30
0.0
 10
92.0563964613609
 20
30.55007323454998
 30
0.0
 10
92.0563964613609
 20
29.66433918529225
 30
0.0
 10
92.77418210571271
 20
28.94655354094045
 30
0.0
 10
93.65991615497045
 20
28.94655354094045
 30
0.0
 10
94.54513343990538
 20
28.94655354094045
 30
0.0
 10
95.26291908425719
 20
29.66433918529225
 30
0.0
 10
95.26291908425719
 20
30.55007323454998
 30
0.0
  0
SPLINE
  5
12E
330
126
100
AcDbEntity
  8
LAYER_1
100
AcDbSpline
210
0.0
220
0.0
230
1.0
 70
    11
 71
     3
 72
    17
 73
    13
 74
     0
 42
0.0000000001
 43
0.0000000001
 40
0.0
 40
0.0
 40
0.0
 40
0.0
 40
1.0
 40
1.0
 40
1.0
 40
2.0
 40
2.0
 40
2.0
 40
3.0
 40
3.0
 40
3.0
 40
4.0
 40
4.0
 40
4.0
 40
4.0
 10
100.3745795104966
 20
-21.90116101883027
 30
0.0
 10
100.3745795104966
 20
-21.0155992243468
 30
0.0
 10
99.65662161137057
 20
-20.29764132522073
 30
0.0
 10
98.77157658120989
 20
-20.29764132522073
 30
0.0
 10
97.88584253195215
 20
-20.29764132522073
 30
0.0
 10
97.16788463282609
 20
-21.0155992243468
 30
0.0
 10
97.16788463282609
 20
-21.90116101883027
 30
0.0
 10
97.16788463282609
 20
-22.78672281331374
 30
0.0
 10
97.88584253195215
 20
-23.50450845766554
 30
0.0
 10
98.77157658120989
 20
-23.50450845766554
 30
0.0
 10
99.65662161137057
 20
-23.50450845766554
 30
0.0
 10
100.3745795104966
 20
-22.78672281331374
 30
0.0
 10
100.3745795104966
 20
-21.90116101883027
 30
0.0
  0
SPLINE
  5
12F
330
126
100
AcDbEntity
  8
LAYER_1
100
AcDbSpline
210
0.0
220
0.0
230
1.0
 70
    11
 71
     3
 72
    17
 73
    13
 74
     0
 42
0.0000000001
 43
0.0000000001
 40
0.0
 40
0.0
 40
0.0
 40
0.0
 40
1.0
 40
1.0
 40
1.0
 40
2.0
 40
2.0
 40
2.0
 40
3.0
 40
3.0
 40
3.0
 40
4.0
 40
4.0
 40
4.0
 40
4.0
 10
100.4062743889609
 20
61.22038030153519
 30
0.0
 10
100.4062743889609
 20
62.10594209601866
 30
0.0
 10
99.68848874460913
 20
62.82389999514472
 30
0.0
 10
98.80292695012567
 20
62.82389999514472
 30
0.0
 10
97.91753741041646
 20
62.82389999514472
 30
0.0
 10
97.19957951129038
 20
62.10594209601866
 30
0.0
 10
97.19957951129038
 20
61.22038030153519
 30
0.0
 10
97.19957951129038
 20
60.33499076182598
 30
0.0
 10
97.91753741041646
 20
59.61703286269991
 30
0.0
 10
98.80292695012567
 20
59.61703286269991
 30
0.0
 10
99.68848874460913
 20
59.61703286269991
 30
0.0
 10
100.4062743889609
 20
60.33499076182598
 30
0.0
 10
100.4062743889609
 20
61.22038030153519
 30
0.0
  0
ENDBLK
  5
129
330
126
100
AcDbEntity
  8
0
100
AcDbBlockEnd
  0
BLOCK
  5
132
330
130
100
AcDbEntity
  8
0
100
AcDbBlockBegin
  2
BLOCK_5
 70
     0
 71
     0
 10
0.0
 20
0.0
 30
0.0
  3
BLOCK_5
  1

  0
SPLINE
  5
134
330
130
100
AcDbEntity
  8
LAYER_1
100
AcDbSpline
210
0.0
220
0.0
230
1.0
 70
    11
 71
     3
 72
    41
 73
    37
 74
     0
 42
0.0000000001
 43
0.0000000001
 40
0.0
 40
0.0
 40
0.0
 40
0.0
 40
1.0
 40
1.0
 40
1.0
 40
2.0
 40
2.0
 40
2.0
 40
3.0
 40
3.0
 40
3.0
 40
4.0
 40
4.0
 40
4.0
 40
5.0
 40
5.0
 40
5.0
 40
6.0
 40
6.0
 40
6.0
 40
7.0
 40
7.0
 40
7.0
 40
8.0
 40
8.0
 40
8.0
 40
9.0
 40
9.0
 40
9.0
 40
10.0
 40
10.0
 40
10.0
 40
11.0
 40
11.0
 40
11.0
 40
12.0
 40
12.0
 40
12.0
 40
12.0
 10
102.4299234769967
 20
66.87447101192721
 30
0.0
 10
103.137546089667
 20
66.87447101192721
 30
0.0
 10
103.7166666407375
 20
66.29535046085672
 30
0.0
 10
103.7166666407375
 20
65.5877278481864
 30
0.0
 10
103.7166666407375
 20
65.5877278481864
 30
0.0
 10
103.7166666407375
 20
-29.62885470179418
 30
0.0
 10
103.7166666407375
 20
-29.62885470179418
 30
0.0
 10
103.7166666407375
 20
-30.33647731446449
 30
0.0
 10
103.137546089667
 20
-30.91559786553499
 30
0.0
 10
102.4299234769967
 20
-30.91559786553499
 30
0.0
 10
102.4299234769967
 20
-30.91559786553499
 30
0.0
 10
-9.296590166946686
 20
-30.91559786553499
 30
0.0
 10
-9.296590166946686
 20
-30.91559786553499
 30
0.0
 10
-10.004212779617
 20
-30.91559786553499
 30
0.0
 10
-10.5833333306875
 20
-30.33647731446449
 30
0.0
 10
-10.5833333306875
 20
-29.62885470179418
 30
0.0
 10
-10.5833333306875
 20
-29.62885470179418
 30
0.0
 10
-10.5833333306875
 20
56.1709038488045
 30
0.0
 10
-10.5833333306875
 20
56.1709038488045
 30
0.0
 10
-10.5833333306875
 20
56.87852646147481
 30
0.0
 10
-10.004212779617
 20
57.45764701254532
 30
0.0
 10
-9.296590166946686
 20
57.45764701254532
 30
0.0
 10
-9.296590166946686
 20
57.45764701254532
 30
0.0
 10
44.29807127798799
 20
57.45764701254532
 30
0.0
 10
44.29807127798799
 20
57.45764701254532
 30
0.0
 10
45.0056938906583
 20
57.45764701254532
 30
0.0
 10
45.5848144417288
 20
58.03676756361581
 30
0.0
 10
45.5848144417288
 20
58.74439017628612
 30
0.0
 10
45.5848144417288
 20
58.74439017628612
 30
0.0
 10
45.5848144417288
 20
65.5877278481864
 30
0.0
 10
45.5848144417288
 20
65.5877278481864
 30
0.0
 10
45.5848144417288
 20
66.29535046085672
 30
0.0
 10
46.1639349927993
 20
66.87447101192721
 30
0.0
 10
46.87155760546961
 20
66.87447101192721
 30
0.0
 10
46.87155760546961
 20
66.87447101192721
 30
0.0
 10
102.4299234769967
 20
66.87447101192721
 30
0.0
 10
102.4299234769967
 20
66.87447101192721
 30
0.0
  0
ENDBLK
  5
133
330
130
100
AcDbEntity
  8
0
100
AcDbBlockEnd
  0
ENDSEC
  0
SECTION
  2
ENTITIES
  0
IMAGE
  5
3F
330
1F
100
AcDbEntity
  8
LAYER_1
 92
        8
310
0800000000000000
100
AcDbRasterImage
 90
        0
 10
46.56666564941406
 20
-27.86944580078125
 30
0.0
 11
0.3527777783282391
 21
0.0
 31
0.0
 12
0.0
 22
0.352777790573408
 32
0.0
 13
154.0
 23
265.0
340
3D
 70
     3
280
     0
281
    50
282
    50
283
     0
360
40
 71
     1
 91
        2
 14
-0.5
 24
-0.5
 14
153.5
 24
264.5
  0
INSERT
  5
42
330
1F
100
AcDbEntity
  8
LAYER_1
100
AcDbBlockReference
  2
BLOCK_2
 10
0.0
 20
0.0
 30
0.0
  0
IMAGE
  5
8D
330
1F
100
AcDbEntity
  8
LAYER_1
 92
        8
310
0800000000000000
100
AcDbRasterImage
 90
        0
 10
-9.524999618530273
 20
-27.86944580078125
 30
0.0
 11
0.3527777783282391
 21
0.0
 31
0.0
 12
0.0
 22
0.352777789737179
 32
0.0
 13
154.0
 23
241.0
340
8C
 70
     3
280
     0
281
    50
282
    50
283
     0
360
8E
 71
     1
 91
        2
 14
-0.5
 24
-0.5
 14
153.5
 24
240.5
  0
INSERT
  5
90
330
1F
100
AcDbEntity
  8
LAYER_1
100
AcDbBlockReference
  2
BLOCK_3
 10
0.0
 20
0.0
 30
0.0
  0
INSERT
  5
127
330
1F
100
AcDbEntity
  8
LAYER_1
100
AcDbBlockReference
  2
BLOCK_4
 10
0.0
 20
0.0
 30
0.0
  0
INSERT
  5
131
330
1F
100
AcDbEntity
  8
LAYER_1
100
AcDbBlockReference
  2
BLOCK_5
 10
0.0
 20
0.0
 30
0.0
  0
ENDSEC
  0
SECTION
  2
OBJECTS
  0
DICTIONARY
  5
C
330
0
100
AcDbDictionary
  3
ACAD_GROUP
350
D
  3
ACAD_IMAGE_DICT
350
3C
  3
ACAD_IMAGE_VARS
350
3E
  3
ACAD_LAYOUT
350
1A
  3
ACAD_MLINESTYLE
350
17
  3
ACAD_PLOTSETTINGS
350
19
  3
ACAD_TABLESTYLE
350
135
  3
ACAD_VISUALSTYLE
350
2A
1001
ACAD
1000
TREAT_AS_HARD
1070
     0
  0
IMAGEDEF_REACTOR
  5
40
330
3F
100
AcDbRasterImageDefReactor
 90
        2
330
3F
  0
IMAGEDEF_REACTOR
  5
8E
330
8D
100
AcDbRasterImageDefReactor
 90
        2
330
8D
  0
DICTIONARY
  5
D
102
{ACAD_REACTORS
330
C
102
}
330
C
100
AcDbDictionary
1001
ACAD
1000
TREAT_AS_HARD
1070
     0
  0
DICTIONARY
  5
3C
102
{ACAD_REACTORS
330
C
102
}
330
C
100
AcDbDictionary
  3
/USERS/X1SC0/WORK/AI_PLAT0
350
8C
  3
/USERS/X1SC0/WORK/AI_PLATE
350
3D
1001
ACAD
1000
TREAT_AS_HARD
1070
     0
  0
RASTERVARIABLES
  5
3E
102
{ACAD_REACTORS
330
C
102
}
330
C
100
AcDbRasterVariables
 90
        0
 70
     0
 71
     1
 72
     0
  0
DICTIONARY
  5
1A
102
{ACAD_REACTORS
330
C
102
}
330
C
100
AcDbDictionary
1001
ACAD
1000
TREAT_AS_HARD
1070
     0
  0
DICTIONARY
  5
17
102
{ACAD_REACTORS
330
C
102
}
330
C
100
AcDbDictionary
  3
STANDARD
350
18
1001
ACAD
1000
TREAT_AS_HARD
1070
     0
  0
DICTIONARY
  5
19
102
{ACAD_REACTORS
330
C
102
}
330
C
100
AcDbDictionary
1001
ACAD
1000
TREAT_AS_HARD
1070
     0
  0
DICTIONARY
  5
135
102
{ACAD_REACTORS
330
C
102
}
330
C
100
AcDbDictionary
1001
ACAD
1000
TREAT_AS_HARD
1070
     0
  0
DICTIONARY
  5
2A
102
{ACAD_REACTORS
330
C
102
}
330
C
100
AcDbDictionary
  3
2DWIREFRAME
350
2F
  3
3DWIREFRAME
350
30
  3
3D_HIDDEN
350
31
  3
BASIC
350
32
  3
BRIGHTEN
350
36
  3
COLORCHANGE
350
3A
  3
CONCEPTUAL
350
34
  3
DIM
350
35
  3
FACEPATTERN
350
39
  3
FLAT
350
2B
  3
FLATWITHEDGES
350
2C
  3
GOURAUD
350
2D
  3
GOURAUDWITHEDGES
350
2E
  3
LINEPATTERN
350
38
  3
REALISTIC
350
33
  3
THICKEN
350
37
1001
ACAD
1000
TREAT_AS_HARD
1070
     0
  0
IMAGEDEF
  5
8C
102
{ACAD_REACTORS
330
3C
330
8E
102
}
330
3C
100
AcDbRasterImageDef
 90
        0
  1
/Users/x1sc0/Work/Ai_Plate_Arduino/Mega/ai_plate_mega_2.png
 10
154.0
 20
241.0
 11
0.3527777777777777
 21
0.3527777777777777
280
     1
281
     5
  0
IMAGEDEF
  5
3D
102
{ACAD_REACTORS
330
3C
330
40
102
}
330
3C
100
AcDbRasterImageDef
 90
        0
  1
/Users/x1sc0/Work/Ai_Plate_Arduino/Mega/ai_plate_mega_1.png
 10
154.0
 20
265.0
 11
0.3527777777777777
 21
0.3527777777777777
280
     1
281
     5
  0
MLINESTYLE
  5
18
102
{ACAD_REACTORS
330
17
102
}
330
17
100
AcDbMlineStyle
  2
Standard
 70
     0
  3

 62
   256
 51
90.0
 52
90.0
 71
     2
 49
0.5
 62
   256
  6
BYLAYER
 49
-0.5
 62
   256
  6
BYLAYER
  0
VISUALSTYLE
  5
2F
102
{ACAD_REACTORS
330
2A
102
}
330
2A
100
AcDbVisualStyle
  2
2dWireframe
 70
     4
 71
     0
 72
     2
 73
     0
 90
        0
 40
-0.6
 41
-30.0
 62
     5
 63
     7
 74
     1
 91
        4
 64
     7
 65
   257
 75
     1
175
     1
 42
1.0
 92
        0
 66
   257
 43
1.0
 76
     1
 77
     6
 78
     2
 67
     7
 79
     5
170
     0
171
     0
290
     0
174
     0
 93
        1
 44
0.0
173
     0
291
     0
 45
0.0
1001
ACAD
1000
AcDbSavedByObjectVersion
1070
     0
  0
VISUALSTYLE
  5
30
102
{ACAD_REACTORS
330
2A
102
}
330
2A
100
AcDbVisualStyle
  2
3dWireframe
 70
     5
 71
     0
 72
     2
 73
     0
 90
        0
 40
-0.6
 41
-30.0
 62
     5
 63
     7
 74
     1
 91
        4
 64
     7
 65
   257
 75
     1
175
     1
 42
1.0
 92
        0
 66
   257
 43
1.0
 76
     1
 77
     6
 78
     2
 67
     7
 79
     5
170
     0
171
     0
290
     0
174
     0
 93
        1
 44
0.0
173
     0
291
     0
 45
0.0
1001
ACAD
1000
AcDbSavedByObjectVersion
1070
     0
  0
VISUALSTYLE
  5
31
102
{ACAD_REACTORS
330
2A
102
}
330
2A
100
AcDbVisualStyle
  2
3D Hidden
 70
     6
 71
     1
 72
     2
 73
     2
 90
        0
 40
-0.6
 41
-30.0
 62
     5
 63
     7
 74
     2
 91
        2
 64
     7
 65
   257
 75
     2
175
     1
 42
40.0
 92
        0
 66
   257
 43
1.0
 76
     1
 77
     6
 78
     2
 67
     7
 79
     3
170
     0
171
     0
290
     0
174
     0
 93
        1
 44
0.0
173
     0
291
     0
 45
0.0
1001
ACAD
1000
AcDbSavedByObjectVersion
1070
     0
  0
VISUALSTYLE
  5
32
102
{ACAD_REACTORS
330
2A
102
}
330
2A
100
AcDbVisualStyle
  2
Basic
 70
     7
 71
     1
 72
     0
 73
     1
 90
        0
 40
-0.6
 41
-30.0
 62
     5
 63
     7
 74
     0
 91
        4
 64
     7
 65
   257
 75
     1
175
     1
 42
1.0
 92
        8
 66
     7
 43
1.0
 76
     1
 77
     6
 78
     2
 67
     7
 79
     5
170
     0
171
     0
290
     0
174
     0
 93
        1
 44
0.0
173
     0
291
     1
 45
0.0
1001
ACAD
1000
AcDbSavedByObjectVersion
1070
     0
  0
VISUALSTYLE
  5
36
102
{ACAD_REACTORS
330
2A
102
}
330
2A
100
AcDbVisualStyle
  2
Brighten
 70
    12
 71
     2
 72
     2
 73
     0
 90
        0
 40
-0.6
 41
-30.0
 62
     5
 63
     7
 74
     1
 91
        4
 64
     7
 65
   257
 75
     1
175
     1
 42
1.0
 92
        8
 66
     7
 43
1.0
 76
     1
 77
     6
 78
     2
 67
     7
 79
     5
170
     0
171
     0
290
     0
174
     0
 93
        1
 44
50.0
173
     0
291
     1
 45
0.0
1001
ACAD
1000
AcDbSavedByObjectVersion
1070
     0
  0
VISUALSTYLE
  5
3A
102
{ACAD_REACTORS
330
2A
102
}
330
2A
100
AcDbVisualStyle
  2
ColorChange
 70
    16
 71
     2
 72
     2
 73
     3
 90
        0
 40
-0.6
 41
-30.0
 62
     5
 63
     8
 74
     1
 91
        4
 64
     7
 65
   257
 75
     1
175
     1
 42
1.0
 92
        8
 66
     8
 43
1.0
 76
     1
 77
     6
 78
     2
 67
     7
 79
     5
170
     0
171
     0
290
     0
174
     0
 93
        1
 44
0.0
173
     0
291
     1
 45
0.0
1001
ACAD
1000
AcDbSavedByObjectVersion
1070
     0
  0
VISUALSTYLE
  5
34
102
{ACAD_REACTORS
330
2A
102
}
330
2A
100
AcDbVisualStyle
  2
Conceptual
 70
     9
 71
     3
 72
     2
 73
     0
 90
        0
 40
-0.6
 41
-30.0
 62
     5
 63
     7
 74
     2
 91
        2
 64
     7
 65
   257
 75
     1
175
     1
 42
40.0
 92
        8
 66
     7
 43
1.0
 76
     1
 77
     6
 78
     2
 67
     7
 79
     3
170
     0
171
     0
290
     0
174
     0
 93
        1
 44
0.0
173
     0
291
     0
 45
0.0
1001
ACAD
1000
AcDbSavedByObjectVersion
1070
     0
  0
VISUALSTYLE
  5
35
102
{ACAD_REACTORS
330
2A
102
}
330
2A
100
AcDbVisualStyle
  2
Dim
 70
    11
 71
     2
 72
     2
 73
     0
 90
        0
 40
-0.6
 41
-30.0
 62
     5
 63
     7
 74
     1
 91
        4
 64
     7
 65
   257
 75
     1
175
     1
 42
1.0
 92
        8
 66
     7
 43
1.0
 76
     1
 77
     6
 78
     2
 67
     7
 79
     5
170
     0
171
     0
290
     0
174
     0
 93
        1
 44
-50.0
173
     0
291
     1
 45
0.0
1001
ACAD
1000
AcDbSavedByObjectVersion
1070
     0
  0
VISUALSTYLE
  5
39
102
{ACAD_REACTORS
330
2A
102
}
330
2A
100
AcDbVisualStyle
  2
Facepattern
 70
    15
 71
     2
 72
     2
 73
     0
 90
        0
 40
-0.6
 41
-30.0
 62
     5
 63
     7
 74
     1
 91
        4
 64
     7
 65
   257
 75
     1
175
     1
 42
1.0
 92
        8
 66
     7
 43
1.0
 76
     1
 77
     6
 78
     2
 67
     7
 79
     5
170
     0
171
     0
290
     0
174
     0
 93
        1
 44
0.0
173
     0
291
     1
 45
0.0
1001
ACAD
1000
AcDbSavedByObjectVersion
1070
     0
  0
VISUALSTYLE
  5
2B
102
{ACAD_REACTORS
330
2A
102
}
330
2A
100
AcDbVisualStyle
  2
Flat
 70
     0
 71
     2
 72
     1
 73
     1
 90
        2
 40
-0.6
 41
30.0
 62
     5
 63
     7
 74
     0
 91
        4
 64
     7
 65
   257
 75
     1
175
     1
 42
1.0
 92
        8
 66
     7
 43
1.0
 76
     1
 77
     6
 78
     2
 67
     7
 79
     5
170
     0
171
     0
290
     0
174
     0
 93
       13
 44
0.0
173
     0
291
     1
 45
0.0
1001
ACAD
1000
AcDbSavedByObjectVersion
1070
     0
  0
VISUALSTYLE
  5
2C
102
{ACAD_REACTORS
330
2A
102
}
330
2A
100
AcDbVisualStyle
  2
FlatWithEdges
 70
     1
 71
     2
 72
     1
 73
     1
 90
        2
 40
-0.6
 41
30.0
 62
     5
 63
     7
 74
     1
 91
        4
 64
     7
 65
   257
 75
     1
175
     1
 42
1.0
 92
        0
 66
   257
 43
1.0
 76
     1
 77
     6
 78
     2
 67
     7
 79
     5
170
     0
171
     0
290
     0
174
     0
 93
       13
 44
0.0
173
     0
291
     1
 45
0.0
1001
ACAD
1000
AcDbSavedByObjectVersion
1070
     0
  0
VISUALSTYLE
  5
2D
102
{ACAD_REACTORS
330
2A
102
}
330
2A
100
AcDbVisualStyle
  2
Gouraud
 70
     2
 71
     2
 72
     2
 73
     1
 90
        2
 40
-0.6
 41
30.0
 62
     5
 63
     7
 74
     0
 91
        4
 64
     7
 65
   257
 75
     1
175
     1
 42
1.0
 92
        0
 66
     7
 43
1.0
 76
     1
 77
     6
 78
     2
 67
     7
 79
     5
170
     0
171
     0
290
     0
174
     0
 93
       13
 44
0.0
173
     0
291
     1
 45
0.0
1001
ACAD
1000
AcDbSavedByObjectVersion
1070
     0
  0
VISUALSTYLE
  5
2E
102
{ACAD_REACTORS
330
2A
102
}
330
2A
100
AcDbVisualStyle
  2
GouraudWithEdges
 70
     3
 71
     2
 72
     2
 73
     1
 90
        2
 40
-0.6
 41
30.0
 62
     5
 63
     7
 74
     1
 91
        4
 64
     7
 65
   257
 75
     1
175
     1
 42
1.0
 92
        0
 66
   257
 43
1.0
 76
     1
 77
     6
 78
     2
 67
     7
 79
     5
170
     0
171
     0
290
     0
174
     0
 93
       13
 44
0.0
173
     0
291
     1
 45
0.0
1001
ACAD
1000
AcDbSavedByObjectVersion
1070
     0
  0
VISUALSTYLE
  5
38
102
{ACAD_REACTORS
330
2A
102
}
330
2A
100
AcDbVisualStyle
  2
Linepattern
 70
    14
 71
     2
 72
     2
 73
     0
 90
        0
 40
-0.6
 41
-30.0
 62
     5
 63
     7
 74
     1
 91
        4
 64
     7
 65
   257
 75
     7
175
     7
 42
1.0
 92
        8
 66
     7
 43
1.0
 76
     1
 77
     6
 78
     2
 67
     7
 79
     5
170
     0
171
     0
290
     0
174
     0
 93
        1
 44
0.0
173
     0
291
     1
 45
0.0
1001
ACAD
1000
AcDbSavedByObjectVersion
1070
     0
  0
VISUALSTYLE
  5
33
102
{ACAD_REACTORS
330
2A
102
}
330
2A
100
AcDbVisualStyle
  2
Realistic
 70
     8
 71
     2
 72
     2
 73
     0
 90
        0
 40
-0.6
 41
-30.0
 62
     5
 63
     7
 74
     1
 91
        0
 64
     7
 65
   257
 75
     1
175
     1
 42
1.0
 92
        8
 66
     8
 43
1.0
 76
     1
 77
     6
 78
     2
 67
     7
 79
     5
170
     0
171
     0
290
     0
174
     0
 93
       13
 44
0.0
173
     0
291
     0
 45
0.0
1001
ACAD
1000
AcDbSavedByObjectVersion
1070
     0
  0
VISUALSTYLE
  5
37
102
{ACAD_REACTORS
330
2A
102
}
330
2A
100
AcDbVisualStyle
  2
Thicken
 70
    13
 71
     2
 72
     2
 73
     0
 90
        0
 40
-0.6
 41
-30.0
 62
     5
 63
     7
 74
     1
 91
        4
 64
     7
 65
   257
 75
     1
175
     1
 42
1.0
 92
       12
 66
     7
 43
1.0
 76
     1
 77
     6
 78
     2
 67
     7
 79
     5
170
     0
171
     0
290
     0
174
     0
 93
        1
 44
0.0
173
     0
291
     1
 45
0.0
1001
ACAD
1000
AcDbSavedByObjectVersion
1070
     0
  0
ENDSEC
  0
EOF
